<mxfile host="app.diagrams.net" modified="2022-08-17T05:23:03.573Z" agent="5.0 (X11; Linux x86_64) AppleWebKit/537.36 (KHTML, like Gecko) Chrome/102.0.0.0 Safari/537.36" etag="13-8ryWNXPuZPHgKdzWY" version="20.2.3" type="github">
  <diagram id="GQ1lfGZLwoXVQpBaQUE6" name="Page-1">
    <mxGraphModel dx="2200" dy="712" grid="1" gridSize="10" guides="1" tooltips="1" connect="1" arrows="1" fold="1" page="1" pageScale="1" pageWidth="850" pageHeight="1100" math="0" shadow="0">
      <root>
        <mxCell id="0" />
        <mxCell id="1" parent="0" />
        <mxCell id="e2jKU1gRPfwrZPwswT8l-4" value="" style="shape=image;verticalLabelPosition=bottom;labelBackgroundColor=default;verticalAlign=top;aspect=fixed;imageAspect=0;image=data:image/png,iVBORw0KGgoAAAANSUhEUgAABRYAAAD3CAYAAABo+wheAAAABHNCSVQICAgIfAhkiAAAIABJREFUeF7sXQm8TdUX/t7gPfM8zzKLIhkKoZCUOSqVoVSkfyWSkhRKCaFMFZV5yjzPhDLPZMg8kyFDPO+98z/fyeV58zl3WI+71u/3fuXeu/fa+ztr77P32t9aO8AwBSqKgCKgCCgCioAioAgoAoqAIqAIKAKKgCKgCCgCioAioAjYQCDQxm/1p4qAIqAIKAKKgCKgCCgCioAioAgoAoqAIqAIKAKKgCKgCFgIqGNRDUERUAQUAUVAEVAEFAFFQBFQBBQBRUARUAQUAUVAEVAEbCOgjkXbkGkBRUARUAQUAUVAEVAEFAFFQBFQBBQBRUARUAQUAUVAEVDHotqAIqAIKAKKgCKgCCgCioAioAgoAoqAIqAIKAKKgCKgCNhGQB2LtiHTAoqAIqAIKAKKgCKgCCgCioAioAgoAoqAIqAIKAKKgCKgjkW1AUVAEVAEFAFFQBFQBBQBRUARUAQUAUVAEVAEFAFFQBGwjYA6Fm1DpgUUAUVAEVAEFAFFQBFQBBQBRUARUAQUAUVAEVAEFAFFQB2LagOKgCKgCCgCioAioAgoAoqAIqAIKAKKgCKgCCgCioAiYBsBdSzahkwLKAKKgCKgCCgCioAioAgoAoqAIqAIKAKKgCKgCCgCioA6FtUGFAFFQBFQBBQBRUARUAQUAUVAEVAEFAFFQBFQBBQBRcA2AupYtA2ZFlAEFAFFQBFQBBQBRUARUAQUAUVAEVAEFAFFQBFQBBQBdSyqDSgCioAioAgoAoqAIqAIKAKKgCKgCCgCioAioAgoAoqAbQTUsWgbMi2gCCgCioAioAgoAoqAIqAIKAKKgCKgCCgCioAioAgoAupYVBtQBBQBRUARUAQUAUVAEVAEFAFFQBFQBBQBRUARUAQUAdsIqGPRNmRaQBFQBBQBRUARUAQUAUVAEVAEFAFFQBFQBBQBRUARUATUsag2oAgoAoqAIqAIKAKKgCKgCCgCioAioAgoAoqAIqAIKAK2EVDHom3ItIAioAgoAoqAIqAIKAKKgCKgCCgCioAioAgoAoqAIqAIqGNRbUARUAQUAUVAEVAEFAFFQBFQBBQBRUARUAQUAUVAEVAEbCOgjkXbkGkBRUARUAQUAUVAEVAEFAFFQBFQBBQBRUARUAQUAUVAEVDHotqAIqAIKAKKgCKgCCgCioAioAgoAoqAIqAIKAKKgCKgCNhGQB2LtiHTAoqAIqAIKAKKgCKgCCgCioAioAgoAoqAIqAIKAKKgCKgjkW1AUVAEVAEFAFFQBFQBBQBRUARUAQUAUVAEVAEFAFFQBGwjUCw7RJaQBFQBCwE1q9fjw0bNriFRsGCBVGjRg3bdezduxdLliyxXS5qgQwZMqBp06a26zh37hwmTZpku1zUAgEBAXj99ddt1xEREYEff/zRdrnoBdhv9t+uTJgwARcuXLBb7I7f16pVCwUKFLBdx/z583Hw4EHb5aIWqFChAkqXLm27jnXr1mHjxo22y0UtUKhQITzxxBO26/CErWfOnBmNGze2rfvvv//G5MmTbZeLWiAwMBCvvfaa7To8ZesvvPAC0qZNa1v/mDFjcPnyZdvlohZ48sknkT9/ftt1zJs3D4cOHbJdLmoBp7b+xx9/YMuWLW7pLlq0KKpVq2a7Dk/YepYsWdCoUSPbuk+fPo2pU6faLhe1QEhICFq1amW7Dk/ZerNmzZAmTRrb+j1h63Xq1EGePHls6549ezaOHj1qu1zUApK2XqxYMVStWtV2+3ft2oUVK1bYLhe1wN1o69evX8fPP//sVr9Z+OWXX0bKlClt1zN69GhcvXrVdrmoBZ555hnkzJnTdh1z587FkSNHbJeLWuCRRx5BqVKlbNexevVqbN++3Xa5qAVKlCiBypUr267jzz//dNvWs2XLhvr169vWffLkScyYMcN2uagFkidPjubNm9uu499//8WoUaNsl4te4MUXX0SqVKmif5zgv6mbbXBHnNr6zJkzceLECXdUo0qVKihevLjtOlatWoUdO3bYLhe1gFNbp17qd0dy5cqFp59+2nYVxJu4uyNObZ1zKudWd6VFixYIDQ11txrR8gGGKaItUOWKwF2KwKefforPPvsMGTNmRLp06Wz34sCBA3j++ecxbtw422XHjh0LvmwpTpxU1M0X1s6dO23r5uLMtbBzqptKnUw9N27cADev7vSbZfny44vTrhAzLhLd6feUKVPQsGFDu6rRoEEDTJ8+3ZFuOg2uXLmCL7/8Eh988IFt3Z988gl69OiBTJkyOXJS0d7o4KLd2hVu+l966SWrmFPcH3roIUeHANu2bcMDDzzglm4WdmLrYWFhtxYYTvtN3fv373eEW758+XD48GFHZfm8KdOmTXO0GeIGipshJ/122fpXX32FTp06We2wI++//z769OljbZydLPDY91deeQXDhw+3o9b6rSdsvWzZstahl11Zu3Yt6KCiOMGd/ebmz4kzms4WLujd0c2ybIMTR7YnbJ0HPzw0sisss3DhQkeYJwVbb926NX744Qe73bbKuA4XndpbuXLlQLu1K5K2zoNJ16Gm036zv3QY0dlkV7Jnz45Tp045sjfXvM5D7erVq9tVjaeeego8NHLS7+PHj4PzRP/+/fHOO+/Y1s0yAwcOBMc6D/vsCvvetm1bDB482G5RjBgxAq+++qpVzknfqbtSpUpYuXKlbd0sQweVO7q5x+Ehq105c+YMsmbN6pZuFj527JgjRzbHB+dIp5hT99KlSx0dEvJgcfny5Y50k0DANeOwYcMcETDefvttfPvtt27Z+ptvvolBgwbZfeRWmbfeegvBwcGODtpo6yQgLFq0yLbu3377DY899phb9sY9ztmzZ23r5pzKuZXijr2RuOOE9GK7wV4soIxFL4KrVfsHArt37wYZUXaFE5i7wpOhRx991HY1XBTyheuODBkyBG3atLFdBcu4yzp899138c0339jWzUVhu3btbJdzFSDTktg5YYsuXrzYETs1amN5kkdHkV0hSyBv3rx2i8X4/Z49eyxHul1xUia6DjIOyFawKxUrVkR4eLjdYnf8fujQoXjjjTds18Ey3FS4I+3bt0e/fv1sV9G3b1907NjRdjlXAdo6T41nzZpluw4uCmvWrGm7XNQCuXPndmTrdIZy8+iu7Nu3DylSpLBdjZMy0ZX8/vvvoN3aFZYh+88d+eWXXxyxU8igcpcZ895774F2a1c8YetkpjhhO7BMvXr17Db5jt8XLlwYnFvtirStu5zBdtsd9fdkB7sOb+zUU758eTs/j/W3krbepUsX9OzZM9Z2xfchy3Tt2jW+n8T7HZ1qPNjkAadd+fXXX/Hss8/aLXbH7xmlw7nVrrAMx4m7wvWTE8eikzLR28oIJx5y2pUyZcrYLRLj9+PHj8dzzz0X4/OEPiD5gWtXd4QEDB5O25UvvvgCHCdOhc+M7H3arV1hpEqTJk3sFrvj9yVLlgQPp+1K1ANtu2Wj/t6prXPt565s3brVEduSDHh3xamtM5Jt2bJlbqnv3r27o/mZc7qT94FbjfVSYXUsegnYe63ayItm6O30WViyah12HD6FcxdNennytMicqxBKlXsMdZvUQ7kc/zEO7uh7xGHM6jsEy89wYx+AlGVfxmfP2w9j8Bye4dgyqifGbL0CUnWDctTAO+8+iRz2DzA91yStSRFQBBQBRUARUAQUAUVAEVAEFAFFQBFQBBSBuxABdSzehQ/Np00OO4p5X3ZAx/7TsfP8dcsZd6fMx7TRg9Dzg1yo2vYrfNejGe5PFeW0I/Iklg8fjD57/jGLBSJz84rCjsUb+HPGCPSZfMTqS7IHQ/H827VMx6L7JzTRkdF/KwKKgCKgCCgCioAioAgoAoqAIqAIKAKKgCJwLyOgjsV7+em627crm9HPDJn4YNFBhN/0KAYEpUL2QkWQN30g/jl5APsPn8N18zvj2jEs698StfZexILJbXF/qDrq3IVfyysCioAioAgoAoqAIqAIKAKKgCKgCCgCioAikJQR0ADQpPx0RNt2HrPfbY7OLqdiQHIUqNcds3afwPE/N+KPP9Zj58Hj2P/bD3j1wcwmF9EUIxzHZ3fG29/vhXtZnkQ7rsoVAUVAEVAEFAFFQBFQBBQBRUARUAQUAUVAEVAEEoGAMhYTAZI//iRiyzB8MmonblhMxUCkq9oDsyZ1QImQqEzEUOSs1BrDpgfhRJm2WBKYA8VLPYC8/x7ChcgiyGTDbR1xbjeWTp+CWSu24tCpM7gYFoJ02fLi/nLVUPe5hqiQI+7r1yMv7sGC8RMwd/UW7DtxDlfCg5E6Uy4UKV0JdZ5/DjUKpknkI4zE6WXfo9+M3RYLkzkhk+Wsjjfb10V+HSmJxFB/pggoAoqAIqAIKAKKgCKgCCgCioAioAgoAv6CgLpL/OVJ2+pnOLZPnY1t12/yDoOyo+F7raM5FW9XGJTvRYzZ3RAps6RHiC095o8jz2H1gPZ4vfs47LxwI0YOx2ljh+GLjwqgdscBGPxJdAffdeyd1AUt2n2HP87EzP84e/LP6N+jO2p/NgZj3q+CDPE6OsNxcHJ71G01BNsvs98BSH1/SwydUkOdinafqf5eEVAEFAFFQBFQBBQBRUARUAQUAUVAEVAE/AIBdSz6xWO228lLWL92H3iPMyUgoCQqPpo2nkpCkD6LbZeiWd8V/NGjCep0X4KLkZYmJMtaEtWrPYy8yS9i96qlWLX/PCL/PYC5PZug5qERWDSiGfIF8beRODOzI55+aTD2hrGweeN0/ipoXL8SCqS6jF0Lp2La+qO4cf0I5nZpitY5/8Ckl/P9F7IdoydXsf37N1Dvf+NwgHUFBCP74x9j/LiPUTWLpUxFEVAEFAFFQBFQBBQBRUARUAQUAUVAEVAEFAFFIBoC6lhUk4iJQMQZnP477BZ7MCBlBmSMetNzzBKOPonYOghvf7n8plMxEFlr9sDUcR/g0Uw3nXnXD2H6e8+j2ZA/cNW4jn1jOuCDp6tjbNMcCIzYjP4fjca+m07F0NIdMX/ZV6ic7mao9idvoGfV6vh8dzLkLXAfru/YiLOR+ZA1GmvRMC5hXa8m6PrZPJyKMOOfA1KieIvBmDKkOYol1wtoHD1YLaQIKAKKgCKgCCgCioAioAgoAoqAIqAIKAJ+gYA6Fv3iMdvtZAhCQm574Iywa7jm8dtYwrBx/FRsullxQHAZvPVNx9tORTY5NB/qf/UJnpvWGD8d/xeIOIU5Y+fhQtNWSPfnIizY/c9N52cylG/eBo+6nIpW2fvRefkRfBgaivg4hxG7hqBdtxs3c0kCwQVaYtAgdSratRj9vSKgCCgCioAioAgoAoqAIqAIKAKKgCKgCPgfAvFmnfM/OLTHFgJBWZAnZ2ozuPg/McIPYe++sHjACcNfvy/B5mOXzQDlxEoEDu4/eev26IBMJVG6YLKYhVOWwoNFUrtagmuH9uNouIGIo8dwItK6YcVkGYYga46bN1NHqSE4Aacif2rcuO1U5L/DD/yE93qswOUo9cT1v926dUNERAQyZcoU10/0c0XgnkDAMG6OtXuiN4nvhL/2O/EI6S8VAfcR0HHmPoZagyKgCCRNBHR+S5rPRVt1byHgr+Ps0qVLCAoKwkcffZQkHqg6FpPEY0hqjUiBqjXL4Vb0c8ROzPx1G+JyLUaenYEP69XBQ3mzIHuxR9Hww19xOEEPYyBSp05+23l55RL+uRELDpH/4OIlV7ZH0xGYKg1SBwQgIEUK3I5UvoFL/5iMRkcSgOBsVdH21SpIx9Fg/Istfd/ABwvOJlhbgNmOwMBAMwelhkwnCJb+4K5GwPXC9jdb99d+39XGqo2/6xDQcXbXPTJtsCKgCCQSAZ3fEgmU/kwRcAMBfx5nkZGRSCqOVXUsumHE927RQGRr+gZeuu8ma9EIw5Zv3kDneUdvMQxv9T1sL0a27Yppf5u3Mkdew5k967HHyI7sCVpWMpSpUBIpb/rkjKsrMHHSwRiMx383TcX07f/cVBeMQpUqIbcZ2xxU4gGUTHkzkt+4gU2LF+PvOx7IdSx/txwy5iyEBx+tgYatv8P6sJisq6CsT6H/kjkYPHQ4ej6Rx7rcxbixBz+8/h6mnLzt0Lx3n7X2TBFIPAL+5lh0IeOv/U68ZegvFQHnCPjzhsA5alpSEVAE7gYEdH67G56StvFuR0DHWdJ4ggm6f5JGM7UVPkcgbXV0H9QOD6T+L0OhcXkj+td/GBVfeB/9RozHlMljMax3RzR66FG89uufN3MUBiC0YCt83akiEr4jOhDZLedlmv9Yi5FnMeudp9D088lYt/8Uzh3/E8tHfIBnGn6OTdf/S/AYlK0uPnqrglV3YOY6aN2kyM38iZE4O6UDGnf8Bav3ncKFcwexekR7vP3jJpw/8Re2/r4Mv1/JhHzBMZmFgTnKoFKRFGZyxcJoO6wHns7K2g3cODQWb7UdiYMezy3p8yepChUBtxHw1xe2v/bbbYPRChQBBwioA98BaFpEETAR+OWXX9CmTZsYrJVTp06hdu3a2LVrl+IkhICuI4SAV7V+iYCuI2Qfu17eIot/EtYeiCxPfo45k1OjZeteWHT0KoywU1g/vo/5F1uzA5Cq6AsYOKU/6mSM77qUKGXT1cBXYz7D/kZdsNC8nCXy8m78+nET8y96/QFIlr06uk3+AS/ncZlsetTpPQSddzRFrzUnERl+Esv7tkSlvjHLJi/8Er7t3QRZEnCjBxV4GYP6LsaGlqNx3MydeGLG+3h9SAXMeet+6ECJjqv+258QSCoUe19j7q/99jXOqs+/EdBx5t/PX3vvHgIrVqzAq6++ivr16yMsLAyhZn5xyg0zh3jTpk2xadMm/POPK/LHPV1a2j4C6li0j5mWUATsIqDjzC5i3vl9Aq4W7yjVWu8WBIKQ88mPMXfjSoz9tCWqFsmK0MA7WX8B5sUpmYs/jpY9JmHtmtF4pYTJ/rMhaSu0x5wNS/F9x+fwaMGMSBa1ejN3YUjmEqjdbgAWbZqHLpXuvCQlMGMV9Fy0HBO7PI+yOVLizqaZzsj0hVH9tf5Y8NuPaHLLIRlf4wKRp9nXGPB8MVjkxshzWNzldfTefDW+QvqdIuA3CPjrSaC/9ttvDFs7KoqAbghE4VfldzECdB62aNECRYsWxciRI285FdmlQYMGgU7HESNGoEKFCndxL+/upuvByd39/LT1dwcCOs6SxnNSIlbSeA5JuhVBWcrg+W4/mX+RuHrqL+w9dBrnLoUhOFUG5CxYFAWypLByE8Yqycrj690X8XWsX/73YVD2Cmj99XjzLwznDu7DX0dP4sL1ZEibvQBKFs+NVHFWbpZPVQSNe4wz/67j1J/bsOf437gSEYp02fOjePH8SB/DwlPguUmH8Vxc7QnMhmdH7zT/4vqBfq4I+B8C/rrx99d++5+Fa48lEdBxJom+6r6bEZg/fz4OHjyIMWPGIFWqVHd0ZejQoShTpgwaN258N3fxnmm7HlDeM49SO5IEEdB1RNJ4KDHcLkmjWdqKpIlAIFJmK4wHzT/vSAgy5i9h/dmXUGQr9rD5Z7+kllAEFIH4EfDXk0B/7Xf81qDfKgKKgCKgCCQFBOhUpDz44IMxmsPvXnjhBahDKwY0Pv1AHR4+hVuV+TkCOt/JGkB8XDDZlql2RUARUAQUgSSFgL++sP2130nK+LQx9ywCuvG+Zx+tdszLCKRLl87ScP78+Ria+F1sn8f4oX7gVQR0fvMqvFq5ImAhoOMsaRiCOhaTxnPQVigCioAikGQR8NcXtr/2O8kaojbsnkRAx9k9+Vi1Uz5AoHz58paWVatWxdDG71avXo3IyMgY3+kHvkNA5zffYa2a/BcBHWdJ49lrKHTSeA7airsQAZ4EHzt2DCVLlnTUei72xo8fjw0bNtguv3fvXttlohfYuXMnihQpEv3jBP/tCr1h0nCnEmHeuu1Ed3h4uKXy2rVrTlVb5Zh3KF++fLbrIO4ZMmSwXS5qgUaNGqFwYfvpBKg7S5Ysbunu3Lkzhg8fbrsOl705Ze7R1seNG4f169c71m27YJQCHGNO7M3Vb9qrU6HNOtHtGl/Xr193qtoq98ADDyBHjhy26zh06JAjO42qqEGDBo7qIO7ZsmWz3eaoBT744AP8+OOPtutwd27l8+ZlCb/99pvPdVMhx5gTe3P12x0nBG+edaL78uXLFlbuvFNYnraePXt227jT1p20O6qiJ5980rGtO3kXRdUtaescY8uXL7eNubvjjArXrVvn6LlJ2vqlS5csrNy1dV7GkilTJoulkzJlSixcuBC0g6hSs2ZNzJo1C8WKFUNISAj4Hjtx4gTcfac8/vjjjm09b968tm0laoF3333XupTGrrhrb8R5yJAhWLRokV3V8IRuOo6dzFHu6mZnz54960j3hQsXLKzctXXusTJnzmwb95MnT1q3pLsj1atXd2zrTp5X1La+8cYb6NOnj+3me+KZDx482JpT7Iq7ujnOFi9e7Mje3NXNvp45c8aR7nPnzllQufaodnFz/b5EiRJIkyaNreJcs6VNmxZ58uSxVc5bP1bHoreQ1XrveQToWNyxY4djx+LXX3/teIF39epVyyFZoEABRzi/8847ePbZZx2VZSFuJMqVK+eo/PPPP49SpUo5KstC3Ew88cQTjspXqVIF3333naOyLERnbMGCBR2V5yLDHd106Dp17KVPn94t3adOncLx48eRLFkyR33n4sjpZoZOhy1btji29Y4dO4LtdyJ8YdNB9NBDDzkpbuW3orPDqaxduxY1atRwVJybP3fsbdu2bY7nNt5Q6o7uv/76C8mTJ3fUbzr+3dHNzQjtxamtf/vtt9YG3onQMcd3Sv78+Z0Uhzu2zgUxN69Obb158+aoWLGio3az0O+//45q1ao5Ku+urW/dutU6bHIi3PS6Y2/79u2zvZFwtdNdW+ec/vfffzu2dfbbqa3T6bB7927kzJnTCex4//33cfr0aUdl6WygvTldw7hr6xxndFg4Edp69Llp6tSp1rqI76vAwNuBaJUqVbJUcL1VuXJlBAUFgbbudJyWLl3aLVvfs2eP44NZOpbcGWdHjx7FxYsXHa+h3NFNpwPfaU4OPfj8PvzwQ8u550R4CL9mzRrH83qrVq3AdbNT4frJ6bzOwxpXqL8T/Rs3boRrDNgt766t79q1y9GBLtvJOdEde+NBGfeITvcL7uimnVK/04PhTz75BC6HtN1n5toXO11zv/LKK6hatapdtbd+z32x03n9mWeecTw/sAEcJy+99JLjtnuyYIDpHTY8WaHWpQj4CwI8+eVCyZ2JyClWdLYsW7YMnIwkZPr06eBpOE/KfS1LlizB/fff7/jF5U57uXjnZq5QoULuVOOo7J9//mkxNbng8bVwUX7gwAG3FphO28zNADdiderUcVqF43LcqM2cORNc4Dp1dDlWbhYkO4LP28lpvTt6WZabkaxZszp26Lqjn841OiycLhDd0X348GEcOXLE8YbEHd08rKIzmfbmayGrZM6cOdY4i+648EVbeLstHT0ZM2b0hbo7dDBcNHfu3HCXTeWk4XT00OHDd5qvhXM6nehOHU3utJcb0E2bNlnrCF8LD7nmzZuHunXr3uGI81U7OM7o8HDHaRK1rT179kTXrl2tCJqojtp///3XWqO1b98e/fr1s4rQ0cMDadq7r2Xz5s0IDQ1F8eLFfa3acuzRwefUmexOgznG+E6jU9jXQmcLmWf169f3tWpLHxmz3CPZZWF5orF09PBA30nEhrv6Sfxgn91lLTppB/el3CM6PSR0otNVRnJfTDY4n7k/7ovdeWaeLquMRU8jqvX5DQL0ybtLe3YKlqRutpn9ljqToMPBH3XTyeWUHeLUzlzliLeUbpe9udsHp+WlxnhSGGfuhMU6xZvlqNcfdSeFed2d5+ZOWel5XdLenDJL3MGbZSXndUnd7LvkvO5pW6djmhJbVAAZjFE/97RuOzYoPa9LrWH82dbvpXFm19al9inSewXJZ+6vuu3Yprd/q45FbyOs9d+zCHCxJnXjHhdIzAUhJdQttRHjqbO7eVOc4sZQxRQpUjgt7la5K1eugH8SQqaklK1zoeA0DMhdrLgwZLidlK0zTFHK1hmOwrwtEsLTdqlNoKStkzXIZy4hLluX2gxxjEttCmjr7uavdfrMaOsux5DTOpyWI6ONjHAJkbR1zuec16VsnesnT9r6ypUrLfuNnkKBrHP2lfkYXcL3uLs5qp3aC9dPElEubC+Ze1K2zne4KwebU+ycluN71GnKAKc6o5ajrUu9y4l5bM52T/QroTpo61LzOm2d+iXEn/fFHGdSti7xrOPSGfSpKXF9qZ8rAopA3AhwURocHOxWXoS4a4//G+rmn0Q4C1vGhRJ1s/++Fm5ImL9DwsHHzQBDoSXCOvjCSpUqlUioIG2Nyd+d5k1xx0aom4yeXLlyuVON47J85rR1iUUidTMvk0QYNnXzcoDUqVM7xs5pQdo69bp7UZIT/dyIM1yPYeC+Fto6GUZO8865017qJu609ah52typ005ZzusMWSP2vhbaOtMNcH71tVA3HfjMg+troa1zbpFwqlK3lK0TZ9o6k91LsEVp6xzjfKe6KxMnTkSvXr3w5ptvolatWreqY1igK4923759b83jtDc+bwkHHzFn+LenQsDtYEd7Y58l0opQN9cPEiG5xIj6pS52oK1z7SaRXkPa1jmnSxzOuvYKXL/5WmhrfNZO84m6017pfTFtneNMYl/sDm6eLns7y6+na9b6FIF7HAHmTWECcAkhc83JjV2eaivzYUmdejPfnhSDjTmCXLdiewrLxNbDJP/M0yMhzJtC9oOEcIPEW+IkhAsV5uKSYg2uWLFCjOnAxOfMNyghvNSByc8lhHnKmEtVQsioWbp0qYRqi0FFW+d/JYQ5g50mbXe3vbxJm3lkJYR2TnuXEOYSZS4wCSFzjvObhHA+p63yWZdbAAAgAElEQVRzEywhfJ+5bod2Rz9zg7Zs2dLKU0nnokvIGuIlecy1Nm3atDsOBPke5/tcQrZv3+72DclO2811G9dvEsL1KtetEkJWMtfrUsJ9ilSkDceHFFuTuXOZw1ZC9u/fb13SJCHE25/3xRxv/i56eYu/W4D23zECpJtzIyTBLuHJCG90zJcvn+P2u1OQizQpxiI3/kzwL8FY5EuTjBqJE3duxHgSKXHizoUhQyskTty5CeRNvRIXK9CxyBvueAopwViks4PPW4KxyIMTjjGJE3eGMBF7iRN3hqbyT+LEnQ4BzjES7BI6WehI5jiTYCzSyUWWqARjkfML2YoSTHSGvpM1J3FpDZ1bXMdIMNF5MEmHi0TUBd+jtDeunyQYixxnnF/cYSzSbooWLYqCBQtajqOojFfemD1gwACMGzcOjRs3vmOpR6ci53QJdi6fN9+jEkx0HtpwfpVgotPZwHeaRNQFD4q4jogeJu/O+t9OWa6fuEeSYCxyj8RxIcHOZQg4x7fEXoH7Uu4RJZjoui+WieSzMya9/VtlLHobYa3/nkWAp8EjRowQ6R8Xlb179xbRTaVffPGFWL6a77//3rrhT0KmTp0qxtwju4O3SUoImZIjR46UUG05WhjKJSHcgH7++ediJ+6DBw+2HJsSMmnSJJC1KCG8+X3BggUSqrFlyxaMHTtWRDcPTQYOHCiim5tu2rpUTir2m/2XED5vKYYH7Zz2LiEc3wyllRDOa5zfJISbX9o653cJ4Q3NPLhxR3jowtyKixYtihFGz/UZb5eP7lSkPr7HpSIfuH6RYqkSjylTprgDueOyXK9y3SohdKjSHqSE+xSpvME//fSTGBt8xowZIGNSQqiX+iWE7HvdF0sgn3R0KmMx6TwLbcldhgAXpfxz59TZaZfJLuGJlAS7g23m5pP9ljjtJ4ONOSwkWDXEnH2WyKHBk2eyuCROfv3V1ok37U3K1jnO+LylbJ16JZiarnBciXGmti4zr0vaOsc47dwfbd2VE8vpWsRpOck1jD/P65K27q/rJ9o632kSewWXrUvuFaTWMGrryZxOz47L+ev6SXpf7PiBeaGgMha9AKpW6R8IkNnSs2dPkc7ytLtdu3Yiuqn09ddfFzuF7NatG5irR0KGDRsmltuSJ5BSrEHmnPvqq68kILfCeN59910R3Vwkvfbaa2I37HXp0kXsxP27774D895JyOTJk60wPgnhaf8333wjodrKydSpUycR3QxNpa1L5c5lv5kbSkL4vKVyoNHOae8Ssnz5cnz77bcSqq38f5zfJIQh4LR1KcZi+/btxXJ68j0ulUN21KhRmD59usQjt5idQ4cOFdHN9SrXrRLCEGyu16WE+xR32blO205WslRezeHDh1t5XCVk7ty5YqxB4u3P+2Kp298l7CwuncpYjAsZ/VwRUAQUAUVAEVAEFAFFQBFQBBQBRUARUAQUAUVAEVAE4kRAGYtxQqNfKALxI8DbFD/55JP4f+Slb5mAu3Xr1l6qXauNCwGyO3gaKCG//voreAoqIbzlrUePHhKqrQsl2rRpI6Kb4Usvv/yyWD5RkU6rUjEEePP722+/LaKfFwzQ1qVuNWS/2X8J+fLLL8Vyv5HFNX78eIlug7cTS+Wv5W3YHTp0EOk3LyKjrUvdgN62bVvrvSYhfI9L3drK9QvXMRJC9pgUO5f5Wz/88EOJblsXJDVv3lxEN5VynyJ1Czn3Z1K33pMdO3PmTBHcGd0kxc71530xxxnHm7+LMhb93QK0/4qAIqAIKAKKgCKgCCgCioAioAgoAoqAIqAIKAKKgAMElLHoADQtoggQAd6oqIxF/7IF5p2TYizyRkMpxuIff/whylgkw0NCyGjhKSRvVlRRBLyNAG8Pfeedd7ytJtb6yVSkrUsxFtlvKcYi885J3VYryVjkbdS8oVhC/vzzT3Ts2FFCtZUzl7YuxVh88803RRmLfJ9LCG+LVcaib5HnjcwtWrTwrdIo2iQZi8xrKclYnDVrlgjuZEoyH7yE+DNjkeNM6gZ0iWcdl05lLMaFjH6uCPgTAjc245duY7H9hhF7r82bkAODkiE0RRpkzJ4Pxco/huqlcyE09l/b+jRi+0R0H7kOVwMyo0rb91Avf+w3mUXunobPR6zCP5FAUI7H8fa7TyFnrEcj4dg1/kv8tOEiAvM8iffeqoGssf7OVjP1x4qADAIR+zDly+H4/UI4AlI8gBe7vIQHQwNstCUc5/5cgZlT52LlrkNmIvWzuHANSJkhB+4rWQ7V6jZGvQp5kDx6jZEnML//t1h0IgJpK7TER88WR1D037j+HXEKy4YOxpyDV2EEhCJPrTfQrkYeBIXvwvgeP2PDVXPQ3pSAFKXR/JNmKBl8uw8R53ZhwbTZWL3jMM6FBSNdtvvw0ONP46lHCyBVXDrj/TwSF/etxNz5q7Bt/wmc/9dA8vTZUPCBynjqmSq4L/XtnkQcmoe+gxfjzO0mIqhwA3R9vZJD3fE2TL9UBBQBRUARUAQUAUVAEVAE7j0EzKvoVRQBRcABAubJjNG1a1cHJd0vcvz4cePVV191vyJXDVcnGA1Cg+lVTNxfQAoj7+OdjBlHw9xuQ8TxEUbtVKbugOTGY/32GhGx1njdWNO5ghF8s30BIZWN3vvi0B22wfjw/nRmP4KNQu2XG9djrc/Zh2aOHmPOnDnOCrtZyjzpN3788Uc3a3FW3MzJZHTv3t1ZYTdLHTp0yDBzLLpZi7PiN27cMMxcXMaFCxecVeCBUhdmvmnkDgr4b1wGpjee/uFgHGMkurII48zqoUbrSvkM0w9plQ8ISmGkz5rTyJktg5Ei+Gad5rjLU729MeHPS3dWEL7J+LhUerNckJHztTnGtejV3/x3xLm1xjcNilk6ApJlN6p1mWUcDb/55bVZxssZQ82xHWAkS57KSJUqlZEmV0tj2r+Rrh8Yu0a1M8pmDDFMN6MREBhqpEwebP0/54O8NbsYC07eiENz7B+zPQOblTXS38QsICi5kSZNqBFkYRBgBGcsY7Qcus7452bxsDXdjTLpUlttS5Es0NIdXONb41Ts1Xv1U5OxZ5i5Br2qI67Kr169atk6/ysh7PfevXslVBtmjkXDvCFZRPfIkSMN82ZoEd1mjkXDzLEootvMsWiYORZFdJsMdMvWOb9LiMnAN/hekxC+x/k+lxAz4sIwb0CXUG2YkSbGwIEDRXRv2bLF6Ny5s4huM+ebYbJzRXRTKfcp3K9IiBlRZqxfv15CtTFkyBDDZA6K6DZzLBpmjkUR3cT7ntkX20SQ44zjzd8F/g6A9l8RcIqAGTJmnDlzxmlxt8pxQWwmRHarjjsK33IshhiVv9hoHDfrZv1R/44d3Gts+W26MaxzY6NIqkBrk56qzEfG6ltOAofNiThuDKmVw9zQBxgpnxpinIzNsxi2xuhYJK2BoPuMUiXSGQEBoUaFXtsNl/8iqubwrb2Mh0wHAYKKGh1We3aTfO7cOePSpWgOGIfdtlvMDN8yzp8/b7eYR35PZ4OUrYeFhXnW1m0gEhkZaS2KzZA5G6U8+NPwv4z+1bKbDrd0Ro0mTxoZA00HXZF3jBVXXI65uHRdM3aNaG7cF2qOg4BkRvYKLxvdfllmHLh0eyMdfn6PMX9QB6N67hTW2AvOUdv4dtuV2xUmwrF4Zfsoo+X9Ga3yQZkfMTpM3XenI9/lWAzMbLw0Nfq4iTBOTmlrFKAzL0VR4/n+C4y950z3Zfgl4+Cqn4zXy2Q1Ak2HZJqK3Y2N1xLq781m39hjfFszjxFotidF4UbGl7O2Gqf+5YQSYVw5vt4Y+2FdI2+IqS8om1H3xz3R5o/rxh+dyluHF1KOxevXrxsnT56M66F69fOIiAjL1vlfCWG/2X8J4WbgypUotu/DRvDQgo4uCbl8+bJhhm5JqDauXbtmnDol4b43pxhzPqetc36XEK6r+F6TEL7HpQ4PuH7hOkZCuG7j+k1CuFc4ffq0hOpbti6i3FRKW5dy4NPWib2E0Nal9grUK7VXuKf2xTYNR3SvYLOt3vy5BgjeeyRU7ZGPEGA+rLFjx/pI251qzJcGmO/PGxKcOjOyZc+O7NH+cuYrhAcq18PrvSZi6eAXzPBiA1e2/IBBc/9xrxmB2fBMg/JIYRKorq1ajMWMdY4mYX9MxbT9l5CsRFN80/EppAsIw4bJk7ErgkSsqBKBfbMXY1t4JIIL18WzZWMEeEav2ta/TbailVtTQniTI2/xlJDdu3dj0qRJEqqtW9akbrgzN57o378/zI2YSN+vrhiCb1eeQkDaJ9C877t4NncK3Nj3Mz4fuR8xR8ntJl5Z+QWebzcG+8OS48F2k7Bh1Uh82rwq8qc23WY3JSh9YdR6sw/mLRuOJnmTI/zEfHR+7Rtz7EQfU7F1PQwHpnZC9cda4ZedF5Du4TYYs2oR+jQoiJDYfh7bZzc2oN9HY3EwPBQPfTAav7xTE4UymMkVglIj36MtMWzxKLyaPwUure2Lj0ceibe/ruqvLxuM3kuOwkj+CLrNGIsPni6FrMm5zAlEyhxl8cIXEzDh3YcRZIZuz+s3HBsT1dfYGu+dz0znGkxWsncqT6BW09Fh2Tr/KyHsN/svIcxfu3PnTgnVWLZsGVauXCmie9u2bZg+fbqI7mPHjuGnn34S0c08orR104kuop/5z0ynh4huvsf5PpcQrl+kbqTetGkTZs+eLdFtmOxUMJeqhDCf6IABAyRUWzq5T+F+RUJMJji4T5MQ3kK+bt06CdWW3vnz54vovlf3xYkBk+OM483fRR2L/m4B2n/HCOTKlQs1a9Z0XN6dgmnSpEHjxo3dqcKNsoHI9tgjKBpkTh+RF3H08IXbm/6wDRje6T2812k41oeF48zaCfiyfSs0qlMTj9eog8avdEDvCWtxOjyq+kDkfOZpPJoiGJGXV2LBisvR2nYdqybOwYHwYBSr3xhVGjRCjXTJELFlKiZsi7YJjjiKufO2ItzkHRWu3xAPh9jJRZcwJI88Yva7aNGEf+iFX5QsWRIPP/ywF2pOuMq8efOievXqCf/QC79Ily4dGjRo4IWaE64yMDAQTZs2RfLknnVQJ6zZ/EXkUYzpM8G0+0Bkb9gcDfPUwFuvlkOI8Q8W9/0Gy6/E4QA0czIO6zIMW/+NRGjp9zCibz3kjDM5IhBS8Dn06d4MD5WtilolAnHy7wQ226ZTbvGnDVHpub5YeyElSrUajpXLBuG5IikT1S3Xj25snoPZ+8xFWEhFNH+ldEyHZIZqeO35BxAcafZ39CQciuJJvfjbMLzfvj3adzQdoydck0kkzl1KjbJPVEOVxi+ifuHYXJwp8GDZEuYhBhB+5AAOyPjQ4sQpU6ZMqFu3bpzfe/OLZMmSWbbO/0oI+50xY0YJ1aha1XS6588vortMmTJ44IEHRHQXLFgQVapUEdGdJUsW1KlTR0R3aGioZeuc3yWkfv36SJ8+vYRq6z3O97mEcP3CdYyEFClSBFy/SQgP6Z988kkJ1TBTfKBJkyYiuqmU+xTuVySkRo0a4D5NQipUqIDixYtLqEaxYsVQvnx5Ed3+uy+GNc443vxdZN6q/o669v+eQIC3P/EUVEJ44r5q1SoJ1abOMOydNg9bI8ydvsk2LFI8k8kHuilhezBj4ED0HzASP35YEyUqvYCuP8zExr+O4sj23zD953744IVKKFnjC6y5etsxEpirtnmBRCYERJ7BsvlrcT1qz/5dhYkz9iEy+H40eLYUQjLUROMauRAQvhNTJ25CVB9l5KlFmLvunBnLWBT1G5fFbX6WZ6Ay80KBTAsJ4am3mYNMQrXFrti6dauIbjNEUYzlQMbib7/9JsLiClv3IwYsPAYjWUm88lZtpDat+f7X38DTGZIh/K9R+PznfYjNBRi5dwYm/n7WTFgYgoebvYwHE3SuByJPix+xYf1STBn+IWpmi3vURJ5fh/7PVsPT3efgZEhRvDhkCVYOb4n7U9l14Efi+Mo12GsyjoPyP4Ty2WLzfIagZNn7kcZkRt/YvAZrzQtY/pNIXNo8CwNNxlH/AWPxx1kXCoHI0bAHps5fguWj30QxM6liTLmIJQvMi6LM4O3gQsVQLDbfY8xCPvuEp91r1qzxmb6oinhDLm1d6qbctWvXwgzhEun79u3bzUuNTono3r9/Pw4cOCCi2wxTxI4dO0R0m+HfMPNxieg2QzMtWzfDwUT081ZmvtckhO9xKbYk1y9cx0gI1228iVxCyNiTinQxUw5Yti4l3KdIRXxs3rxZ7JZesoKPHDkiAvvRo0exZ88eEd2S+2Lamdy+GNY443jzd1HHor9bgPbfMQI8mciTJ4/j8u4UJKuEbAPPi4Hr54/goLnR4Wbn9t9+7Nu5GavmjkHvN2qjRqc5uGiyAnM83QXvPxHzhMYIW4HvBx/DYz1nYvfpMzi4exf2Hj+KTT+9hqIhkTizohc+McMbb0lgLtRrUA7JAyJwfNlCbIkSonh12VTMPHYNwaXqocn99ASkR23TuZEh8AZ2T5mMdWG3HQ5/z1+I3/8NR7Ji9dC4jOe9Bjx5lmIakM1DloeEpE6dWuzkl+yS++67T6Lb5p0jAShUqBCCg+N2tnmlYZGnMbnPKOy6AaR98k20Lf3f/euB2RvhvRalTBfjP1jety+WXo65Mb62eQt2hpvOtsD8qFjJvJnZIw2MxJUdZmhyldp4b9qfpuM/FA+2H4Hhr5eFMy5CuBn2+jcizeYH5MyDfFFuiI7a3ODcuZAtMACRV0/gaBQHYtqyjdCpc2d0/qAVqmRNbA8jcHjSB3h35C5EBGVH/Q6v3nEztUdgcrMSMmMLFCjgZi3OipO9RVuXYnGRMSjCDDbhypkzJ9KmTesMODdLZc6cGfyTELLBc+TIIaEaKVKkQL58+UR0BwUFWbbO+V1COMb5XpMQMor4PpeQrFmzirGSuW7j+k1CUqZMKcYS5V6Bti4l3KeEhHh+LZ6Y/uTOnVuMQZYtWzZkyJAhMc30+G+ol2NNQiT3xbQz7+yLE4ckx5lUxEfiWuibX6lj0Tc4q5Z7EAHm55E6neBJu3dOAW/g926VUNB05NCZc/uvIArfXwaV67yED75fhjPpSqFhl7FYOv51FI6VGRSM+1oPxqgPnsZ9KW8u3gPTodTL3fF25Szm1Qr/YvuGbVGsIhC56z2FCqFBCN+zBPP3mB4VS65g8cRFOBkZhAcaNkaJmw6I9E/Wx5OZQhG+bwYmrHGdEF3EwlkmE8BIhmJmuHTpOJwV7piiebkAyHaQEOqVyn9GW2ffJYSsQTJ0pYTjzNfMlogdP6PfzEOIDCqAF9u/gJy33tSheOR/r6GqmSsx/OAY9PxxTzTWosnmO38R1y1/YyZkjYd9mHg8zblmQx/UeuwVM5/iZWTNlQXJTNfilq9bot3UxOU+jKnLwPlzl6yrqpEyFVLHsRIJTJUCKa3N/xVc+uc2PzPto63Qo1cv9Or5PzyRqD7+g81DWuKJ5j9gX4QZLt3hJwx+Ie9tpnXMBop8khRsXaTjplKOcfZfQji3STE1OadLzevss9S8zneK1LzuWj/5el532ba0rUvllqSdS62f/NXWOad6Z6+QuJmauqXmde7P/NHWpfcKUvtif7b1xI1G3/wqjuW8b5SrFkXgbkaAk7d5q6JIFziBeidJbBDyVGuFt956y/pr1/Z1tGxUFQXNnIbmza9IkbcGOk/YjJMnNmNKjyYo6nIaRkchMA3KVSuPGFnXAjMgR/ZUZk2msyKasygoTx3UK58JiNiOxQtuOiwuL8XkuQdNB0tpNGxc7Db7Kl11NK6VB4ERBzB7ylozONsUMz/jnBUnzTDo/0KmvcEx4yJJahPIDaDURkzS1rkw9I6tRzfa2P/NkD3fLowvYFafn7D5eiRSVHwN/6t6J7skqMALaN+0CIKMy1jZ/2ssuBSVtRiIFClTwPL1B1zHtVvhw7H3LXGfRuLCxmXYeCkrHu86E5t2zccX1fOY1e/GTy0a4qOlZxJ1sUp0XcHBN5cf5lwWW0i39Xsz3UIE3Y9GKJKncLZcibywCcOaV8djb43GX5G58NTnMzC/15PI4qy66N3w6L8lbZ1OFtq6lLOFYdBSzj2GpUrN69yESW3E+E6RCsmlrUuFvrts3aOD10ZlfJ9JOTy4ZpVy7nH9ImnrUg42zmtSe4WkYOu+XT/dHoiStk5bkzq08de9gvf2xYmb3CXXT4lroW9+lQSX1r7puGpRBNxFgAmJpRK+k27NZNSelyAUbPQZBnz7Lb41/74bPAw//boMu3ctQLcn8psXHixG79dbo9fSEwk4E1IjXdrYQxSDeOmLKTE2sEF5UL/eQ+YlDtexbsEinDXJKxfnTcPcM9cRXLYBGheNeqlAWtR69gnTORCOg/NmYaMZDn11+XwsORdmhkybt0FbIdOeF4YRSYU3MFxOKmyNYYJSYWsMjyxcuLDnH2Yia2QibF+GQkfuGYV+v+61nG3X13yC0iZrjxjc/suKxiN3W+Mv4vB49Pp+5x2OuRTFiiAfPYuRh8zbPxPL9CRzKS62mJmPMEslvP/rSsz7rBZypCmD98aPwP9KZYRxaSP6PPcCvtlkNzdeANKmT20eMJhy+RIuxKE68p9LJgPZ/E1AOjOELvb5JO7HGI7jS75G44eroe2oTbiRtw66z1mNmZ2rIlMSXfnwGUuFrTEEmrYuFQrNECaGx0oIU5owLFhCGDInFbbGd5lUOhc+a6mwNYZC09alQqH5PpMKheZ7XCrsn6HIUulcmEpG6iIPhodKpbjg2oW2LiXcp0iFQnN/JhX2z/QavIxNQqhXaq9AvKX2xbQz7+yLE/cUfb1XSFyrfP+rJLq89j0QqlERsIvA2bNnxZKP8+R3xYoVdpvs+PdBOaqh24wZ+OoJM6fkxXXo2/gZdJx7PB7noukysJ2+KAj5GjyFciGBuPb7Eiy9ch7zJy/F30YIyjVqFCPkOnXNengqa3IzHHohZu/6B7/PXo7TZt7HUmYYtCtk2nGH4yjIRPdSCZmZ71Iq+TgvNpBKPs5TZ6nk43R+L1261IdspitY2n84Vl2JRHCuR/Dcyy+iWbNmMf9eehn1HsyMQOMKVvfvgzkXbrMWk5WpgZp5Ta5w5HksmbYIF+Ow5agfR+wfhtpZMiJ3qWpoP/V4tBKByNqgC7rXLXDrMqTALDXQZ+pANM6TApFnluDDBq3w8z47VyybC8DiBc2cqmYzD/+FAzeisi5vq7964BBO8IKXnAVQ0M4FMdf249f2T6LMkx9g+oEAlGw+EMs3zMDHT+T2UM7JRIDq4CdkMq1evdpBSfeLkEFFW5diUrHfUsxkJvk/efKk+yA6qIEXWvz1118OSrpfhBdaSF3KdeHCBfASEwkhY4+2HuNw00eNWblypRiDje9xqYuKeKGF1EVFXLfxkiYJOXfuHHg5lYSQvUZblxLuU6SYohs2bAD3aRKyc+dOsYuKeEESL5qUEMl9Me3Ml/vi6PhynEmxVKO3RfTf5otVRRFQBBwgYIbxGIcPH3ZQ0v0i5uRl7Nu3z/2KXDVcnWA0CA02d/chRrWBh42IOGqOOD3faFcivXmnKozAdJWMnuv+ufOXl8Ya9UKDDATmNd5YeDmWWq4Z05sXMgJNl0i6ZhNjfh++1/jqkcxGQGAe443pE4zmWZObl9tWNr7+Kyzmb43LxsxWxYyggORG9W8mGO8WTmMEBJc1Ptt+PZbfeuYj8xZNw1wkeqYym7WYL2zD3BDYLOWZn5sbfsNcmHumMpu1mKFThrnxtlnKMz83QysMc+NvmBtRz1SYQC0Rh4YbtdOZ4zAglVG1/24jPJ7fX/+jm3F/MvPK5IAUxiNfbo3y2xvG9i9rGGaWAiMgeRnjo9UX4qnF/CritDG9VUnDTElqBKSuZnyz9+ZYC99kfFwqvTknBBk5X5tjXIullstrehuPpU9m/ibASFH8NWPa8Wg4XZtlvJwx1JwPMhsvTb10Rw3h+wYaVZKbc0VwaaPr5lhrN2a0LGrNFZnMueLO0rE05uZHEaeWG92q5jH7E2AEZ65ovDN+h3El7p9H+ea68Uen8ubRhJlNoca3hsRIMw+MDPOW4ES11tM/Mh2Klq3zvxLCfrP/EmLeommYYUwSqo3Tp08b5i29IrpN555hOhdFdJubQMN0MonoNkNTLVvn/C4hfJ/xvSYhfI/zfS4hXL9wHSMh5s3MxvHjxyVUG+bhqGE6e0R0mykeLFuXEu5TuF+REO7PuE+TEPOgSmyvYN7MbFC/hNxT+2KbAHKccbz5uyhjUdStq8rvZgTIMhg1apRIF8xFEgYMGOBz3YFZaqHfhB54PGMyRF5cjR4vdsTsM+Gea4d5WUX9+qWRzDiJJX0GYsHf5v2zFRugUb6oYdAudanw+LM1kD0wDBvH9MO8g1dMH0V9PFsstt96pokzZ84ET0ElhIye+fPnS6i2mJLjxo0T0W1uuvHdd9+J6GbOlj59+vjoxP06/vhuKBb/E47ArPXQrnmheNl1IeVa4+0auUy3279YO6A3Zpx3xRMH4/63e6FT+WwIuLYZvRs1wEdTdiK2bLCRF3ZiQocmaPXLdoSb4caPdumNtoUSP35Sle+ACSPbophJPfx313C0aNANK87Hzj6M/gCDCjRF69pmntTwbfix2y/YfS1qOTOv4+pv8MXkfTCC8qNpq1q4I9NkRBiumafTV6+Zl25EDaO+tBafN3oePZYfRWiJVzD6jyXo/1yJmLleozcmifzbPLjAsGHDRFrDk3bautSJO/ttbvxF+j5p0iQxNtOSJUvEWBZbtmzB1KlTRTAng+zHH38U0U1mC21dip07aNAg8L0mIXyPS0U+LFiwAKtWrZLothVdxPWbhBw8eBA///yzhGorj2nfvn1FdFMp9ylkbErI6NGjYTo2JVRjzpw5WLNmjYhusmOpX0KIt9S+mHYmsS924cxxJpU3WIi8guEAACAASURBVOJZx6nT3z2r2n9FwCkCZDHx1F1CyCrhKajHJJGMxf/0RRjHJr1uFCBbymQzZXtmsLHnxs2Tf3cZi6aCiF19jYohJpPJZA6RjVV1wL44GZTG1YXGa7lT3vxtiFH+i23xsrzcxYuMGqkTKZ76SrEc7ilbt2EEZLRwnPmC2RJxcpzRKFOIafPJjOKdfjMSc8Z/ZXEH477gALNMcqNcz01GVL5gxIlFRpfH8hrJeFNSQLCRvtBjxnNtOhhde35p9OzawWjTrJZRzGQbkn0ckCy7Ua3rfONkVLJaIhiL/0F53dg1rKmRM4jsySAja82+xqYrN+eDeBiLLBu+f7TROFdKI8Asl6lcc+PTwWON6VNGGt90etYoksqsLzCdUbbTPOPsHSS6COPIwGfMBAlmv4LLGN22upg/V41VH1Q0Qqz+hhg5yz5h1KpVK+6/p7sYcy5HZSzJMxbJpDIv07BhoZ77qS9tPbZWs9/sv4TwPS41r3NOl2L0sM9SLFF/tnW+UyRt3VcM/Ohj2V9tnXhLzese3ytEf6gJ/Ju2LsWC57wuZeucV6Xmdd0rJGCUXvpa0ta91CVH1SpjMU6Xq36hCMSPAHMT9erVK/4feelb5sh55513vFR7QtUGIuezfTGqU2WkDojAqdmd0Ky7mTMooWKJ/D6w8NOo+2A6K0VjQOgjaNwgH+KcqFJUwrN1CljMroCgh9CgsXlbbiL1OPkZGRaLFi1yUtTtMrNmzQJPYCWEp/1keEiIGaaIjh07Sqi2GC1t27b1Qe63cGwdMhizzMuHAlJUxhttKpiXGCUsKau2QbtHs5qByNew8buvMO3v2+zhwOxPoOeStVj+w0do8sh9CDj0GyYM7YseH3fGxz36YujYhdgXkR0PN3wP36/YiEXdayFbnAMtvraEoNjr32PiR1WR1pwPTi/qjIav/IK/whNmLgYVeBFjf5uMbo0eQtDW0fjszWao36g52n89BccyVESrgXOw0LzBOVGXrYRtwIRJ22He42S6HMNwfMNikCET59/8jTgWR27H+Hrrze/IbPnwww+9qSLOunlbK21d6tZW9lsq/9rAgQPx+++/x4mNN7+YOHEipkyZ4k0VcdbN3LWDBw+O83tvfsHckp988ok3VcRZN1kltHUpxuL7778P5reUEL7H+T6XkDFjxoixBhcvXowffvhBottgvr0ePXqI6GZ005tvvimim0q5T5HK6fnll1+CrGwJIUOVaw8JYWSTFEOWePvnvhjWOON483cJoDvS30HQ/isCioAioAgoAvcyAhFXz+Dg3v04fu6See96cqTNkgdFi+VDOjOpoNfk+mw0z9kYoy6kwUu/HsCoBncENN+hNuLSEezccRBnw0KRNV9BFMyTCckdOTqd9iYMaz6ogsq9zST7Nb7FsYVvIavTqrScIqAIKAKKgCKgCCgCioAi4EcI+HTZ7ke4alf9AAHerid14s5cXK1bt/YDlJNWF5nrb+7cuSKNIqtl+PDhIrp5e6fUibuZgNtil0iIGa6G5s2bw7zYQUK9R3UGpcyCgg9WQJXqNVCjemWUL+llp6LN1gelyYNSFaug+mPlcX8+XzsVbTbWSz9n3l4pJroZumXZOv8rIey3VD6sr776SizPIfNRjR8/XgJyML9jv379RHQzz58UE523j9PWOb9LCJktfK9JCN/jUrdxjxgxAr/++qtEtzFv3jx8++23IroZ3STFRDcv8kCLFi1E+k2l3KdwvyIh3bp1E8uJPnToUDDKSEKYS1QqVzNz0PvrvpjjjOPN30UZi/5uAdp/RUARUAQUAUXAGwi4GIvng1G25Qd4tkgyBKQsgQbt6qJoEJMdyEvk8RUYPno1/jYv6jmxYCgGLT2CAGUsyj8YbYEioAgoAoqAIqAIKAKKwF2DgDIW75pHpQ1Nagj488lMUnsWvmoPT7ylGIs86ZdiLDL/mCRjsU2bNr56xHfoIaPl5ZdfvicYiyIAupQaV7Dhp08s1sZHn07AjhuirblDecThRejb5SOzbV0w0HQqRgg2jYy9t99+W6QFZCrS1qUYi+y3FGORubhWrFghgrskY5F556RujN21axc6dOgggjkZi7R1KcYiGfiSjEWpfKJcvyhj0bcmf/bsWYudKyWSjEUy57hPkxAyFqVuIZ8xYwaoX0L8eV/Mccbx5u+ijEV/twDtvyKgCCgCioAi4BUEIhB27QbCTTagSwIDg5EseYhXL1my1ZXIcFwPC0PE7SYiMDgUyUO8eQ2UrRbqjxUBRUARUAQUAUVAEVAEFIEkjYAyFpP049HGJWUENMdiUn463mmb5lj0Dq7x1ao5FuNDJ6l/F4SQ5MmRMmXKW3/Jk5JTkfCZjs7Q5Lfbx7ZKORU1x+I+EYPWHIu+h11zLGqORV9aneZY9CXat3VJMhY1x6Lvn7k/MxY1x+J/9qaMRd+PO9V4jyBw/fp1XLlyBRkzZvR5jxjCc+7cOWTNqveW+hJ8XuKRLFkyy0nia7l8+TIiTeZX2rRpfa0a165ds0IkM2TI4HPdtPXz588jS5YsPtdtGAbOnDmDzJkzIzBQz+F8/gD8TOGNGzessHvam6+FcwvDeKRsnbrTpUtnza++Fs4vyU0HeIoUKXytGpcuXUJAQABSp477xnRvNYpzOtcx6dOn95aKOOsNM1nC7HumTJni/I23vnDZOt8pxN7XwncKMZeyddo57d3XwhB0vkclbP3q1avg/Mo5xtfCMcb1m4StR0REWBdKSO0VTp8+be2RgoODfQ27tUdKlSoVQkNDfa6b73H2mfp9LdyX8rlL7BX8eV9MW+cYDwry72gX3Sn5esSrvnsGgb1792LkyJEi/eFGqH///iK6qfT999+3nD0S0qdPH5DtICHMXbJu3ToJ1Vi1ahXmz58vopv5sMaMGSOimy/rgQMHiujmBrR3797WAYKE9OrVC2SxSQhv8Fy9erWEaus2xWnTpono5viWulHx+PHjGDx4sEi/6eihrfO/EjJkyBCw/xIyceJEbNu2TUI1mOdw2bJlIro3b94slvPuyJEj+P7770X6TScTbZ2bbwlhrmY6FyWE73G+zyWE65eVK1dKqMb69esxffp0Ed0HDhzATz/9JKKbztyvv/5aRDeVcp9CB5+EcH/GfZqEzJ49G2vWrJFQbd36Tv0SIrkvpp1J7os5zjje/F2CPjXF30HQ/isCThDgKVjOnDlFTiF5Ekbd2bJlc9J0t8tQL/VLnMzwRIi6JU4hedqdK1cukVNInvKz3xIn7mQ3sN8S7FyXrUucuJPNkj17duTIkUPE1ske4zMPCQlxe8zarYCMGuqWYOe6bF3ixJ1sHvZbwtbJYKJuKVunnfNPgp1L9piUrZOJzflNgrGYJk0aq9/8r6/FZesSTHTOaey3BBOd9k0759wuwVh02boEY5HzGnGXsHXO5xxnEoxFvsfYbwl2rsvWJZjoXKOz37R1CeG7jPolGIsuW5dg53KdzjlGwtbJkiTmEnsFyX2xy9b9cV8sMbbj0qmMxbiQ0c8VgQQQ4Inz2rVrE/iVd74mg2rJkiXeqTwRtZJlwfBYCeGNhgztkBCyWg4dOiShGvv37xdjGpw6dUqMqckQouXLl4tgTsbiokWLxFhcZAxKMYO3bNmCo0ePOsadYeROhbcD796922lxt8qRNcf8uRLC024pRg9TDtDWpW7K/e2338RuX+fzlmJL0s6lbsM+duwYOM4lhPMaWfgSQlYubd2dOcqddvN9xjBwCSEjm+9zCSFTUoqBz1zNUqxkrlelbuLmOp22LiXcp5AhLCHcn0kxg7dv3y62Vzh48CB27NghAbmFt9S+mHYmuS/mOJPaF4s87DiU+j7pQRwN0Y8VgbsNATIMChQoINJsngoVL15cRDeVUreT03ZuorZu3YqaNWs6PjkuWLCgyCkg+507d27H7Xb3YZHlIMFqYbvJNJC09aJFi7oLn6PyZLOUKFFC5LSdDS5UqJAIY5C68+TJ44i1x836F198YTnIGHbnhPlHlgOduhJCRku+fPkkVFssosKFC4vo5mk/bV2Chc4Os98S7Fjq5vOWYDJRN5lEEgxR6iZTkeNcQsiq4fwmIWRP0dYl2IrsL99nEiwq6uZ7XIIJTt1SjGTq5ntIapyRtcZ1q4RwnU5blxLuFSQiLtjf++67T2zNLMXMZb/JjJWaXyT3xbQzyX0xx5mTfbHU2PSWXmUsegtZrfeeR4CJoKVOnZkbSIrJxAd74cIFRxv/qlWromnTpmCOIadCVg+xlxAyRaVOpJhoX+rkV9rWaW9SwnEm5eRiAnApBhmZokzEbUdYpkmTJvj444/BWzjLly8PntzbFUlbd10qYbfNnvg9nzWfuYTQIUxbl2Jx3W227qlnxDmd9i4hrkslJHTznSKVj4rzuaSt830mld+Ra1Z/XD/5u61LjHHqlFw/cX6RyhksuVfgHkVqryC5fnLN6/5o61J9jk2vOhZjQ0U/UwQSgQAXhnY33omoNlE/4eZPSjcbyBeX3Q0oQ65cITi8HMHp4pb9lnL08KUptSGg08EpZokyqnh+JG3rUs5cl63HA41Xv5K2dTtOTYa4VaxY0XIoTp482Qrv5Kk5P5s6daotnKjXjm5blSfwY9q61DjjvCY1r3M+dzKvJwBnor+WtnXJeV1tPdFm4pEfumzdI5U5qIS2bnf95EBNrEWo2x9tXXL9lBTm9ViNwQcfSto61+tSewWuISTHmZRDVdrWpdZPHEqS6ycfDOVEq1DHYqKh0h8qAnciwFAehsZKCOnW+fPnl1Bt6WQ4jd1kzAMGDLBCIshWZG6nKVOmOGo/Q7ekQuaYFFgiITKBYtiaRKJ76mYoD0M7JIQ2I2nrDKeRCg/NmzevSJJ9PmeGaCY2ZI63fT788MPWwoo3EjZu3NgK/WJeqVq1aqFRo0bo1q1bohf5DFvjJU0SwlAeJl2XEDpi+cwlhGGCtHWpcEGGI0uFb/F5S6WZoJ07SRfgCRvh+Ja61IFh/1Jh2JzPaetSodC0danwUOkQTYmLgjhWuG6TutSB61UpW+c6nbYuJVy7SYWHSl20SKyZzkUqvQb1SlwAx377876Y48zuvlhqXHpTrzoWvYmu1n1PI8Cr7Tdv3izSR4ZOcQMvJbxUws7J0OnTp618a82aNcMbb7xhOWTpaHQimzZtEgsDZ45IqST/R44cEUvyz4TMzI0pIQwpWbNmjYRqi1XCCwakTn83bNggFhrLRPsnT56MF3fi07t3b9SpUwcVKlSwLvgpWbLkrTJ01pC92L17d+uvQYMGiQp/ZPJxXlYkIWRVOwnf9kRbGaZIDCWE7ArauhTLgv2WSi3CRPd8R0kI7Zz2LiEc3zt37pRQbc1rnN8khGwi2roUa5CXG/C9JiF8j0tdaEFWOy9RkRCu2/78808J1dZ6letWCeE6XeqSJPaX+xSpVA+MkpK66HHPnj1uXX7njq3w0r29e/e6U4XjssTbX/fFHGd29sWOQU7iBYM+NSWJt1GbpwgkSQR44szTfolTKZ6KULcUq4enYfxLLJOrb9++4E3SP/30k8V8o6Pm559/xtNPP22bCUd2B0+eJU78XafeZFv4WngSyGdO9qCvhUwisnok2Jq0deqWsHUyWmhrtHUJJhf7TP0SJ/581rS3uFhk3Bg3b94c/fv3R6dOnTB8+PBYmcTEkLlVH3roIfTr1w8TJkywWIzxPU/auJStc2xTt4St8znT1iUYbHxO7DcTv0vYOvVynEnYOt/hHGdx2bo351s636mb87uvxWXriWUme7J9fH/T1iUYbLRv6qbNSbAWXbYuwW5xrZ94AaCvhbbOOUYi4oQ6qVvC1ok1dUvYOtfoLlv39fOmPkbZcH5L7F7Bk22krfOdImHrrr2ChK279goSLHyXrfvjvti1V5CwdU+OG3frUsaiuwhqeb9F4MCBA5g4caJI/5n8e+jQoSK6qfS7775LNLuEJziDBw9GtWrVULp0aavNr732mhXi6YS1OHbsWBw6dEik73PnzhU7jSNrb8mSJSL95uknmWcSwhPQH374QUK1FbrL0H2pRNgjR4600gZIyOzZs7Ft27ZYVXPuq1SpEmbMmIFx48bhyy+/THDjUK9ePYt5SkYcL3WZM2dOrHXzQzKiV6xYEef33vyCTM1p06Z5U0WcdZMtOWLEiDi/9+YXPOyhrUuxc3nolBBD1lv95/OWYu7RzmnvEsLxPXPmTAnV1rzG+U1CyKCirUuxc/k+O3v2rETXrfe4FJuJ6xepSBuyqJj/V0K4XuW6VULIAud6XUq4T5G6aJKHmFKRDwsWLBBjZJMJvnDhQpFHTryl9sW0s7tlXyzycHykNMAMBTB8pEvVKAL3FAIMp6HTTIJBxgUxGUMSp698iLxtjf2Oymz5/vvvYw01oTOBGydu3urXr3/LBl5//XXLYdS6detY81vREUFnZHThzbNklkic9tPBxNMoiRNQV2JgCbYkbZ0OBwlWjaSt8/XIhXl0W49uk976N3Xzecdm62zbL7/8AoZxekP4zDm+o5++0g6Z1oAn8hzTDz74oC31PBR58cUXQSc9UyPEls/QdZlFbP22pSyWH/MUv2PHjnGyZmjn7LuErbPfdHpIMA1ctk7dEiyu+Gw9lsfo0Y/4LiVTUoIF77qYSoItSVunzUmwaiRtnQdGXEdI2joxjz63etSo46iMtk47l2AGc27j3CJh665La6RsneNcYq/gsnXJvQLfpRK2zjHOtbqUrXP9JLFXoK3zuUvtFXRf7N+cPXUsxvHy1Y8VgYQQ4KnQ9OnTrdxhvpYTJ06ga9eu+PHHH32t2tLHEEiGNTKkh0KnInMnFi9eHExMHl24qOGJbdTFBRkiHTp0iP5T698bN260WGIrV66M4bj48MMP8cILL+CBBx6Itaw3PyTLoVChQnjqqae8qSbWun/99VfQKfPqq6/G+r03P+QlHIsWLbJsztfCnExffPGFyEkkN7+tWrWyTvwlQmM5Puh457iKKtyktG3b1konULZsWa+EzpJlwY1QbCHLDC9iCLRr/Nu1CTqLe/ToESdTi8w1Loxz5sxpt+p4f8/nyTnl/vvvt26qju1SIBeDrHPnzvHW5Y0veZP2wIEDrT9fCzf9POzhXC6xIXn77bfBP86vvhYybh999FE89thjvlaNUaNGWRvf559/3ue6mZ6ETK643sPebBCZwVy/ME2Kr4UHo+3atbNSs3jj8CKh/nDu5jpG4qImzrs1atTAI488klAzPf4902UwRJKXe/layFYkU/N///ufr1Vb+anJ7O/Vq5fPdZMZ+95774mxg7l+oc3FdoDobTA++eQTi8zANZKvhcw5pn2qW7eur1VbkSTMKdqmTRuf69Z98e19sc/BTyIK1bGYRB6ENkMRuFsRIPOIL89nn33Wch56Ij8XF0Pc6NG5yNAZqdu379Znou2+dxFgYm7esszNyrBhw9CiRYt7t7Ne6BkdKQ0bNrSYqAzZefzxx72gRatUBBQBRUARUAQUAUVAEVAE/AcB/+Zr+s9z1p56AQGy6ngiJiFkLPIkUErozKDzjxg0adLEcgKSPeUJpyL7RCYUc7CRUs8bZ3mDpEt40i91QzGZa3SkSsiUKVOsCzIkhM5dnjpLCBmLZHhICBluZOdGtT9ftoMhu2T2uIRsO56+8zT6t99+86pT8ZtvvrEuXJKQ8ePHW0wubwjzvPIGYoZw8xIZMi+jZoQhrl999ZU3VCdYJ29NfeeddxL8nTd+QMYibV3qBk/2m4xNCeHzlsrpSTunvUsIc94x8kBCeEMv5zcJIWORtu5KueDrNrz55ptityPzPS6V55D5Yxl5ISFkLDLiREK4XuW6VUKYo1ry8JH7FO5XJKRbt25ieQ7JWJw1a5ZEt628uTx0lhAyFv15Xyx1C7nEs45LpzIW40JGP1cEFIF4EWCoZMWKFa0QUeZQ9MZNplwAV69eHZUrV7YcjRK5UuIFQb9UBHyAAB1fXCgyjItjjgn4eQOdinME6FTgbdZ0oL788ssWvhIhwM57oCUVAUVAEVAEFAFFQBFQBBSBpIGAMhaTxnPQVtyFCPgzY5E5Dsn2YR40Mvi84VSkSdCJwvBqMqeY/4sOFmUs+n6wKGPxNmPWl+iT0bNlyxYrfylZmxwDHAu+cCreq4xF1/NjbjWytcgYmzRpEqpUqYIjR45YTFBlLPrSyv/TpYxF32OujMVw34NualTGou9hV8ai7zGnRmUs+h53ZSz6HnNqJDNYGYuAMhZl7E+1KgJ3LQK8SbJ27dpWOM3y5ctRrlw5r/eFlxlw4/npp5+C4Q0qioA/IMCQZ+YuZXjJoEGDRNMf3Mt4E1/mXeSlOGSDSlzicS/jq31TBBQBRUARUAQUAUVAEbi3EVDG4r39fLV3XkTAHxmLZAzyVuKlS5dat4f6wqnIR8jbQt99913Lsfj0009rjkUv2nVsVStj0feMRWJepEgR6ybLZcuW+dypeK8zFqPaOfNWrl+/3rp9m5e58CbJqHkXYxsT3vhMcyxqjkVv2FVcdSpjURmLcdmGNz7XHIveQDX+OjXH4ob4AfLSt5pj0UvAxlNtUrh7QBmLyliMx0T1K0UgfgTI3OOtxenTp4//h174NiIiAhcuXECmTJm8UHvcVTKvYv78+a2QzMGDByMoKCjuH3v4G/a5TJkyuHz5Mpj4PSQkxMMaEq6ON8kyhFIiFxttjaHnqVOnTrihHv4FL9Ehm4v5NH0tzIXHZPveCrePrz90Lp07dw4ZMmTw2MVE8emL+l2NGjUsVvCOHTuQL1++xBbz2O+IOcdY8uTJPVZnYiu6cuWK9dNUqVIltohHfnfjxg088cQTVjg053df53Slfs5vtDdfC+eW8+fPi9g6+0rdnNt8jTl1+6Ots9+c02nnadOm9bW5ISnYOt8pAQEBPu873ynEnGsJXwsvIuOcHhoa6mvV1tzGC/5Spkzpc928lIpriTRp0vhctz/uFVwg09HCPZIv9wou3dwj0db8ba+gtu7bfXFSsHWfT2rxKFTGYjzg6FeKQHwI7N69GzyBlRC+rHv37i2h2tLJm2p9fVMuFyY5c+a0NoFk9kgIb2Zes2aNhGor7Hz27Nkiuunc+uWXX0R0nz59Gn379hXRTWdLz5494XJ0+boRdGBzAy4hEydOFLtRkXkk58+f7/Nu06mVK1cun+t1KWTo+4ABA0T0c/NLW+d/JYT9PnbsmIRqjBkzxsplKiG0c6nb15kCYMKECRLdBg8pmd5BQnhIR1vnYaWE8H126tQpCdXWe5zvcwnh+oXrGAnhuk3qRmquV6Vu6eV6+fPPP5eA3NLJfYoUi4v7M+7TJGT69OlYtWqVhGpL74wZM0R0+/O+mOOM483fJcgMLfzU30HQ/isCThDgpj937twiTCqedOfJkwdZs2Z10nTHZehM7N+/v5X3rU6dOj4/hRw9erTl0OzcubPIiTsZDnQ8SJy4k+FAe5Ngl9DWaW8STCo6e/LmzYssWbI4tlunBclmIeY5cuTwOWNx5MiRFiOaNxdLnLiTDU1HvoStkxnLcSbBLqGTh2HRXbt29fn8xufMcZY5c2anJuu4HG2dunkxEFlFvpbs2bNb9ibBWCTetDcJJjptnXOMBBOdOvnMJaIuyJjjvO7rqAvaNe2burl+kmAs0s75TvGkrbsYx7HZMB07rnmc71Hql2Cic/3AcSZl6xxnElEXxJrjTMLWeSDvsnVfz+nUR1vjnwQ7l+ObuiXYubR12puvoy6IOddNknsFf9sXu8YV5zbO6xLsXImxHZdO368e42qJfq4I3GUI8MRZ6kSKDKoFCxaIIcZQZNLtJYThW2fOnJFQjU2bNuHAgQMiuplrb9u2bSK6mbvk999/F9HNE8CFCxeK6OZmbc6cOWAouITQsSh12k/n2uHDhyW6baU62Llzp4huhutJCUO3mPdOQhgmSFvnfyWE/Wb/JWTt2rU4evSohGrLzmnvEsLxzXEuIZzXmDtWQsjKpa1L5FFlf/k+Y1oVTwnfU02bNsUjjzxihbdHFebDpnOFl1JR+B7n+1xCtm/fbuUMlhCu27h+kxCuV5leQ0JoD7R1KeE+RSrig/szKWYwGfBSkVXUK8XA9+d9McdZ9PlXatxJ6vV9gg/J3qpuRcCDCPDks1ixYh6sMfFV8QTugQceSHwBD/+SC1UJFhW7wVN+CdYedRcoUEDkxJu6eRIm5eDi6SsvEpEQMjBKlSolodpiszCvp8RpOzvMMSbB7qDuggULijAsqJvzCzfLEiLB5HH1k+yGkiVLSnTbOmWnrUudtrPfEuxYgl2oUCGRyAPqJrtDgiFK3WRQSTnXyKopUaKEiK1zPqetS7AV2WGu3WJjFjoFg+GmDPNluG3U+YupBZ577jkL56eeesqqnu9xicgD6iZrT2rdSPaalG6uV6X2Clwv09alhLYuwRhkf4sWLSq2Xmcuegm2IvvNqAOpdaM/74s5zjzJQpcas+7qVceiuwhqeb9FgE6es2fPivSfuYGkTuLYYbJ6pPITUa+Ug42MGiknEzEng01CeAonxZwjg4p5FqXk5MmTYk4u2rpUzjtepuHJza+d50c2j9T8IsXYIz7Mpyll63TkSto6WT1S+URp6xIhknzmZGRLOXMZdcC+SwjnNanIA5etSzlVuXbzlK1zDdq9e3crPQ0v1YsqzPnF57t69epbTg6+xyXSirhsXerghqw5KUa05F7BZesSY5w6aetS71TaOg/kJUTK1thX2rqvc+C7MOZeQWpfTDuT3BdLrp8kbDwunRoKHRcy+rkikAACXJRKLUwldRMWqX4n8Ei8/jUXaVJ9l3zm0rql2Gs0KEndXjfoeBRI9lvS3uKBxOtfSfdb8pn7q27JZy6t25+fuacmk5kzZ1ppad56660YVfJintq1a1uMXJdIPnPJ9RP7L7V2k9TNPkuOM0nMpfstJPeFUAAAIABJREFU1Xd/fuZSmHOMS89vMV4AQh8oY1EIeFV79yNANo/UyS9Zc1IncXxyDO2QYllQr1RoBS9vkQoxYOiYVCgPbV3iQgnaGkMLJG2dCZmlQhUlbZ1hklKhPGSPSW0KpBjJtHWOb15iIiG0cUlbZ7+l5jfObVJh2Lw4RWp+4fiWuFCC9s13uLStS4VCe/LiFldOL65Nogu/i/45bV2Kic4QbKkxTluPjkV0vLz1b9q6ry9adPWF7zPO61JCW5d6pxJzKYYsbV1qr0C9UnMb8fbXfTHHmZStS43v2PQqYzE2VPQzRSARCDDEZNeuXYn4ped/wtAKqUTU7A0T3UuFaFIvw8ckZP/+/WJU++PHj+PQoUMS3ca5c+ewe/duEd1kY2zevFlEN08/ebmBVCgPbd2TSf7tgLhv3z6xsFzOL1IXx0gm32YIk1TSdYae09alQtC3bt1qpdiQkD179oiFb9HOpS6OYSiy1GUanNekLiPjfE5bl2K3cO3mqbQmrkO32NYG/C7653yP830uIQcPHgTXMRLCFBNSl2lwvbpjxw6Jbltpg6QuaGKHaetS71RejCUVkszLgqQuSWJILseahBBvqX0x7UxyX8xxJpWmS+JZx6UzwHyxGnF9qZ8rAopA3Ai8++671kaIjANfCxfGzKHha7YBF0g//PADypYtiypVqvictcgE5cyb0rJlS5GTb26GeCIlceLPjQhZXBKnoHxZ8qUtkYdMytY5pvl65CaMF5l8/PHHPh3mTARNRzZtXSIhNMc69UrYuusWSV8zJvm8R40aZeV+a9iw4R0hhJ56+PExCZh3jXOMU2ZNfHUn1H7OLbR16o6NQedO3QnpZt2c18mE94atJ9R2vkvJKnLCbkmo7oT67nKmxjavu1t3fLpZNw9teHjh6Xk9Me12HZo4WcMkpv74+k5bp72RvRe9ruj/jq8eu9+56mYOMmLuCVvnuuCrr77Ce++9h759+97RpFdffRUjR47E//73v1u6uPHnnC4R9cG5jXOLr+d1gkJb5/wqcfEfbZ3vNIlLc3hQRBKEVMQJxxltXYLJJW3rjDiRYMJzTuBzZ5STr4V7BY41yX0xL3t85513fN110JFduHBhj8zrPm+8BxWqY9GDYGpV/oUAF4VSTCb/Qlp7qwjIInDffff5nO1AnTz1VlEEFAFFQBFQBOJCgE5p5lGMztYZN24cmjVrFlcx/VwRUAQUgXsOgdKlS8eYC33RSTpVmerBm4dTvuiHuzo0x6K7CGp5v0Ug6uTRo0cPn+LAEKKJEyeCJ9L58+f3qW7S7AcNGoR69eqhXLlyPtVNpkG3bt1QoUIFPPPMMz7VLa1s7NixVshcp06dfN6URYsWYfny5ejSpYsjVo87DWZo6OTJk/Haa68hb9687lRlu2zXrl2tMtILBbbD17mp+vXrZzGiW7RoYRs3dwuMHj3auqG4Y8eO7lZlqzwPij777LNbZXjbqqfFm0EiWnfMp3W3YsKe3K1t13b71g7/+OMPrFq1yooqiMq65TqJUqNGDVSuXDlmo/QTRUARUAQ8iMDatWsxZ84ctGvXzue5Fj/99FMP9sR+VRIscPut9EEJcwGgoggoAg4QMBmLTCNgdOjQwUFp94qYt/1ZulesWOFeRQ5Km7mwLN1Dhw51UNq9Iia939Jthva4V9FdWLpBgwZGzpw5RVpuOhQt3M3QEp/rN51Mlu7Vq1f7XHeTJk0s3WYotM91FyhQwNLNP/Mk1Of6TcakYd4o6nO9VFi3bl3DdCL7XLcZsnYL8w8//NDn+lWhIqAIKAJ2EejTp481b5l5ce8oah6UGGY4ptGmTRu7VervFQFFQBGwjcB3331nzUVmWLDtsu4W4HqVuk3GortVaXk3ENDLW0wrVFEEFAFFQBFQBBQBRUARUAQUAUXgbkKAOWEp0XNlMmcqc61J5Pa7m/DTtioCioAioAh4BgENhfYMjlqLIpA0EYi8gD+XzsHCdX/hn2SZkb/Eo6hd60FkCkqazdVWKQKKwH8IaI5FWUuQDn+X7b1qVwQUgbsBAV4MMmvWLBQrVizGBR3Tpk2zulCpUqW7oSvaRkVAEVAEFIG7HAF1LN7lD1CbrwjEhUDk6cXo0rAF+vx+7P/s3QVYVFkfBvB3ZmhQxMDCxO7u7kbX9rPWxl67u9ZuXWvt7rV1LVRsXXVtRV0TE0SEYWbOd+8gSofMwADvfR6+b71x4nfv3Dnzv+eeA43cQVxeFCqkyNscUzYsh2sRu4gO5XoKUCCeBeQxsf7+++94LkXSzT68mZGTrgZrTgEKmJqA9LaafsZneTbSXbt2hSje9evX0b9/f1SvXh21atUytaKzPBSgAAUokAgF+Cp0IjyprBIFAH+4TR6EmRcCUGHYFlx76YXPnvdxcklnZHq2HQN7LcQd/XCFXChAAQpQgAIUoAAFEoqAHFSUJytYtmwZJk+eDBcXl+9Fv3PnDurXrw9pTGb9JH/SeOAJpVosJwUoQAEKJGABBhYT8Mlj0SkQoYDmIU64PYWiYDfMndAcRdInh12anKjcfQ4m/ZId/peP4binNsLDuYECFKAABShAAQpQwPQE5PETDx06hNGjR2PYsGEhCnjs2DH9uIpyj/eUKVOaXuFZIgpQgAIUSJQCfBU6UZ5WVirJC4hP+OStATKnQVqlIhiHBbI7p4dK9w6v5cBiet4Ckvy1QgAKUIACFKAABRKMQKpUqeDu7o7whmyQX4/u1atXuNsSTAVZUApQgAIUSHAC7LGY4E4ZC0yBaAhIr8nodDoIKagYPKwoDbIICws5mChtZ4fFaEAm0F10b3Hhr3248vJrAq0Ai00BClCAAhSgQEQC4QUVg/aNbFtE6XE9BShAgbgT0OHthf3Yd+U5/OIuU+ZkZAEGFo0MzOQpQAEKxLmA1CP12MSOKJnZEVlKNUS3sYux5/J/8I3zgjBDClCAAhSgAAUoQAEKUIACQQI6eB6bhWYls8IxS0k06jYaS/dcxAtfjv+fkK8RvgeZkM8ey06BKATE7fXo2dYdlt/3E/hy7za0uq/4a3QHeNiHfLZgVqw71g6qHEWq3GzyAmZ5MfL0LdQ7th9/HTiIQxtGY/XEvrByKoLKteugXv2GaFCrFDLZhOzPavL1YgEpQAEKUIACFKAABShAgQQsYIb8Iw/Co97f2PfXARw8tAXDV09Gb6uMKFq5NurWq4eGDWqjZCbbBFzHpFd0BhaT3jlnjU1ZQPsVXzTWsP0RCfy50iqskdY5B3I+98bta9dCpWGPXLnsEfD4H4TeYuHw7ufy41GmJ2CVDkUbdNb/jYEanjdPYf++gzh6/BCmdpiBPro0KCJ9ectBxiZN6qBoOivTqwNLRAEKUIACFKAABShAAQokMgFLpC9aD13lvzGA2vNfnNi/DwePHse+qZ0xrY8GaYtUQm05yNikCeoUzRCso0wio0gk1WFgMZGcSFbD1AU0+Hd6Y9Q7VAEHjg5FflXYnmK6+wtQtehQiEk3cfo359hVyLw4Rh69jpGxS4VHJxoBCzjmK43KXp/h66eG2s8bR849xM3zJ+B1dSum9LNE3vqumDR7JFyyJYYAoz+++JrB1kYVyRn8gvsH3OFfqzoKmoX9PEZyIDdRgAIUoAAFKEABClCAAgYSsHDMgzKVvfDZ1w9qtR+8jpyFx83zOOF1HZum/AabvPXgOmkmRrnkgIWB8mQyhhVgYNGwnkyNAsEEvHBu8RSsv+ktTZUi8PHqNbzyeItJvZ4iRZg4hgbed07gop8SFa3MjaOo88PH16/h+cEbASpb2KfNgIwprcGBVo3DbQqpqj1v49TB/Thw6DCOHHfHnbcBcMhZBjXq/opF411Qv1I+pFR+gcexhXBtPxatmpvhwvkxKGSIQJvmLa5s+xNr9p3G9fvP8V4aN8UmZTo4F6mAem06o03ZDDDaF5DmAea2Hg3zIcswqHyaUNe4Gq/cVmPiqGlY7V4ASz7JgUVTOFssAwUoQAEKUIACFKAABZKIgPotbp06hP0HDuHwkeNwv/MGWoccKFujLrotGg2X+pWRJ6UKPo+PY55rF4xt2QpmF89iTKHYvtqXRHzjuJr8ORXH4MwuKQnYo3j5rJi/cR2eaHTwe/UZuq8vcee6AmH6hCkUMLPKCZf+IzG8fSYDIvng7t7lmPfHJhw6dwNPvfwhTRgduCjMkSxDPpSv8ws69u2F5oVSMchoQPl4TUrrgZX/c8GgnbfgBXvkKF0ddfotwNzGDVE5X5pQT/pska1Wb3QovwjH3J/huTRbeKFYfjPoPp3F5MZtMOHsJ2QuXQXli1VCcVsF/D68wL3ji9B1ySws6Lcef81ogHTGiGwrUyCT+b/oUrsKbi/cjMUdC8IGOny6uQuzxozHgr23oMlcDV0XD0M9qzBR/ng9dcycAhSgAAUoQAEKUIACiVdAi8crO6POoE146CWQIkcpVK/TC0vmNkbDygWQKlSXRLvsNdC/YyVM+/tvPHuhkX6oMLBoitdGLH8+mmKVWCYKmI6AZWFXbD7jKhVIiwdz26Pt+fLYsKEnckT2hqahiq95gi09WqDbn5cRkL6U1EtsEFzzZUFae2so1F+k3otP8O/l0ziyZSJar1+J9dO2YVP/UrAzVP5MJ14FbLJXw8ClU+HSoAYKOkb1BWyOar8fwj27TMhqGdtAmwY3547A5OvpMeiwOyZVy4CQl7s3rs/vhHqDumNopRtY45LK8E5KJ7TfcAR2Qzqga7dqePDPUDTw2oP568/hQ6pSaDv9IEb3qoWsDCoa3p4pUoACFKAABShAAQpQIDIB6yyoO3AR6rg0QPWC6aJ8vdm82licv/c7smTlhC6RscbnNgYW41OfeSchAQ1ePPoXV3fewMrLv2JqaWsj1116ErSkrxRUvIWMHVZjx4J2yCv1GAtvUb84gUlt2mLy0K6YUvY8phi9bOGVgusMKqDKhtZT5kaZpNb3CzQ2ttJgyBZImyMf0kZ5RHR2UOPWjcdQVZmEkWGCivLxyVHEdQBazK+HoxceQCMFFo3yRWSZFb/MO4g8xQeiVe/hGPHFAZUHbcTiES2Qzz78z0J0asd9KEABClCAAhSgAAUoQIGfFVAhe5vxmBfV4cEmNbVI64z8hvmhElWu3P6TAkb5PfeTZeFhFEjUAmp1gPQasjnMLI3x7mcoOu1z7N52Hl8cm2HK/IiDivJRFhmrYuy8nthbajx2bL0sBRYrJurzkCQqp7mD6bUa4VCdHTg6pFCoHoOygBb3ZzVA0eFfMPHBcQzIYsivAgsUKZkbyiWHsO+/NmiVKeyYoep753HFU5owpkAWA71+r8ObC3tw6I6XNJpp6KUUunb1wLQFx3DtiFSm3F9xMegjqHJCxTY14GzwHsT+8Lz3D+789wFf/DXQhSmUCumK1kCJjGFtQpee/6YABShAAQpQgAIUoEDiEYjjSU0jgPP3vI/rd57h4xd/aMI21qFKVxh1SxhyiLIICpJIVhvy12QiIWE1KGAMAUtU6D8Wfe4Px8JGNfC0aRXkzeKE9KltQ/XWUsGpfDNUyRbLgIPuNV6+8YPCuQAKWUfdO0uVuyDy2yqx++kzY1SeacaFwKfzWDJxHW746gDxCVdv/QePL5PRyyMlwlwBms+4c/QM/MzKwvBzBZkhS7Ne6La3NzqVroQDnVujVvGcyGBvCbXXK9y/dBhrl2/F/WytMNpP+u/V33CUaVC8ST0UTBamtNHQC8DdDePRecE/Usg0kuX6agztHJQhoDBriD+bVoezzc/kGX4+Os9jGNWsM2aeeYaAMAHFoGMs0XCNJ/a2j+XnPPwicC0FKEABClCAAhSgAAVMSMCEJjXVeeLwyLboOOtvvA6QfjdFsJg3XAX13l8j2MrVoQUYWAwtwn9TwCgCGjzYsgCLTj5GAB5j3dwzEeQiBxzqxz6wKAKglm6UCktrRPAGdMj8lRawksbWC1CrIygXV5u8QIqiKJdlCTZsugeN8McrXy2+vrqL69fCvnavUJjBKm899B8/DB0yGPprQINHG2ZjwfmX0rX+Eusmnce68PDersGQzmt+bFGVwdRytaTA4s8E2yxRef51aOYHJafD24f3oXHKjfRxOo6iGhdmDMMMt2fQKJSwSpkBTmmSwdJcFSq4a4ksKeKg53J47lxHAQpQgAIUoAAFKECBOBUwhUlNAysccGEB+s48htfSPDBKKwdkdHKEnaU5VKH6GVhkSRGnQgk9M0P/okzoHiw/BYwkYIbCY07i6ygRzquawbNUSL2oDPdepoh2R6xo72gkHyYbewFLFO67Bmf6SilpH2Nllx44W2EBlnfOHc6r0LHPLeIUpGt9nBvU4yLew+hb1GcxoVY9LLPphdNXp6K0RVxd39Jjg4dvoJVmXM/dYxdOLaiPtIb7OBudjRlQgAIUoAAFKEABClDAGALBJzV9tLIXup4tjmXLu8bNpKbBKqR+7IHn0itO5rm7Ye+pBaiT9mc6NRhDKGGnycBiwj5/LH1CElCqoIrjTkri9nr0bOsuTc4RxSJ1Cb/kzd6KUSiZ8OagMQZ94FSxJapnc0CJJu2h+uCOdavdIy630cYYlLLUeuLCusX4Y/txXH3wHB++6mCZLBUy5S6JGm37oO8v+Y03A7nUYzdA6rErzMwQF0Oa/gC2Qony+WG95x3S58mHNAwqRnztcQsFKEABClCAAhSgQJIQ0L2+hF2H/4VvpvJoXc0ZKYs3REfVW5xZtxoRvccHqWtEpkqtUD27YQN/1iVKobj1ZlxMnxv50hg27SRxMiOoJAOLEcBwNQWMIaD9cBfHD7nh/jtf6XVVqffitzHYhE6LAH8fvJNmjrZqugoT6trFLnuFNdI650DO5964fe1atNIyy5ILeTMlj9a+htjp681FaN5gEszH/4NdHR0NkWSYNHTPN6BNteFw87VB9enHsLqNU5jJQnRvN6JNyaFw04+xoUCyxotxd1Ej6b+/4O7OBZixfBfO3HqK937StnQ5UKxGG/Qf2gUV00XxReT3FEeWzMT8Tcdx6793CLBOh9zlGqDz4IFoXTilvhz+e/ujUM9t8NFfBxao/PtFbGybJkw9ol4RNMbgXdRZ1QDVszzHrrF9Mf76x0gPNcYYg/oMfW9gXtMmGHz0LTKVq4mqdcsiXTIV/N4/x+3z+zCh+Tps6LoWRxc3RQZjBNsty6Df9J64N3QJGlV9gqZV8yGLUwaktgn1lScFVsu1qILsBgsAqpC7z1zMv9wC/Se2Rm/lQDQrlg0pbS2gDNFpUonkmfMiawqDZRzOef6Km3PbocFkLcbd24FfUxoDOmS2X+7swaypC7HT/S5efVYgZfbiqNt5GEb9WhpGz/7LPeya+TsW7DqD+6+8oUyZDcXrdsaIUb+iZEpjOodDz1UUoEC8Cmj/mYWaDefgnjbUQLcKBZQqS9g6pEX2ItXRYdAAtCzg8K2sapwbXQctV93DjxG3pLdIFCqY29ghlVNelKnZHF17NENhh4juKTo8X90J1UYdha9ddUw/uQpt0gV976jhNqIm2qx5GCz9CJiUudB7/yEMLxT4WDh2bRmpNRObe3M02jLh1SLcNp7/QfQo1AN/+UjvH0qLeZUpeLKhQ3iHcx0FKJDIBDT3tmFw55l4XmcZGlfLhme7p6HL+DPSsEmRLfIQYS4GDywqc3fH0vlX0bj/VLTsrcKgZsWRJaUdLEI21qFMngkFsgZ9R0RWTm6TBRhY5HVAgTgS0N5dCZeqvXHgtT+U5uZQagOgM7OCuVDDX6OVXpG2QroCleDazgABAPPiGHn0OkbGUd1ils1XPNo9GZ27z8RpT6Cm0TpK+uPSogXY+TwZ8mfywJYpC9Cz6TSUkcaSDLHovuL9q9fwrjwWu0ZWgrVjHmmzP65Pb4ZqI9yQul5vDFpQE3kd1Hh6bjvmzOiHWgeuYeuZxWiYJoJbqPYhVrSoA9dDWtQaPgZLa+WB9ZtLWDdlMjpUPoaHh49jbGlbmJfpgZUbm8D/9HQ0GvM33vtGONtHFMShxxi0R69t59A9zscYlIspzTi9ZChGHDdHuy3XsaRpdilkGnzxxtW5HVFPCrCOb1oDf9S0j6JuP7FZ8whbpq/Eyf+kwOp/GxDRkKb6wKpLZWQ32OQtGvwztStct9zUN5SW9GmBJeEWP2jyFiMF8n0fY/f4Hug++xg8URNG+4gFq1vAzcVoUmMALqRthuETB6B0Cm9c2jQTU7rXhtvTv3ByQkXYhmthgJXqfzGvcX0MupgcrUaMw5BSKfHp4jZMndoTNd2e4MDJiSgXrcFmDVAWJkEBCsS/gNoHnq9e4WPpfljWu1SwHzsCmi8f4HH1INatmYI2f53Bi5OHMKCgHMATCPD6gFevv6CM61i0yhP48FBo1fjq9RYPLx3ExjGtsfyPTZi1ey16Fwnn/q2+ikUzd+N5iqzIdH8rpszrjqZTy397a0SFbLW7YliGT9+HxBEfzmD+xK14kqs1JruWhU2QnDIViqcPal/Epi0DxOreHM22TMgTHkkbz7wE+q5ch9b+5zCx0Wiclh6yc6EABZKGgEXl6Xismf69sgV7rcY/3TMgb/qwY8EbW0T7z2z8z3UtHkizLD5Y0g/Nwm+sg5O3xPBMCC4UoMBPCZibm8tRIDFw4MBoHO8vTvcvKsysi4h++x+Lr5qXYnGNDCJNmy3ik/AXnv/sFqOrZxNOjZaK+9J891EtW7Zs0ed9+vTpqHY1+PYbN27o8166dGkM09aKV6eWiD618gg7lb3IWyi7sFRYilp/vIl2OlqtvvuB6NOnT5THaN9sFc3TWIlkdReJCwtdRDJVStFo1VOhDXWk9vUKUcPCTCRvtUV8Ddr2eY/4X2pLYVF6srgd4nxoxetVLUUKpZWoPOdhmLSCDvc/PULkkq6PHH2OCZ9g+WluThPFzFXCscOuH3lJ2323dBTJorBo3LixyJAhQ5T11u/gf1r0zmYnLPIPFef9o76eokp05MiRevdPnz5Ftau03Uesb+IkzCtMF49DYwcd7e8m+mSzFwVGXowyvfXr1+vzPnfuXJT7Bt9Bq9GIgICAyP+kfSJbmjdvrs/b2dk5st2CbQsQNyfXEqns7YV9pH+OouVGr0jTHDt2rD5v+c/f3z/Sfb9v1L4Wpxf0F7VypBAq+zyiUDYboTCrJZa+j+hERJxs9uzZRZ06dSLeIfgW7RuxunEWoUpWUyx8EvBji9ZTbGmVU6isK4tZD9XRS0vaq2HDhiJz5szR3F/6TK5uIxyke0rNRcE/k1rhuaWTSK+yFZVn3xWRn+nArNRq9XfzUaNGRTN/7kYBCpiagObiOJHfTCmStdgovoRbOK34b+kvIrlCJbL2Oia1wuTFT5zsU1iolOnFr/uCf3MHJaAR/+3sI/JaK4VFnr7ihHfo71ateLOhvUgj3YvqLj0rFtbMIFQOjcTKF8HuiaHKonk0X1QwVwrzmouEZ7jlFCJWbZlY3ptj1paJQRvPd6dokcxcmNdaHEGtuZoCFEhoAgsXLtS3oW7fvh2NovuJE70LCzPzAmLYed9o7B/5LnJ7Vc67SJEike/4bavm5kxRMVWKKNrq9iJ1y3XRSo87BQoYoGuUdBq5UIACUQio4fHoDRTFWqNv7WywUqVBufLZ4X36GC76myNNIReM2zwdZc9PwNhdH6JI62c3f8WzC/uwbtliLJg/D3Pnzg3zt2Dvvz+beDSOC4D76j9w2qouZp28hfNjqsJ4z6g0+Feq594PDnDp0gIl2vVAi/R+ODh9Htz95O+eKBZlEfRevQlbpFdJc4WYIkya6dfORhrxQ5px+at/YK8D/0PomScLnAr2xVH/wLQtKk7G7Y8vcX5KtRC9tPzevcdnIb0G6+AQ5pXsKEoUs83xNsagXEwzJEtmBbx5gef6OE3YRef1Ei+9AmBtY7wrQKlSwUwaYzHSP2kfwy5mKDBoL158+AQpCBvJ3xtsbh1Ob5fYFibgElYvOAWrRtNw4rY7xpRJG9sUo3e8zxmpV+ArqMq4oFmmYL14lWlQv1llpPB3x959z6N+/S96uYXaywcn95+Dl7IUmjTNEuxzpUSa+i6olkKDc3v248WPdxt/KhceRAEKJCYBJWyTSd/lCoGvvj7RvDep4NRkGhZ2Kgjd/bWYv+dtSBDNHSybsx8f0jRAl5al0a5vE6T3PogZc87B76fpYtmWicm9OdZtmbhs4/00KA+kAAVMRECtDpCGBJPa6nE7GLq+9qoCfXD0xftI2umBbfi3m9uaiFbCKEYE7/EljMKzlBRIOALmSOFgA8VzX0jPZaRimyFnoTywlQaydburRs3CllCmyIcCTv7YdOku0Ky8Yaum9cDa/zVAt623oZZmrLWSAjoWIQJmgdmZ10mNPo3yGzbv76lZotGyy2jybdZr/x1GykZO1usIZi+9AF2+/ujXKBWUZjXQr1sprB+3ClPW9cZfXbNFHtizyYwy9TOHKaDuwylMmLwHH+0q4n/NcwbOtiwFT/JVqAhvs7xIFSxOpbJNjVRyCj53sH/LMVy5dgJbNx2DX9Wh+HN4+VCvB4fJKnYr4m2MQbnYlqjWoQmybV6Ijq1TY86kHqiXP/W3V9H88fLCDswePBR7NKUwvWmu2NUz0qO1+HD7JA6duYd3X+XGS9CM7AI6aRgCf5/3eHTTAk3XT0BdK0PNGq3GxbFVUONPLxRv8BsWLO2CAmaGSjvSygZutKyLP243QOBHzB/G/IgFL43u+SN4fNEhbfYcSBHqcaWVczY4qXTwuPdQej08W9QTSUWjmiF20b7EAw9vKNJlQ87QY1ZaZYWzkzV0Hg/wUHrdJXPoYRBimhf3pwAFEpSA8P+Mt69f/7jvSA/d/Lw8ce/cDswaswOfLAtgYIcq0kA00V1sULZ6KSRfcguXzlyFf9s639P2OrAQS695I9+wPmgk3YvM6riiW9HNGLf8d6ztWw7dgj90iW6603r2AAAgAElEQVR2sWzLxOjeHOu2TBy28aLrx/0oQAETFbBEhf5j0ef+cCxsVANPm1ZB3ixOSJ/aNtQ4fdIDnfLNUCVbFOPax7CWARenoESNpdAVr48BCxajc4EopzmNYQ5Jc3cGFpPmeWet41xAuoE2qoJUm/5AvzHOmOT6C0qVLIViFuuwbdEedJjVANbuG7D3rg/smxt+kFi122KM3fEIzp03YsfM5shjHz8ffdW3oKJx+bV4sGoRtr2yQM2x3VFMH9gxQ/7urmg4vz32zJiLM/+bi0oxHFfP7/42/NaqF5Y/SIuOa1agV45vX3LSeJa9V6xH7wgqpX3ihs1b9+Gl9zO8VVvD0cIbz159ARyNMLZgUBnibYzBwALYVZuI3St90a7/JDQuOA6W9lKQ1VYJf+/3+OATAAunahi+ZTX65Q45+mIEhD+xWoO7S1ujap+deK1VwNxcCa00OY+ZlTmE2h8a+Y16q7QoUKkH2hk07qfB08ev4fPmKc69ApziMqioV5J+zBq6E2Y09LVe3vASCljb2UrTH4VcFDY2+nHDXkq9gsLvvxqNDCLbRSfl7a2BwtoOYYdRlPK2VkG88JV6CkeWCLdRgAKJT0DAZ093ZJX+QizSBC7myZ2k+/+vWDhkNLpXiNl3sSpFciSXejq+f/9Benfh2yKNRbhq9m68sq2JMa7FA38YSw8bu/evh/ntN2PmLDe0nVv1xxiK0cKOfVsmRvdmA7Rl4qaNFy087kQBCpi0gAYPtizAopOPpYfOj7EuosHQpUc3DdfUN3xg8elTPPd5A6+zr6XGumGDlibNbuTCxU90wciVYvIUMEWBlE0mY+3wt+g+qyt6WRaUeja1xtjBm9FoUivkXBFYYuucHbCmveF7cQW8eA1PURgjBjWNt6BinJ0T37OYv+g0fM0ywdpDmmF7XFCoQwOLjDbQ3FyDyWv6ooKrc+S9Fr8X2Ac3145Ep9+W4FaympiwfwWGVUkfzWPl7vbdsO5wN31qPrdWo1ODXuha5zWsr21Aq++zRRpYx6wgxlx+C2mUuMgTln5gmYXTczXyg6Kz1RJ52y7ExcaD4X70OC7deYYPX6XAnl1qZCtYDjWrF0M6Y/YeC7iIP2YdhlfB3ti/eypqm21C3dyjkGb1LWxoKHBz32IM6LsSNs1boYJBy2GDBqPHod3dwdh4ag66T7ZCl2oF4eTogOTWFlB9n21OAasUjkhhsJ6S0TknxttHaW0FuSo+6rDTxMiBXHkiG1u7ZGGCjgYpkdIK1lZSN0kfddhJauSJsaSAssLOTgoEGCQ3JkIBCiQYAQVs687AiWk1pZ+mOqi9nuHS1nkYv+waUtd0xZzFQ1A5TcyfxGjef9Q/SLGzTx741oLk4Xv6Dyw66wmznFZ4snwSxgUZaQQyWulw889pWP1bRfTMEoOfXQZoyxjy3hwvbZkEc62xoBSgQMwEzFB4zEl8HRX0NlFERyugMMITc5v6gzGz7b8YtOk0ZnWfDKsu1aW3BtMiRXL5jT7l9/aqwsoeaVMYb9imiGqdUNfH4BsuoVaR5aaAiQgoHVFj/G48GPwSL/wdpSfaZqgw7iBu1d2HPWeeQKQthBoNy0qNUMN/LK3KVUL5ZIdw6thjDM2dJ1Q3cxPxMUgxdNIkwAuw3sMf6YtmwOcr5+EePF3HXMhsdQnHZ83GyfYLUS1sF6cQpdB5nsVs1x4Yt+cZsraagePzeqNs8PedIyuzxg/+CitYBvvdYlegLUZ2WIndEw9hxylftGpphHH2vpVJHmMwvgfRVdplQfkmv0p/4UBpv+KLxhq2xnj7wP8ZHj/XoNjE3qidWRpHS3rtulwONVYeuQT/pnVQ8JdR2OT/CPn7T8DO5hvQ3N5QUScNHu3diH0en6Vfmm+xdVR7bA2n6vLr4g3XeGJve+Od/3CzNdJKlVNmZJIe+J568VIf3AveD1UrrXulUyBTJifj3HdUGZDFyQa6U9J9NXTmuld48dofCilvJ8PfVo2kyWQpQAFDCSiTZUD+QoW+9RQsghIVa6Nakc6o6ToajTzeYsv+6aiTNiY3B1+4/30J3sIG5csXh76fi+45NszYAg9FOhTN6IMr7iFaHXAskBlWl45j9owT6LCwZohxlyOup2HaMga5N8dzWyZiI26hAAUStIBSJT1wj58aaB8fxJr996Xxb7/gztYxaCv9hbdwVujwVCJeF5Nv04hT4RYKUCAKAWkA7umNUe9QBRw4OhT57YICGRbIUPoXuJaW2qb3F6BqhkYQk27i9G/OUaQXs80qx1ro3/8v9BhZGzWutkH9YtmlV1PNwwSeVJkroF21HDFL3JT2Vl/FonlH4W3fAPMObEV7x9C3OB8c6lYWDVasw+RV/VC5T64Ie1Gp721A50a9sPldLnRbcwbT/1cwmj8ItPBY0BRFBp5CxSU3sbezUzBnPzyXBgvWKVLC0THmPSViRh0fYwzKJQx1rYfTI1J/rRcdapRrXW9kbg+HZEr85+sb+PqtmTMK5UuBNxfP4q6mNgqbKeFQMB8yea2RelP6oXkZwz2N1Kql124/+0kKSWhxKIvKRVPg0MXjOOXzP9T/fn/zx7UTF/BGkVu6r2T73rvHsDIOqFilACwOXcLfp7zQpn6K78mrr53GmTca5G5fFdnCuQ4NWw6mRgEKmL6AJXJ3Xoot/71EnYnz0KpZahw/OhzFotl73OfCXIzecAfKLL+iV7N0+u929aXlmHfsJewbrMCB7R3hGPqHss8xdC/gguVrpmHlgCromz0ar90Zqi0Tq3uzqbRlTP+qYgkpQIGfE9B+uIvjh9xw/50vNPJY6N9etBI6LQL8ffDu0b+waiq9fVbX7ucyiOgorVpqq3vDT+pVzsVwAqF/dRsuZaZEgSQv4IVzi6dg/U1vKbgh8PHqNbySnpBP6vUUKcJ0kNLA+84JXPRToqI0DpyhF+3DjRg5eR/+kyYw+G/VNJxaFX4O8pOZhBtY1MFz+wKsuvMFWV17olmYoKJcZzvU+q0TSq8fjNOzZ+H4r0tRPTyKT39joEsvbPBIhgZj+qGm7SMc3f0o2J4KJMtZAVXzSxPDaP7FxglrcV2aSbrDqFbIL3XZz9KkNer8fgQ7x3TBtKxL0L+6NGmF1wMcXjgcfdY9QMqac9C7ojzynLGWuB5j0HSudb2oZWk0rJkRG5f8hjE5JsK1cWmULFcA5lu3Y+GedpgtNVDc1+zDHW1yNE0ZuwBvwOkRKFh3Dp4oymDqraP4bZwb1OOMdV5NNF1VdnQc3BxLmq9C/05F4LCgG8ql+op/NoxEt8XSa4cuy9CnuDG6psoeKuTo2BdtlrTCxv5dUTTlfHQtmwZf/tmMod0W4X6qhvizdwnj9JY00dPBYlGAApEJ2KHs6FWYd6MmuuyegDYDC+HsggZI9T0g6IcXl/Zhd0DgPUtIP0C/fHyFB5eOYNOmw3iSvDomrp+KOsmkhpzOE9tnrscdXVa49mkaNqgoF8OuKvq7lsO64ScxZ/rf6LS0jtQSiWwxYFsmJvdmk2zLRObEbRSgQEIW0N5dCZeqvXFAerNEaS51dpEmVtSZWcFcHsZGo5V+OVshXYFKcG0X+mnNT9Q64CwGFGyExU8CUHbaVfzdfziuqYf/REI8JDIBBhYj0+E2CsRKwB7Fy2fF/I3r8ESjg9+rz9B9fYk716Xx1UKnK491Z5UTLv1HYnj7TKG3xvrfqsJJ4AaquYNlc/bjnXkJ/NazUoSDpCvzdsBvjZeg5eaNmLz8N1RpE5pXh9ebF2HlfS/pyZkX/hrdFn+F3kUKU+QccBy3ZlWERcBD7FswF1vMpPH6hsmBRUDp1BJ/HjFHjlETMauuM8aqrKEM+Aphnwc1+67G9HFtkNeYE3vE+RiDpnOtB56qlGgyaylGdOqJmR37wOKKO8Z1GIbB65tiUvM8WKnfyQo5f/0THXLEbgIZITRQ+/tDHknw+0D+Ya6XxL5CiTQu07F3mQo9Ro1ExQxDYGmhkV4xSYvSbebhwLz2yGCAdmFEiso09TF/7xJY9BiNIRWcMMjSAtLbe0hbujUWHZqLthnY1InIjuspkCQFVFnRfsUyXLv/Cxb80Q2dip3Azs5ZAyl0H3FkfCsc0f9LGt9LaQZLOwekz5YXxTvNxtKBPVAtU+D3hvbfNZj711NYlJyAnpUiCheqkLdrLzSZ64ZN66dh2aDqGBA0+Vt4+AZry8iJx+DebIptmfB8uI4CFEgEAmqc+2MRDnvlQd/9OzGtthX+rFMCYx3n4MGGxlDfOIgFA37Dn7a/oHUFA7xVJHWF1Ehjfvv7qxGQdBvrRr9u2No2OjEzSMoCloVdsfmMq0SgxaOV0qQdZ4tj2fKuyBG7TlLRJ9V9wt0TB3D00iN4m6dG1nzlUKdWYUR3mMDoZxTzPS2brsBH3bdZa2J+eNgjzPJj1KV3GBV2S6g1KdFs431oNwau1r05G2q7Eul67IRvjygTCtzB2gUbP/rjW3LfD7LJ9wsm7/wFE/0+4NmjZ/BSpUb2nE5IFhfnPh7GGIz3az30WUxXFeMOSAMzv3gB/3RSzxNVWYw7dQX19uyF239apC1SDY2r5Ymi50g0rwGT3M0STTc+hi70hWm0stqiQMf5ONN+Gl4/fITXahtkyJYFjrZx08ywlcYvXXKmDWa+foRH0tNvuwxZkcXRzkivXxsNkQlTgAIGEFCVHItbAWMjTUmZsirm3fqIecH2qjz/OjTzIz0sxEZVwcHSmyaDoz4gZWNseOWHDaH2VGXvAzd1n5BrDdaWCUo2mvdmA7dlDN7Gi1qZe1CAAglGQA2PR2+gKNYPfWtng5VKg3Lls8N75TFc9G+OmoVcMG5zAO7m74exu5phY7NUCaZmSbmgcdPiT8rCrDsF9AIqOEvj+hzvHIxD542H507jygsdMpeoiJLODgZ9XU/n+TdGNumAme4vpHErvuWrUCFF3uaYsmE5XItE9HQ9iZ4yf2+8ef1GmmHWHo4pwvQp/WkUpVVKZM2fMvzj/bzwxusr/D/7B44FGP5eMV8bj2MMxse1/gNIh493T2H/0Yvw8DZDmqx5Ub5OLRQMCuZapEep5t1RKuaiUR8hbmJx0wrYHq2RDCxRccx+zKiXCD+DShuky1UQ6aIWM8IeStimy4lC8ZO5EerDJClAAQrEUCCitkws782RtmWiXUR/fHrzCX7+n6Hm0GbRVuOOFEh8AuZI4WADxXNf+OoHVpTeBCuUB7avL8Htrho1C1tCmSKfNFOzPzZdugs0K28gAi1uLWqBctui97aSRcVROD2jgYHyTvzJMLCY+M8xaxifAv5PsHfaaPy+7hBuF5yB/3Z11PeQ0nrsQt/mrvjj6hto5fupQrrB5m2M8auWoG9pQzyV8Yfb5EGYeSFAej13C+b0qYMcZm9wZedM9Bm0CgN7FUaV00ORlxMafLs6BLx3dUXWXUokb7UJXptaxMlV83Vvf+RstRqf9Q1sA45BF4djDH6Hirdr/VsJpLGujoxsjf/NPIF3PyLpUNnnRYup67DCtViEr8cb5GRLDwo8rl6AR7QSs4TjO1209uROFKAABShAgegJxE9bJnplk/b6egDdc7bE1s8B+kOi9Rwu2olzRwpQIOEIWKJCoypItekP9BvjjEmuv6BUyVIoZrEO2xbtQYdZDWDtvgF77/rAvrmDAaulg5fHNVyIXmMd5o5vDZh34k+KgcXEf45Zw/gS0L3A5o510W7LM2Su0QZ9WxQOnB1Y+wALOvfG0mv+KD98L5b1Kogvl3dg2oBxGNh8ADJfW4nGqWL50dQ8xAm3p1AU7IW5E5pLs+DKs8UkR+XuczDp3Ek02XwMxz0HIW/6WOYTX7YGzFeZtiP2e7WGNAymtCihNIu7pq510z/g6bMIgSEmJcwsDdVTMu7GGNSfivi81r9dC2q3Weg58zSUFYZg25w+qJ3DEq8u78K0vsOwZkAfFK56AkPzRO8J5U9dXqpsaDSkC8omj85ggmbIUcxQ5/qnSsuDKEABClAgEQnEZ1sm2ozWjbDO8xP+/PZcTWlmwAeq0S4Ed6QABUxBIGWTyVg7/C26z+qKXpYFcXFsa4wdvBmNJrVCzm8jZVnn7IA17XMZsLhmyNZooDTJXwppBN2oF1WOElHvxD2+CzCqwIuBAkYS0F77E1N2PEKmTttxaVkjpPwWbwhw/xOL3V7DrsY8rJvYEFnk9dJNbqXiEdybrMWirRPR2DVz7EolPuGTtwbInAZplcFvnRbI7pweKt07vPaURq9lYFFyVsHCygZGDDlFfC5VFrCyMU7OyjgcYzBer3W9rgb3TrjjGQpg2NzxaCa9QiEvyap0xcJJV3GgyWocPf4Gg/NkCgzuR3xGYrElAyp2G4JBWfm1GgtEHkoBClCAAj8lEI9tmWiXNyGUMdqV4Y4UoEBsBJSOqDF+Nx4MfokX/o7Sy9BmqDDuIG7V3Yc9Z55ApC2EGo2rI5dddEKA0S2IAhkqdcHQgTmM+HsgumVJfPvxF1DiO6eskYkIfLxyDfd1WdC9fc3vQUVAjUu7j8BDlwwN2rYIDCp+K69dyaLIo1qJJ/fl/tmxDSwK6HQ6CCmoGPJ2rICFhfyxl7ZzViwTuVIMWYz4GWMwXq91PZ9U70+fpavaAY5pQ86OY5k9KzKpdHj36q20lzEDi4Y8j0yLAhSgAAUoQAEKUIACiUtA9/E+Tuw/iksen2CeJgvyla+NWgWDQlIWyFD6F7iWTlx1Tiq1YWAxqZxp1jOOBXTQaDQQQiP9f7Cx1AKuY9e+B9DaVoVLvdQhyiTevsMHaaw922SJcEKHONZPktnF2xiDpnCtCwid9Cc9f1SEerCpsLDQT4rkL4wTSVelyovqDRvCU5EXOWyS5JXHSlOAAhSgAAUoQAEKUCASAR08j4xDk/9Nh/u7H5NWKlT2yNtiMjas6IkiNobsnRisKMqUKFi9Dhp5CuRzto2kjNwUGwEGFmOjx2MpEKGAEqmKF0F25SEc338JX6pVga3cq+rwOmx/+AUpGjVBfYfgY7H54MyqnbilS422JZ0jTDWmG8Tt9ejZ1j3YtCACX+7dhlb3FX+N7gAP+5DjwZkV6461gyrHNBvubwIC8TfGoGlc6/F1ClQFfsXyXb/GV/bMlwIUoAAFKEABClCAAqYtoD6HyT3n4oKyDIZtn40+tXLB7NVV7Jw6EIPWDkGvIpVxekgBaYAqIyxm+dB1+XZ0NULSTPKHAAOLvBooYCQB8xJdMarJZnSc9wvKPWqKyuk/4cy2PXhmWxLjhjdHGjmmp/XG0+tncfDPGRj3x1XYlJuC/rXtY18ihTXSOudAzufeuH3tWqj07JErlz0CHv+D0FssHN7FPm+mEA8C8TvGYLxe68G1xW2s7dkOZy1/PPEUXx7gkVaDgL/GoN1jh5BDA5gVheuKQahoYaQnpPFwJTBLClCAAhSgAAUoQAEKmJKA9p4b3J75o+Dw2ZjQtJj+bSIkq4Tui8bD/WBTbDpyAp6DCiB9dOZANKWKsSzfBRhY5MVAAWMJqJzwv3VHkKrMAqw/6oYjR71gX1aaTGLEOHQvGfjOpO7xKrQuOxDnFalQpMXvmD/3NxQyRJDDvDhGHr2OkTGqmxafP/vF6AjubCoC8TzGYHxe6/pToIB12kzIk9Mf3revhwmYp8olzSinfoLr156EPGEW9ngXbKQCUzmbLAcFKEABClCAAhSgAAUSi4Duoxe8hQKZHR1DTpxikRXZnawh3r2BpzSsUfoQk44mltonjXowsJg0zjNrGV8ClllQZ8BM6S/8AiizNcP8w2Vgl78I8jhahb+TUddq8OHOKezeth279h6Am9M4fNrN1zqNSm6UxONvjMHv1YnXa90CpUb+hVsxi6Qb5UwwUQpQgAIUoAAFKEABClDgh4AQOuiENBp62MHQYWEmvTmk1sE4o6HzLMSVAAOLcSXNfCgQnoCZE0pUdQpvixHXqfH21nHs2rYTu/YcwMkbL+EHc6TKXQ4Na+QzYr5MOkkLxMu1nqTFWXkKUIACFKAABShAAQpQgAJGF2Bg0ejEzIACpiDgj9fXjmCHPph4EG533kAtdUe3cq6OzpMmoHHjhqiSL03geBemUFyW4ecEOMbgz7nxKApQgAIUoAAFKEABClDAiAI63F7bG23PWP/IQ/ji3mNvaAP2YXS7J7APMey5OYq5LsWgisH2N2LpmHTsBBhYjJ0fj6aACQv448XFA9i+fSd27zmEsw/eQyTPghLVmmBUn/S4Mn4artYYhFkjagebNdqEq8OiRSLAMQYjweEmClCAAhSgAAUoQAEKUCCeBBTWaeCcJyeee91FmHlFU+VALgTg8fXQ04pawuE9X5COp1MW42wZWIwxGQ+gQAIQ0F7H5Er1Me78O9jnKI5K1Xph4ayG0qvOxZDeSh7H4hR6Tp2BqwmgKixidAQ4xmB0lLgPBShAAQpQgAIUoAAFKBC3AualBuPorcFxmylzi1MBTugdp9zMjAJxJKBT4/MnXwi79MiZOxeyZ86AtGlSIbkhZpyOoyowGwpQgAIUoAAFKEABClCAAhSgAAVMW4CBRdM+PywdBX5OwLwUpl25g0vrRqCW4wecXDQITcvmQNrMRVH312GYv/0K3gbofi5tHkUBClCAAhSgAAUoYBICp06dwrx588KUxdfXFwMGDICnp2eYbVxBAQpQgAIUMKQAA4uG1GRaFDAlAat0KNqoG8av2IvLz17h4ZktmPS/wgi4tAZD2g7E9ldf8f7kIoyavQGn7n+AxpTKzrJQgAIUoAAFKEABCkQqcPfuXTRs2BAbN26En5/f932FEOjatSvmz5+PK1euRJoGN1KAAhSgAAViK8DAYmwFeTwFEoKA0hZZyzVF/99X49it53h15wTWTuuH+mnuY8WwdqiSJz3S5amEVvPcE0JtWEYKUIACFKAABSiQpAXk4GGbNm1gZ2eHPXv2wMrK6rvHpk2b9MHG6dOno27duknaiZWnAAUoQAHjCzCwaHxj5kABExNQwSF3FbQbOgdb3e7i9X83sP+PUWiaW40rFx+YWFlZHApQgAIUoAAFKECB0AJubm7S7KrXMHLkSKRLly7E5rlz58LZ2Rn9+vULfRj/TQEKUIACFDC4AGeFNjgpE6RAwhKwTFsA9brKf6MTVsFZWgpQgAIUoAAFKJBEBf755x99zatUqRJGQN4m92ZUqVRhtnEFBShAAQpQwNAC7LFoaFGmRwEKUIACFKAABShAAQpQwIgC8ivQ8vLly5cwucjbwlsfZkeuoAAFKEABChhAgD0WDYDIJJK2gJeXF+S/uFzkmf7kxcfHJ87z/vz5sz7vr1+/xnneOl3gTNb+/v5xnndcnt/w8goICIBc/7i+1uSyBA0IHx95x+e1Hh/1De/cy+WwsLAIb5PR1snXmnzNxYdBfF3rcr5By4cPHyD/GWNRKBTGSFafJtMOS5tQTXg+w55LmoQ0yZcvn37FxYsXUapUqRAbCxcujPPnz+Pjx49GvS+Ef5a4lgIUSGoCQe11b29vfPr0KU6rH9f5xWnlElBmCmngX5GAysuiUsBkBMzNzaHRcC5lkzkhLAgFjCSQPXt2PHr0yEiph5/s2LFjMWHChPA3ci0FKEABClBAEjAzM0O9evX0k7cEX6ZOnYoRI0bQiAIUoECSEZAfqFy/fj3J1NfUKsoei6Z2RlieBCMQ1AtC7klkzB4RCQaEBaVAIhMI6rWnVqvjvGZyr1x5kcfHkn84cjG+gPycNehcy+aG7iVqzOe4TDv864MuYV0SqolcE2OWPaxUwlhjb28Pd3d3vU3wtmilSpX0FZAfgnOcxYRxLllKClDg5wTkjj7yn1ar/bkEeJRBBNhj0SCMTCQpCgwZMgQzZsyA3PXb2to6KRKwzhRI1AJHjx5FrVq1sHv3bri4uMRpXT09PZE2bVp9r8XRozmxUpziMzMKUIACBhQwZkBU7t0+ceJEvHnzBo6Ojt9LLQ9bkzx5cgwePBjTp083YG2YFAUoQAHTElixYgW6du2Ka9euoUiRIqZVuCRUGk7ekoRONqtKAQpQgAIUoAAFKEABCsSdgNyT0Fh/cvBQXkKPh2tlZaXvqRh6fdzVmjlRgAIUoEBSEmBgMSmdbdaVAhSgAAUoQAEKUIACFEgUApcuXdL3TJTHAg6+yOOMya8FFi1aNFHUk5WgAAUoQAHTFmBg0bTPD0tHAQpQgAIUoAAFKEABClAghMC5c+f0Q3U0bNgwxDiK8lhj8sQt8jA98nAeXChAAQpQgALGFuCI8MYWZvoUoAAFKEABClCAAhSgAAUMJODh4YEmTZogV65cWLJkyfdU5fEc+/Xrh2PHjmHr1q1hejIaKHsmQwEKUIACFAghwB6LvCAoQAEKUIACFKAABShAAQokAIH379+jYsWKsLS0xN69e5EsWbLvpR4zZgwWL16M33//Hc2bN08AtWERKUABClAgMQiwx2JiOIusAwUoQAEKUIACFKAABSiQ6AVSpUqF5cuXI3/+/MicOXOI+sq9FeVZUZs2bZroHVhBClCAAhQwHQEGFk3nXLAkFKAABShAAQpQgAIUoAAFIhWoW7duuNtTp07NoGK4MlxJAQpQgALGFOCr0MbUZdoUoAAFKEABClCAAhSgAAUoQAEKUIACFEikAgwsJtITy2pRgAIUoAAFKEABClCAAhSgAAUoQAEKUMCYAgwsGlOXaVOAAhSgAAUoQAEKUIACFKAABShAAQpQIJEKMLCYSE8sq0UBClCAAhSgAAUoQAEKUIACFKAABShAAWMKMLBoTF2mTQEKUIACCVZAp9PFe9lNoQzxjsACUIACFKAABShAAQpQIBwBtpXDQYmHVQwsxgM6s0wcAhkyZNBXZMiQIQgICEgclWItKEABvcC7d+8wceJEqFQqODo6xrmKlZUVHBwcsHz5cty8eTPO82eGFKAABShAAQpQgAIUMGUBDw8PzDUhZ8UAACAASURBVJkzB9bW1kiRIoUpFzXRl42BxUR/illBYwn069cP8+fPx5IlS1C7dm28ffvWWFkxXQpQIA4Frl+/jhIlSuDu3bs4evQoypYtG4e5B2aVPHlyXLp0CSlTptTnv2PHjjgvAzOkAAUoQAEKUIACFKCAKQr8/fff+va6n58f3N3dkTVrVlMsZpIpEwOLSeZUs6KGFlAoFOjTpw+OHTum71FUsmRJXLt2zdDZMD0KUCAOBTZv3oxy5crpewtevnwZVatWjcPcQ2bl7OyMc+fOoW7dumjWrBlGjRoFvu4Rb6eDGVOAAhSgAAUoQAEKxLOAEAKzZ89GrVq1UKxYMX17vXDhwvFcKmbPwCKvAQrEUqBKlSr6G5rcs6h8+fLYtGlTLFPk4RSgQFwLaLVa/bAGrVu3RuPGjXH27FmTePJpZ2eHrVu3YsqUKfq/Ro0a4dOnT3HNw/woQAEKUIACFKAABSgQrwK+vr5o27YtBg4cqP87ePAgUqVKFa9lYuaBAgop4iuIQQEKxF5AvtF169YNGzZswKBBgzB16lSYmZnFPmGmQAEKGFXgw4cP+oCi3Pv4999/1zdU5B7JprYcOHAAbdq0Qdq0abF7927kzZvX1IrI8lCAAhSgAAUoQAEKUMDgAk+ePEGTJk1w7949rFq1Cq1atTJ4Hkzw5wXYY/Hn7XgkBUII2NjYYN26dZg1a5a+e3a9evUgByy4UIACpisQNIyBPJ6h/NRTfihgikFFWVC+p8jllCeUKV26NPbu3Wu6sCwZBShAAQpQgAIUoAAFDCBw/Phx/XiK8ls78jBBDCoaANXASbDHooFBmRwFZAG551PLli1hb2+vn9U1W7ZshEkAAvLsv/Krp7FZ5El8Pn/+HJskeGwcCZw6dUo/Tmr27Nmxa9cuyGMaJoTF29sbHTp00PdaHD58ODp16gSlks8JE8K5YxkpQAHTFpBnFZWHtonN4uXlhffv38cmCR5LAQpQgAKSgPxy7ZYtWzB69Gj9uOfyf/PVZ9O8NBhYNM3zwlIlAgEPDw/9WG03btxIBLVJGlXIkiWLPlhTpEiRn6qw/GX366+/4uvXrz91PA+KewF5UpQ///wz1gHluC65PInLpEmTMHbs2LjOmvlRgAIUSLQCcmBRnsSrdu3aP1VHNzc3/WRbnp6eP3U8D6IABShAgbAC8jBF06ZN4zBjYWlMZg0DiyZzKliQxCggB5hevXqVGKuW6Or05s0b9OzZ86fG7ZAn/hg5cqR+fL4WLVrogz1WVlaJzigxVkjuTWyqrz5Hx/vFixfw9/ePzq7chwIUoAAFIhGQ3zYYOnQojh49qp8sS57QKybfD0uXLtX3gi9Tpgzmzp0LBweHSHLjJgpQgAIUiI6Aubk5MmXKFJ1duU88CjCwGI/4zJoCFDAtAXkCni5duuhn9h48eLB+Ah55PLvIFnmsD3lCjUOHDun3j+kPkcjS5jYKUIACFKAABeJOQH5QOGrUKH3PGPlBoTxBgK2tbaQFUKvV+oDismXL4Orqqg8qWlhYRHoMN1KAAhSgAAUSkwADi4npbLIuFKBArAXksTzkCXjkXgs1atTQBxkjGm/p9u3b+tfd5XEV5f3q1KkT6/yZAAUoQAEKUIAC8SuwdetW/dAmOXLk0A+REtFY2a9fv0bTpk31E2stWrQIXbt2jd+CM3cKUIACFKBAPAhwtPd4QGeWFKCA6QrIrz3JMwPLMwTLPxRKliwJeebg0MuePXv0rzvJ3fMvXrzIoGJoIP6bAhSgAAUokEAF5N6K7u7u+snY5JlI5Un5Qi/yd7+87fHjxzh58iSDiqGB+G8KUIACFEgyAgwsJplTzYpSgAIxEahVq5Y+sGhjY4OyZcti+/bt+sPlSTPGjx+v76lYrVo1nD9/Hjlz5oxJ0tyXAhSgAAUoQAETFyhUqJC+HVC0aFH9ZC6zZ8/Wz1AqL2vWrEGlSpWQMWNGXL58GeXKlTPx2rB4FKAABShAAeMJ8FVo49kyZQpQIBEI+Pj46F+HkgOL8hhKT58+xd69ezFu3DiMHj0aSiWfzySC08wqUIACFKAABcIV0Gg0GDZsmH6YlJYtWyJ58uRYvnw5OnbsiCVLlnCytnDVuJICFKAABZKSAAOLSelss64UoMBPCcg9FOSB3EeMGKE/Xh5vycXF5afS4kEUoAAFKEABCiQ8gQ0bNqBt27b6gs+fPx+9e/eO0azRCa/GLDEFKEABClAgegIMLEbPiXtRgAIU0M/8nDlzZuTLl48aFKAABShAAQokMYGrV6/C29sbVapUSWI1Z3UpQAEKUIACEQswsBixDbdQgAIUoAAFKEABClCAAhSgAAUoQAEKUIACEQhwcLAIYLiaAhSgAAUoQAEKUIACFKAABShAAQpQgAIUiFiAgcWIbbiFAhSgAAUoQAEKUIACFKAABShAAQpQgAIUiECAgcUIYLiaAhSgAAUoQAEKUIACFKAABShAAQpQgAIUiFiAgcWIbbiFAhSgAAUoQAEKUIACFKAABShAAQpQgAIUiECAgcUIYLiaAhSgAAUoQAEKUIACFKAABShAAQpQgAIUiFiAgcWIbbiFAhSgAAUoQAEKUIACFKAABShAAQpQgAIUiECAgcUIYLiaAhSgAAUoQAEKUIACFKAABShAAQpQgAIUiFjALOJNcbhFcwebJq7GVV8gdcVuGNTIGarwstc+xI4pK3DeWwuo0qN6376okyH8Kmhvb8fE1RfwRZkJdQf0RLUUN7F67Cb8q7NHma5D0DSHeXg5mMi6r7i4YjK23QvQewyVPKK7qC+vw9gtN6BLURpdhjVFTpUiuoea7H5fL67BhG23oEtVHj0GN0a2cC8Oky0+CxaHAtqbWzFh3SX4yp/7gdLnPk3494fAImnxYMcMrDj/HnCshN8HN4zDkobNSvfFB362drAJu4lrKEABClCAAklSQPfhDJZO3wsPrYhZ/ZUpEkB7P2ZVYjshZl7cmwIUoAAF4k4gsl/dcVcKpQO8L6zHrMOvYHHRES0aDES2cPpSBlxZjzETpuO2RmpcKKxwPnV91ByUO5wgpBpX18/C5BnngRz90XiCFIlS38WuObOxNyAjutfsb+KBRT/c2LESMw+9Qw5t/ZgFFv89gDkzN0OTqZtkIwcW4+40Gisn/5v7pDpthzaHGg0GuEiBxYQfLDWWVVJPV/PwKBbMWoGPilJw6NRDCixGJqLB02PSfWfpv1DkQbwFFnXvr2HjrKmYscMOE/5ZCRcrXt+RnTVuowAFKECBpCMgvK5j8+xZcAvQxazSyswJoL0fvSqxnRA9J+5FAQpQgALxJ2AigUVHNGxcGgOP7ILvpb9x9G0/dEsbumhqXN62D/c1KjgXzIXXt+7g4vYdePDbcOQJHWjSPMCBw/eggRlyuTRFSQv5h3oeNPltAHLJPRazWsSfuJFztshfD78NctL3WMwSmtDIeTN5ClAg5gIBpxej7+/b4OXQDjHsjxHzzHgEBShAAQpQIAEJqDI0x9KzJfE5VFxR92QDOrVdiLs6BzSavRMjyliFrJXCEmlzh1qXgOodvKhsJyTQE8diU4ACFEhCAiYSelIiXYP6KDfwLxz1c8fR45/QrXXqkKdBfRlbd9+HxiwvWsz5DXeb9cDuKzux9c4gjCkQMlCoe3QEh296S69L54JLs+LQb7Uoio5Tiyb6U2tRoh2mlkj01WQFKUABClCAAhSgAAUSu4BlWuQrmTZMLbW2J2CjkDsOWCClc3GULm0XZh+uoAAFKEABClAgbgRMJLAIKDPUhkvZ1Dj2tyfcDrvBt3WTEGONqc/uwh4PH5jna4jmFV1wp/oE7Nl5Azu33sSIAsWlvolBixbPDh7DNY0WZnkaoGmJb08r1VewctQG3NLao1z3EWieK3CMxa/nV2HMlltQFf4fxtXxw4opC7Dv9ifYZCqIKm1d0bN69m9p++Pl2Z1Yt/s4Lt95hve+OlindELektXxS7tmKJfhJ56K+v6HMzvWY8uRK3j86iO0yTIiX/mG6NC5Svhn/+slLB+zCXdUBdFuXD34LP8dC/bfgLeNEwpV+R9ce9ZAxqtrMGrTP9CmKItuo5ojx/2dmLjiDLwU0phzg/uiVpieoHJW3ji7ZCp23FcjZcUeGPVLzh/5+7/EuW0bsOvEJdz57x18hTVSZsqDkjV+Qbum5ZDBMuRrm+qLq6X8bwAFW2FSh2z4Z8tqbDx8HvdefITaIgUy5yuDWq3ao1mJdMHOWfjVDXft12c4vmolNh67gideSjg650W+QmXQoFUjFEkZdBXo8PrQAsw8/ATCvgy6jm4RtlernLj6NjZOXIlLX2xQotMo/K+AJfDpHBZP3o4HGiUy1u6PQXWcwi0GVyYNAZ3XAxzbugX73K7hwYsP8FfZIqVTLhSv3AhtmldGFptwXlv2eYgjGzdir9t1PJSve5U17B2zoECpqmjY0gWl0knXmbxo7mLzhBU4d+MivkpdFYXvVawZMgCnLNKjhtS7un5Gk7k9J42TzVpSgAIUoECiE/B9egY7tx3G2eu38Z/nR/gEKGGdPDUy5SmGSi4t0axcFgRvwUf/d8FXPD+7B2u3HsLVxy/xwc8CaZyLoXrLX9G+9FusHbsZd5EPs2d0CWPq/+I8tq3fhROXpTK9/wJh7YBMeUuietO2aFbWCd9aCWwnhJHjCgpQgAIUMFkBYTKLVjyd30BYKyBUWVzFcT9dsJL5isPdCwiVwlwUGXNFBEhbPm7qIFIqIczzDxUXA4Ltq30pFtdMLxQwF/mGu+v31S+fN4pGlioBZWbR/ajP97Q/rmgmLKEQ1jW6ii557aXj9G8jCiisRdlpN4VG2lP7/ryY3aSAkGIIQqGyEWmcC4rS5UuLgplSCDNpndI2t2i58Lz49D3VqP/D558/Rbt8KYVSyltpYS8y5y8miuRMK2zNFMLCqbKoksdGKoeZyPHbqR+JfVwr6kl1UNhUF907FxbSUGyBZZXLX3aKuK3Ric+rW0n1kQwzdRNHZcMvp0RvZzupPhai6LhAu9Cl0zxaLKramgmFWV4x6NyXb5u14sO5+eKXnLKJQqhsUgvnQqVE+dKFRKbk5tI6pbDL3UIsvPQhRHKB+Ut1qNxVDCifUfIxE7apM4tceXKItHIeUtkUZmlE5alnRVBOocsT+t+B50iqU5piolJ+yUxpJVJlKyRKFc8rMia30JfPLHUZMXDvU6H9drDm31mijFXg+e5y4GPoJPX/fr+1k0grXUMqp1/FPu/Aa0j731JRzUIpuZpLXtfCPY4rTVfAb2cX4SCdU6hKicn3/KMoqJ842iO/kIYhFWZ5BoXaN0A82TVMVEhvFXj9W6cUWQsWF8XzZhIpLJX6dVZZ6ogJx158v+bkBNR31oiWzsmFQqEUVmlyiuLlKomKZYoK51SW+mtfaVdAdNn6WH9fEf6nxZCSuUS2dMmle5v8uUgm0mfLJrLlqC1m3PSLouzcTAEKUIACFEi6ApqbU0Uxc6m9pkwnOv71OSyE1lOcGF9fZJTbdNLvB4esBUTJchVEuZKFRFYHue0otRWUyUTBPrvFm6DGo5RKdH4XiC+3xepfS4jkUntDIbWvUzjlFcWL5hYZkknpKu1E3ib1RQFzuX3vErJc2g/i3OxWIqeNXCaVsEmTXRQqXV6ULphZJJfa/1Daitwt54uLn779rmE7Iex55RoKUIACFDBJAZhSqbRPlohq1mYCZvnF0AvBflh/OSK6ZLSRfngXFWNvfFv/cadoJf1YhyqPFAzz/V4Nred60TCZuZRGQTHiUrA0oggsKhRSoCDHL2LaHnfx740zYteqreL8R+mLPeCuWFAzsxQAVIpkRX4VS869/BGs1H4Ul5f3EEXspYCZKr1wWfUgMGAQBar2wxHRM1cyqTFiLjLVHS8OP/v6/YhP19eKbsUdpfzkoGEEgUWprArLHKLptF3iwr83hNuuP8W28+/1aYQJLEolujerrrCVA7aZOosDn4MHbOUj/MSZgSWkAKBCJK+1QEiz7ukXze2lolZqyVFqdBXptEicfa0O3CD9r/bDVbG8U2lhr5QCjulcxCqPH9uC8pdm1xHWOZuIaQcefA8gaj/eFKvbFxZSJ0ehsK0lFr/4Hvb9nnZ4/xEUWJTTtMhST0w87CG+h4w+3hCru5SRyiIFbewr/QjIaN+KzS2c9ecteb2l4kWwRmNgBe+LGRUcpXNgKYpPuPrjnH46L5aPGi6GDRsp5ktBIy4JS+BHYDGDqNSpr+jfv38kf31F8yKp9J+10IFFr+PDRD4pgAilgyjRfZm49F4fCtQvAa/Oivn/KyaSyddc8tJiwsVvDyq0b8SaxvK9wkxka7dRPPEP9ln7+lTs6lFS/zBA5dRFHPzyY1tQmZWp2oldX0N/PhOWP0tLAQpQgAIUiAuByAOLWvF2exeRQSW1l20Kih7bH0it3WCL/3NxaHAlkUz/UC/Ybwtpl6DAYoS/C8RHcbRvCaktqxDmTrXEuP2PfqTt80DsGllPZJQDnvLDxBCBxQBxe4GLSC23HZIVEZ2WuInX35vBWvHx8irRuUgaoZQCjuldlovHP5odgu2EuLiimAcFKEABCsRGwKQCi0LzRMypLAd7zEWJiTe+B+l89rpKjQOlMCs+TtySeuUFLp/EttZy4EgKvvU78T3Q9GFDW5FC7slYcIS4GrwnY6SBRfmpZWYRXs+2T1LDxFEfQKghFjz+EUD7ga4Rd2fU/t7T8u8QPS3DOzUa4TEvqGdmF3Eg6KlksF21T/8U9aWnqREFFqXBI0WmLn+JcJ7PhhNYlBL++Jdon8FaqqO9qL/iR68+OUut5zbRPI0UoFVmFd0OB/W5/CS2t8mhD8rZ15gnHgVr3HwvpuZbYE4qS5aeR743qr4HFlU5RO/j3mEAtC+XixqWUvBYlVF0Ofij52iYHYOtCAosyj0qB7h5hd1V80jMqZJOevosNcY67hJBqfqfHyvyS407hXlRMeZayB5gvieGiBzS02FlysZizY+WXdi0uSZBCXwPLOoD89H/CxFYlK6nmRWl+5B0/Ts2WytehQ5KyyKax2JhjYz6HsfJpMD1S3mfgNtiQnEHfc+IgoNOhenBrH1/UWxYsEys2+kmHjOwmKCuKxaWAhSgAAVMSyDywKK/uLF6qPi1ZRPRfOLf4baXxds1oq6V1B5VphHtd/9oUX9/mB3B7wLtnTminPxGjCqn6HU8vHeVvMQx1yJCGswkZGDx0x7xP0e5vW0vaiy8H25HBO3deaKitfy2TVbR8+8fbWQGFk3r2mNpKEABClAgrIBpDeKlcoKLS3EMP30IN48dxX8jCiKr0gdHtx3Da50Ziv/yS7Cx8uxRq1k1pN6yHE/278bF6ZVRweILTux3h7cwR6EmTVFQek85uovSrjRqVLIPtbs/zh48g3fSTHTKbM5Icesw9v0bNkWdbQZIT0Xx6PlJHLrmh2plrMPuFLRG9x6H91+Gn/QCZrqajVHNPmwZlZmboE2VsTiw62X46SiToWzNioj2MNUp6uC3riWk8dzO4NjiVbjVYSwK6W20uP/nMux79//27gQuqmqPA/hv5rIvYhqrgoKoPGVJzT01cXkuCe7mhvY0QXOJlpe9FlteTyvLfFquuWTSU7PFShMUSBHEFEWfC5oLCoKoaCIIAzPnnQGfAjOgpjRM/c7n4+cjd+6959zvmTtz7n/OooFth0l4tkedsvyKkvFjXCZ0UNC4qRMOb/keRwxKooN9IxcoCTnIjI3Gfk1PdChdfbssqR3aoJuRibTV9dzgZi8Hn169gRv6ieXuIVn4hWJkB0fDI5TGGDywDV6K/wEXd2zHXk0ousmyWLWdiOk9PkXEjwexYmE0Xlw+oMxMl4MN89fhlFaBz9jpGG503knDbLjFjAQsAjB94zKEVTtPYQn2vSvnJt1wssKF6S7vQMzPufKJwBl9wwbBTXZpNEiKN0aFdcPL26NwfUcM4m5Mwij7Jggd9ijm7o/BoQ96oenmTujauT3atWuHTl26ol3zthg1ta3BqbiBAhSgAAUoQIEHKWCFgHFzsGJcuXNqC5CTcRbnzp7BqRNpOJyyFce0+qWmSyCnZTdIxp8LdLgY/xP2Fcl53H36YHjnm+3mCkfXQddRfeG9LBXlWxdFu2IQe6lIPlA0R1Ono9jyfZpBntBZoZGcs33nyQzEbj0ABHc23IdbKEABClCAArVQoHYFFmUgyyu0H9q+HI2EPdsQc2k6nrbejg0/npXjB1th0JDmco/bqU7vEPRxXoPPTkdjU0ohHgvchc0yICYUf4QMaXlPi4Oo67vArWw9l3I55CMz86oMsAG61CUYG7Kk+ipUX0DmeSOtk/JHifPIyC7Ud5GEW8MGFa7n9m62aOzjLF+rIrCoqgcX14orYVdfMAsERkSg/4JkfH1gFRbGRmJpbxlELdiFj5cm4YbKFSMjJ+AvMjhamvKzkJmrkf/RInXReIQsqv7s6uxMZOqRyiWVoxOcylfWrdcUKKX5CNlbtvrzVn5VuDWAl9FgsRrOHi6Q83Pi2sULyC6RR+p51A0x+vlhmBPzEdI3LMLaN/siXAaatIelwZYMOVn2Y5gy7bEKk3ZXzpN/m6mAXGTI1a8V2jSr7j4pwpX6Nqgc2hdZWbiglfex2gONGhl8KNwCsfdqCGe1CnmFOci+LPe3t0Lgi1GIrvsOXp8fhfij8dh4RP5bJg9RWcDBwx+de4fiqcjpGBZQT34CMFGAAhSgAAUoUDMCJchOXIsFi6KwZdcBHM+4iIJi2fbUZya/kx09XOWYp6obosafC3TIyMyBTn+Ys3tppwJjSd3AA25yxerygcX8zCzklj5QHMSisaGovmmtRnZGFc8AxjLkNgpQgAIUoICJBWpZYFEO8m3UDwMefQsJScnYHp+H4fgWWy9rYNlhIIb6VnrId+iOIX288PlquQrr5iOYlb8VMTkaWASFYGiL6gIKRtQVxciDvhWsrRQZeFDDacD7+O6Vzqg6zCDPqVJQ37ea3oql2drBzkYfUhC4kV9QGrQ0lkqKtWWNH2MvypCjco9RCbXbEESO+xDffbQf6xasx5s9J0C1fjHWns6Hlf80PBfqfDsnK2tYyYCJnF8OT3zwNV7tWP2K1yqlHnzL9VYsPZE83Hhzy+gF3d3G63n4VSvgYqQhp5GW+lCo2sERjuUCmvbdJ2Nyh7V4KXE7lixNxYQ3/RDz79VIkT8au42diqeaVFujd1cu7vWHElDZ2sBW/+4VN1AgV3+vKonr+XKVdDnyWWUDO9ubN6T6YbQPn4et4XNx9VQKEnYm4ue9e7EneTd2H0jF1pUHZA/sTUjdHI9/dTHW06Gq3LidAhSgAAUoQIG7EyhB2tKx6DF1PTJLrOHZ4a94clAAmjfxgbe3L/z8A/GX+jEY4TISG2/Ir3tj8UWjzwUqONiVtYlVedcglwaUxTHS2r12DdcqteKtrK1Q2rR2egIffPcKOloaOe7WxcnJfeo3ubtL5V4UoAAFKECBWiBQ6wKLMrKI0JBH8GpiLHbFxSE6f6f84rZGJzkM2scgoGSPHkN7wu3zxTiaIIch58XjvE5B0MDBaGG0Z9u9itvAP7ARLDZl4vovWbBo1Q7tKwfQ5Cl153djw7azsGvoA3frO0T85PW1DnKDsucKzuxJluXtJId7VyqXNgspqeerDDre61WU7S8Npz2NrsumIi56JVYfawftJ9G4Cif0nxGB1uWvy9YPAb4O+PZQHk5mWaBV+/alHQArJh2ydm1ETKY1GjZxw50uu/LRv+Vv3enDOHgdcghJ5aPzkZhwCBo5K55lQGu0Lt9YU5piwrMh+DBpOQ59vgoJEV2w6uuT0Fn6y+0DULfyqfj3n15A7dkSLZ1tkJR1BkkJZ6HtULGndBmQBqkJ+0qnSVB8WsBfP6VB/jnsT96PY+kCLYaHIMinLZ7Q/7s5FKvwzCZM7zMGy9NS8emnsXi9y0D2lv3Tv9sIQAEKUIACD1ygIBqzX/tGBhUVtHj2ByR+2F22dism3dHTOKuRow2EDlpd1T8iVjxKgXfHNmioxOHMiQTEp5egrcEP1FqkxybgeIkMOpb77drWvwXk3N44lHcK5y2C0L69kY4IumwkbohBhp0HmrhbP3AWnpACFKAABShQUwKVQ1o1lc89nFeBrxwO3UZ+GWfHzsP8GDkM2qodBg32Njps2D44FP3cbFCS8gXe/zENWvllPXCIn9F976EQN3e1wCNjRqKTowVK0pbhxTm7ZCCuUtKcxpppYRg9bgQGhX2MVP0w3GqTNYLDx+AROzWKEv6Nf6w7WdrT7nbSIuPbOViYeKmaHovVZlDli4r3SEQObwp18V6siHwRK/fnQvEejeef9KzYW1MJwJjxHeGokr/4LpmJ2UmXDc6pOfUFpo0Iw7gRgxH28X45Q03NJ13OJsydvxsytlgu6XBl51zMWi/rXnHDoImDIRfbqZDqhU7BRP+60KZ/ibkzFmFLbjHq/HUKJj9irNGmhaawQPZUK0RRyd02NGv+2pnD7yhg2wXjR/vL54FC7J73ElYcrfiO05fk1z3zMXPpPpTI3oqBo8eUzi+qy0/A20OGYdTEcYhc+l/ITrEVko1nEFq628ltKtjaO9zu42BtA/07URTJeUfvMJPC76jArChAAQpQgAJmKaC7dh6ZV/UtUwXuTXxhMDu35gyi3liOlNJ2XjGKi+/+Mq26TMAznd0ATSLmRszBzgvlW8AluLDzA0TM2Y7K04grQSMwvqMrVNpjWPr3d5F0tXI3SQ1OrXkBw0ePw4hB4/FxarlWBNsJd19B3JMCFKAABUwiUPt6LEoGta8cDt3qn9idnIBd+ofwbgMxuKq5zuy6YEjfxli5fB+Sf5U91toNxJDmD254q7r5JCxdsBd9w9cg4Y1e8I8djUnDusDfqy6KMg4g+rNPsTb5HHT2AZiy+B30N7IYS+Wa4aOgJgAACa5JREFUtWzzHFa/tw+9Ir/Gf8La4fiPU/C33q3gjgtIjVmLRVFycRdbS6jkcOgHm+qgb+RTaL32ZfwcHSPjG/boNnUauthVHo6hoPnU+Viw5yzC1yfgzeAgxI2diGGPBcDLqRgZKTH4bFkUkrOK4BAwGYtnP2HwS/CDLXfZ2dQyJnPo7b7oeFAObx7aQf5ifAlHd3yJRcujka6xQ+DUxZg3xN1wSLtlECbP6I2FT6/HDxuy9V3MMPnZkfAwElbXZSxH3yZTEKtR0OqNPUiZ9UhNXArPWasFbNH5tUX414EheHnbJkS0fxSbwyegf9umqF+cjaOJ32LpCvmeK1Lg0U9ODj+zTdl8ri6D8frM1Yj7x1bEv9QHPY9OxrheQfCsoyA/Ow0J65dh6U85UDxC8Nrz3UqDifpk0dAD7rI3dnb+D5g17Gkk+zVEp4hXMLzZg/scq9XcLBwFKEABClDgAQqonR9HaFdXxG47j/i3hmNyoZzbuKMP7ItzkZ66A1+tXIFvTqjgIicDz5IByNxLV+QooTqG7UdjZVKaY8bKeTjYLwJrts1Cj4AN6NGzI/xc5Pf4kSTExP0XxXUfgrXqMjTlm9dyBM20ZXPxc9/JWLfzLQT7x2HMpGHo4t8ITkWZSNm6FsuiEpGls4P/Mwsxu3/9W7mznWCsIriNAhSgAAVqlYDhQtG1YUuJOPJOdyFHtMoJzGxF8IKTQltNsQq2zhCeikruayU6zD4sSoztmxclQqwVuWaKlwiPuX5rjyvLh8qB1hAWvtPFjiKdsSPlNq24mLhcTO8XJJzlOfSzr8lKlP9UQmXjIgJDnhOrUi5XW0bDExeLs1veF2M6+wgHtSz7zfNZ1m0uBrz2pfg8vKVcN9pC+Eb+dPvQK5+JfvprUJqKGTvk7G5GUt6qJ0uvR/GcJGIKjVyP9oJYO9RHyJiaUDzCxDdXjOzz//NqL4qkxZGin7+bsL5VRn2dqISNa6AIeX6F2HelovYd8y/cLMY528h6eEiM2phn5AoMN/2/jix7vStiPokQHRs4CDlPTamZysJOuLbsI55duVdcNTz09pb8HWKar2Npndl2mi2OlBi/bu25xSLYSq0fvyJavbG/ujPytVooUPjVRPGQWr43lHbinbSiO5SwUMRE6O8zef/7vWC4b9E5EfN+uOjetH7ZZ9HN+16l2IsGbQaIaQvjxXmDD5tfxf6VL4i+LeU9I++Tsvu67LPC0qmRaD/sVbExLb9iXtoM8c2M7sLdRl322SI/8/osyzYsD7dQgAIUoAAFKFAqUHJotmhtKdtrajcx/jvD9qT2wi7x4ZjOwsO2Yrvdsq6v6PnMAhGXfkVsmxIg2wAqUafXAnH65oPG3T0XyCeD3FQR9fp4ERzYSNSztxKW1k6iQcvHRdhbX4qD6yYJZ9kWUTuHGdSWNidZLJkWIvydbW+1ZUvbsyob4Ro4QDy/6mdxpfJDD9sJBo7cQAEKUIACtUtApS9OrYp01vbCFF7EyePpyMnTQHF0gXczHziXLsbyW5MOBTnpOJWejXwrZ/j6NUF968o9CH/ruR/ccYU5p3A8/QLyihU4ujZGM28X3Ndl30/RdPk4f+wYzhXYwsuvGdwd7qLjrWYvZrbqiffS7DBy3QGsHeJyPyXgsX8qAS3yMk/gl4xcFFk/BHfPxvCsb3uHng36+/oMTsp75pq8ZxzquaGxrxecqnmr6gouISMrF8VW9eDu8TDsjK6q/qeC58VSgAIUoAAF7ktAV5CDX46fxsV8wP7hhvD1bQCH+/l+1eYjV46QcqpnV+W0S5eWD4XXpI0obv4Cio++X0X5i5Bz8jjSc66hWHGEq3dTeDtX37ZgO6EKSm6mAAUoQAGTCzCwaPIqYAFqXkCHjNVj0fpvXyCv9SzsTnodQQ9kcZ+aLzlzoAAFKEABClCAAhSoJQK/rsOgBmH4Qd0Mz3yzC/OC61QsWOERvNc7GDN3XoJnxGakL+pdSwrOYlCAAhSgAAVqTqCa/jM1lynPTIGaF9Bg36rZ2JShguZMIjb8JwaXLPwwbc4MBhVrHp85UIACFKAABShAgT+egGN3jB7og++jDuPjMf1RIBdwDG7phYftSnDplxRsXbUEa/bkwMJjAF6NfPyPd/28IgpQgAIUoIARAfZYNILCTX8EAQ2SXuyErnPlyr1yASCLukEI+2gNPhnnf2vRjD/CVfIaKEABClCAAhSgAAV+R4GCE/hq9mt459PvcSA7H7pbk0qpoDh4ov2gcLz69nPo28jmdywUs6IABShAAQqYToCBRdPZM+caFtBdz8Ch/Wm4pHoYfq380cD+fibVqeHC8vQUoAAFKEABClCAAuYjoLuBCycOIy3jMm6o7FHP2QM+zbxr5Vzp5oPKklKAAhSggDkKMLBojrXGMlOAAhSgAAUoQAEKUIACFKAABShAAQpQwMQC97OcsYmLzuwpQAEKUIACFKAABShAAQpQgAIUoAAFKEABUwkwsGgqeeZLAQpQgAIUoAAFKEABClCAAhSgAAUoQAEzFmBg0Ywrj0WnAAUoQAEKUIACFKAABShAAQpQgAIUoICpBBhYNJU886UABShAAQpQgAIUoAAFKEABClCAAhSggBkLMLBoxpXHolOAAhSgAAUoQAEKUIACFKAABShAAQpQwFQCDCyaSp75UoACFKAABShAAQpQgAIUoAAFKEABClDAjAUYWDTjymPRKUABClCAAhSgAAUoQAEKUIACFKAABShgKgEGFk0lz3wpQAEKUIACFKAABShAAQpQgAIUoAAFKGDGAgwsmnHlsegUoAAFKEABClCAAhSgAAUoQAEKUIACFDCVAAOLppJnvhSgAAUoQAEKUIACFKAABShAAQpQgAIUMGMBBhbNuPJYdApQgAIUoAAFKEABClCAAhSgAAUoQAEKmEqAgUVTyTNfClCAAhSgAAUoQAEKUIACFKAABShAAQqYsQADi2ZceSw6BShAAQpQgAIUoAAFKEABClCAAhSgAAVMJcDAoqnkmS8FKEABClCAAhSgAAUoQAEKUIACFKAABcxYgIFFM648Fp0CFKAABShAAQpQgAIUoAAFKEABClCAAqYSYGDRVPLMlwIUoAAFKEABClCAAhSgAAUoQAEKUIACZizAwKIZVx6LTgEKUIACFKAABShAAQpQgAIUoAAFKEABUwkwsGgqeeZLAQpQgAIUoAAFKEABClCAAhSgAAUoQAEzFmBg0Ywrj0WnAAUoQAEKUIACFKAABShAAQpQgAIUoICpBBhYNJU886UABShAAQpQgAIUoAAFKEABClCAAhSggBkL/A8jCaS54YbzjQAAAABJRU5ErkJggg==;" vertex="1" parent="1">
          <mxGeometry x="-10" y="120" width="1302" height="247" as="geometry" />
        </mxCell>
        <mxCell id="e2jKU1gRPfwrZPwswT8l-6" value="访问DP寄存器：&lt;br&gt;1、APnDP bit选择DP&lt;br&gt;2、A[2:3] 选择 寄存器地址" style="text;html=1;align=left;verticalAlign=middle;resizable=0;points=[];autosize=1;strokeColor=none;fillColor=none;fontStyle=1" vertex="1" parent="1">
          <mxGeometry x="90" y="430" width="170" height="60" as="geometry" />
        </mxCell>
        <mxCell id="e2jKU1gRPfwrZPwswT8l-8" value="DP是 4 bit地址宽度，A[2:3] 代表了地址中的 bit2 bit3, bit0 和 bit1 固定为0， 对应关系&lt;br&gt;&lt;br&gt;bit3 bit2&amp;nbsp; &amp;nbsp;----------------------------- dp reg address&lt;br&gt;&lt;br&gt;0&amp;nbsp; &amp;nbsp;0&amp;nbsp; --------------&amp;nbsp; &amp;nbsp;0x0&lt;br&gt;0&amp;nbsp; &amp;nbsp;1 ---------------&amp;nbsp; &amp;nbsp;0x4&lt;br&gt;1&amp;nbsp; &amp;nbsp;0 ---------------&amp;nbsp; &amp;nbsp;0x8&lt;br&gt;1&amp;nbsp; &amp;nbsp;1 ---------------&amp;nbsp; &amp;nbsp;0xc" style="text;html=1;align=left;verticalAlign=middle;resizable=0;points=[];autosize=1;strokeColor=none;fillColor=none;fontStyle=1" vertex="1" parent="1">
          <mxGeometry x="90" y="530" width="490" height="130" as="geometry" />
        </mxCell>
        <mxCell id="e2jKU1gRPfwrZPwswT8l-9" value="DPIDR（R）" style="rounded=0;whiteSpace=wrap;html=1;fillColor=#ffe6cc;strokeColor=#d79b00;" vertex="1" parent="1">
          <mxGeometry x="740" y="540" width="120" height="30" as="geometry" />
        </mxCell>
        <mxCell id="e2jKU1gRPfwrZPwswT8l-11" value="CTRL/STAT" style="rounded=0;whiteSpace=wrap;html=1;fillColor=#ffe6cc;strokeColor=#d79b00;" vertex="1" parent="1">
          <mxGeometry x="740" y="570" width="120" height="30" as="geometry" />
        </mxCell>
        <mxCell id="e2jKU1gRPfwrZPwswT8l-12" value="SELECT" style="rounded=0;whiteSpace=wrap;html=1;fillColor=#ffe6cc;strokeColor=#d79b00;" vertex="1" parent="1">
          <mxGeometry x="740" y="600" width="120" height="30" as="geometry" />
        </mxCell>
        <mxCell id="e2jKU1gRPfwrZPwswT8l-13" value="RDBUFF" style="rounded=0;whiteSpace=wrap;html=1;fillColor=#ffe6cc;strokeColor=#d79b00;" vertex="1" parent="1">
          <mxGeometry x="740" y="630" width="120" height="30" as="geometry" />
        </mxCell>
        <mxCell id="e2jKU1gRPfwrZPwswT8l-14" value="0x0" style="text;html=1;align=center;verticalAlign=middle;resizable=0;points=[];autosize=1;strokeColor=none;fillColor=none;" vertex="1" parent="1">
          <mxGeometry x="690" y="540" width="40" height="30" as="geometry" />
        </mxCell>
        <mxCell id="e2jKU1gRPfwrZPwswT8l-15" value="0x0" style="text;html=1;align=center;verticalAlign=middle;resizable=0;points=[];autosize=1;strokeColor=none;fillColor=none;" vertex="1" parent="1">
          <mxGeometry x="690" y="570" width="40" height="30" as="geometry" />
        </mxCell>
        <mxCell id="e2jKU1gRPfwrZPwswT8l-16" value="0x0" style="text;html=1;align=center;verticalAlign=middle;resizable=0;points=[];autosize=1;strokeColor=none;fillColor=none;" vertex="1" parent="1">
          <mxGeometry x="690" y="600" width="40" height="30" as="geometry" />
        </mxCell>
        <mxCell id="e2jKU1gRPfwrZPwswT8l-17" value="0x0" style="text;html=1;align=center;verticalAlign=middle;resizable=0;points=[];autosize=1;strokeColor=none;fillColor=none;" vertex="1" parent="1">
          <mxGeometry x="690" y="630" width="40" height="30" as="geometry" />
        </mxCell>
        <mxCell id="e2jKU1gRPfwrZPwswT8l-18" value="bank0" style="text;html=1;align=center;verticalAlign=middle;resizable=0;points=[];autosize=1;strokeColor=none;fillColor=none;" vertex="1" parent="1">
          <mxGeometry x="750" y="500" width="60" height="30" as="geometry" />
        </mxCell>
        <mxCell id="e2jKU1gRPfwrZPwswT8l-19" value="&lt;b&gt;这个地址范围就对应4个寄存器，不够用了怎么办？&lt;/b&gt;" style="text;html=1;align=left;verticalAlign=middle;resizable=0;points=[];autosize=1;strokeColor=none;fillColor=none;" vertex="1" parent="1">
          <mxGeometry x="680" y="690" width="290" height="30" as="geometry" />
        </mxCell>
        <mxCell id="e2jKU1gRPfwrZPwswT8l-20" value="" style="shape=image;verticalLabelPosition=bottom;labelBackgroundColor=default;verticalAlign=top;aspect=fixed;imageAspect=0;image=data:image/png,iVBORw0KGgoAAAANSUhEUgAABLIAAACnCAYAAAAFSHXCAAAABHNCSVQICAgIfAhkiAAAIABJREFUeF7t3Qd4VEXbxvF7d1MgIYHQQ5EqhKqIIKFjAwVUmoAgKkUUlKJ+L4KiIkrzRUCadJQiAVGpAgpILwIvHaRIBxECoSSk7e53ElqSTQKBALub/7nM5cWcMzPP/CaQk2fnzDHZjUMcCCCAAAIIIIAAAggggAACCCCAAAIIOLmA2cnjIzwEEEAAAQQQQAABBBBAAAEEEEAAAQTiBUhk8Y2AAAIIIIAAAggggAACCCCAAAIIIOASAiSyXGKaCBIBBBBAAAEEEEAAAQQQQAABBBBAgEQW3wMIIIAAAggggAACCCCAAAIIIIAAAi4hQCLLJaaJIBFAAAEEEEAAAQQQQAABBBBAAAEESGTxPYAAAggggAACCCCAAAIIIIAAAggg4BICJLJcYpoIEgEEEEAAAQQQQAABBBBAAAEEEECARBbfAwgggAACCCCAAAIIIIAAAggggAACLiFAIsslpokgEUAAAQQQQAABBBBAAAEEEEAAAQRIZPE9gAACCCCAAAIIIIAAAggggAACCCDgEgIkslximggSAQQQQAABBBBAAAEEEEAAAQQQQIBEFt8DCCCAAAIIIIAAAggggAACCCCAAAIuIUAiyyWmyU2DtFpl/MeBAAIIIIAAAggggAACCCCAAAII3JYAiazbYuIiBwHbeW2Z3EMvViqlfFkzydsvt0pUb66Ppm/VJYeLHQts//ys1oX8laPNLMeTlCCAAAIIIIAAAggggAACCEhROzSwTiH5ZQtW3+1R91zEdm6rvnuviSqVzK+s3t7yy/OwqrXopek7LtzzvjN6B9EnVmtEx3oqVyinfLwyK6Dgo3qu00itDWX1R9LvDRJZSUX4860FrEf1Q5uaCm77lebvj1bRmg30Qq2HFbNttvq1rqGaHyxSqC2VZi5t0X9bddUPJyJTuYhTCCCAAAIIIIAAAggggEBGFriijf3fVd8VR3U5/IqiU/sdKx2YrEdm6bXKNfTG0F+031pYNV94QbWK2rR9Vn+1rlpH7//2r+5xCOkwCtdswnrsF71V53l1GbdMJzOVUO261VTI/reWfPuunqnZRQvPxLrmwO5R1CSy7hGs+zZr078hvdX1h12y5W+myVt2avW8HzVr/hrt+nOCmuSL1bahXfT56vBkCaL+nqP3nm2oXsuP8Y9gskIUIoAAAggggAACCCCAAALS5VX91WHgKoXb74OG7V+FfPChpv8dqQIvT9DmXas1b9YszV+3U3+ObaV8V7bpm05faHXk/QjmPozXmbqIs3/vfX13wKqyHX/Qlt1rtXDe79q6d42+aVBcMXvG6p1PluqyM8X8gGMhkfWAJ8Dlured1Zwpv+msPZNqfThIrYpmvjEEn6BW6vl6BXlYD2nxvK2KTji4yKP6/b/tVLXyyxq64ZzyPZRXFpcbPAEjgAACCCCAAAIIIIAAAvdBIGy5er35jXb5lVOFAl73vEPbmV81deFR2b1r6T+DW6uYt+lan5kV9PoHer2Uv2IP/aZ5W3mqJr0nw7Z/ukbNPyJTvubqP6ixCl3/RTlLOb09vq8aZjfryLTRmp3qY0/pHZVzt0ciy7nnx/miM/up3heTNe3b0fqoUX4l/gYyKXMm7/iYoyMT/wMXtXSQWveYpG2xD6v5Vwu1sk9teTjf6IgIAQQQQAABBBBAAAEEEHiwArYzmvdBN317wE/NhvVXg5w+9zwes99T6jt7ir79tpcaByb9TS2TMmWK+80vWpGsyEr3uQhbu15bo+wKMB4trO13PYF4tRtz7qfUMDiX7OErtHDp7exGne7hOWWDJLKcclqcOajMKljxWbV88zXVyZfkH7gLGzT5x22KteRS1TrllfBzA5NfYT3bebiW7t6sH96vo9zmxH9BnXnExIYAAggggAACCCCAAAII3B8Bm07N7qXO3+1R/jZDNaxJAWPxwH343cmngCrWa6E3X3tS+ZJkCS6snaYfd4TJkquK6jyS6f4wZJheorR9yx5F2i0qVqa0HHX9FVQ6nyy2cP2180CGUbnVQJOmWm91PecRSCxgPaH1c5Zry641+vm7GVp2KFZlOozRwJdyJbrOq+YH+r4meAgggAACCCCAAAIIIIAAAikJWI+G6N2uU/VP4baa89VLxgKA3Sldek/Lrcc2as4fm7Vr9Rx9N/13HfIsrfYj++ulANbCpC+8TWf+vSCbyUN58uVPZvsdDwUG5jKSmcZe1SdOGl1XTN/uXbQ1ElkuOnHOErbtxFx92PIdrYh/hYZJvmXb6O1Xg5WLf9+cZYqIAwEEEEAAAQQQQAABBFxBwPq3JrzdS7+EFtM70/rpuezGZkkP5GV1Np2Y3Uctuy+8uu+xyVdlX+uoV6vkSbK1jCugOnuMUbp4KUp243mmzJmT30XaJ3Pc9j12hUdccfbB3Lf4SDfcN2o37SjTE/q/mb/qt3nTNKz788p5YIreqVNVzb7drig3HTLDQgABBBBAAAEEEEAAAQTSVyBae0Z01YeLTqvse6P0RZ3s6dt8GlvLXP0dzVxibO4+dbjx1vlAHfiui56s8rK+3UUyJY2UqV9ui1ZMrPEmSJNZ5mTzWGZZzFcfLrXbeWPkdUwSWal/W3H2FgLm3I+p/ovP6ukGr6jL13O14YeOKmw/oXn/6aHJJx7Ixwe3iJjTCCCAAAIIIIAAAggggIBzCURvG6E3P1mk6Ir/p3Gf1lCWBxqeWbkef04vPvO0GrR6R4MXrtEPr5WR/fg8/eeDyToR9zAOR/oImLMoi6+HTPa4jfSTg7UpIjJuxZZJ/v7+6dOnG7RCIssNJtF5hmBWngbv6LXyWWW/vE5LV0c4T2hEggACCCCAAAIIIIAAAgg4o4DxlsJpvYdozSWLcvnu03DjxVpt2rS5+vVGb809arytznZM8z9tpzavddA36+7zqihzbjV8v5XKe5h0ec0yreLNhen4XWRRjhx+MttjdD40zNgJK+lhU6hRHp/Iyp416ckM+2f2yMqwU3+HA48+rrVzftPm41lUu3NTlfNK8gYNc07lyRH3vsILCg+PucNOqIYAAggggAACCCCAAAIIZBSBaF2+HC27PUqH/5ihw8kO+5y2zp2mrcZ+VeH1BqtLcOZkr7rTwuij6zXn90067l9TnZsmfgN9XJum3LmV02T87hcZofCYuEfc7sObFO90MC5Vz0OlShcx9h47oKP7Dxhboj1k7JaV8IjWwf0nZTX5qGS5ki41snsZLImse6nrjm3b92hS184a/2+g3qlQX8Nr+yQe5ZXt2rLX+MTAnF/FiiU5544ejAkBBBBAAAEEEEAAAQQQuBsBcy69PHKBKl+0OrZiO6yJr7fX2IP51H7qRLUv6q0cxX0dr7vLEvuu6eraYbjOFOqsCg2Hq7Z34kTVlS1btcdqk6VQURXPTBLrLrkTVLeoYM0qKuG5SPtW/6G9sXXiV77dOKI2afn607J7PKrgKjxaeN2FRwvT7zswY7TkXVVNGxaTxXpYUz4boR1RCTacs57Wkt6fafrxK/Iu/bJaB2fKGCaMEgEEEEAAAQQQQAABBBC4YwEv5Sn1uJ544gnHr0qlFejjaSyAyqy8QcY1lR9X8bi3Gabz4V3zRb1Q0EexR6bqs+HbEr24y3p6qT756Acdt3mpVMtXFJz0qZx0jiWjNWd5tLGaP5JdsdvH66PxOxR5A+CiNg7ur6mHryhrvdf1ahHj+4AjXoAVWXwjpFHAV8989qXaLGutySs/Uq0qf6pts2Dl12ltWxiiH9YeUax/VX0y5j+qzD9wabTlcgQQQAABBBBAAAEEEEDgAQj41tGnX7+mpS3HaGXPJ1Xlz9fVrEpB6dR2LZweorUnouRftbfG9KiS5NG3BxCru3XpUVZdB3ZQSINBWtClnuqsa61Gjwbo9NqfNPmnzboYUFtf9X1FgSxDujHzJLLc7S/BfRiPOfAFffv7TD3UrYeGzZ+twVt/jO/VZPFV4Trv6NMhX8Rv+M6BAAIIIIAAAggggAACCCDgCgJmBTYeqqU/5VO3/xumebOGaOvMuLhNsmQprDrv9tbXX76uR/x4rPBezKb/k321YKa33u42TEumfKX138fReyhbyRfVb8wYdXuEbXsSupvsxnEvJoI2M4ZA1L9/aeuuo7povCA2X1B5lQlM/+e1M4Yko0QAAQQQQAABBBBAAAEEnEEgSv/u3aZdxy5IWQIV9EgZ4/FGElj3ZWZs4Tq6Y6v2n7UrR5EgBRXOqUysxHKgJ5HlQEIBAggggAACCCCAAAIIIIAAAggggIAzCpDbc8ZZISYEEEAAAQQQQAABBBBAAAEEEEAAAQcBElkOJBQggAACCCCAAAIIIIAAAggggAACCDijAIksZ5wVYkIAAQQQQAABBBBAAAEEEEAAAQQQcBAgkeVAQgECCCCAAAIIIIAAAggggAACCCCAgDMKkMhyxlkhJgQQQAABBBBAAAEEEEAAAQQQQAABBwEPhxIKELgmsHfvXq1atQoPBBBAAAEEEEAAAQQQQAABBBBwIYGgoCDVqFHDhSK+/VBJZN2+VYa7cuXKlerYsWOGGzcDRgABBBBAAAEEEEAAAQQQQMCVBdq2bUsiy5UnkNjvXqBUqVJ33wgtIIAAAggggAACCCCAAAII3BeBPXv23OiH3+fuC7lTdJJw3p0ioHsQBCuy7gGquzVZpkwZ7dy5092GxXgQQAABBBBAAAEEEEAAAbcViEtexW0XM378eLVr185tx8nAEgu0b99eEyZMcGsWNnt36+llcAgggAACCCCAAAIIIIAAAggggID7CJDIcp+5ZCQIIIAAAggggAACCCCAAAIIIICAWwuQyHLr6WVwCCCAAAIIIIAAAggggAACCCCAgPsIkMhyn7lkJAgggAACCCCAAAIIIIAAAggggIBbC5DIcuvpZXAIIIAAAggggAACCCCAAAIIIICA+wiQyHKfuWQkCCCAAAIIIIAAAggggAACCCCAgFsLkMhy6+llcAgggAACCCCAAAIIIIAAAggggID7CJDIcp+5ZCQIIIAAAggggAACCCCAAAIIIICAWwuQyHLr6WVwCCCAAAIIIIAAAggggAACCCCAgPsIkMhyn7lkJAgggAACCCCAAAIIIIAAAggggIBbC5DIcuvpZXAIIIAAAggggAACCCCAAAIIIICA+wiQyHKfuWQkCCCAAAIIIIAAAggggAACCCCAgFsLkMhy6+llcAgggAACCCCAAAIIIIAAAggggID7CJDIcp+5ZCQIIIAAAggggAACCCCAAAIIIICAWwuQyHLr6WVwCCCAAAIIIIAAAggggAACCCCAgPsIkMhyn7lkJAgggAACCCCAAAIIIIAAAggggIBbC5DIcuvpZXAIIIAAAggggAACCCCAAAIIIICA+wiQyHKfuWQkCCCAAAIIIIAAAggggAACCCCAgFsLkMhy6+llcAgggAACCCCAAAIIIIAAAggggID7CJDIcp+5ZCQIIIAAAggggAACCCCAAAIIIICAWwuQyHLr6WVwCCCAAAIIIIAAAggggAACCCCAgPsIkMhyn7lkJAgggAACCCCAAAIIIIAAAggggIBbC5DIcuvpZXAIIIAAAggggAACCCCAAAIIIICA+wiQyHKfuWQkCCCAAAIIIIAAAggggAACCCCAgFsLkMhy6+llcAgggAACCCCAAAIIIIAAAggggID7CJDIcp+5ZCQIIIAAAggggAACCCCAAAIIIICAWwuQyHLr6WVwCCCAAAIIIIAAAggggAACCCCAgPsIeDj9UKzh+ufQIR07Gy7PbHlUsPBDypHJPfNvsZf+0eG/j+lsTGblKfqwimT3dvrpIUAEEEAAAQQQQAABBBBAAAEEEEDgfgk4bUYo9p91GtmxnkrlzaV8D5dT5eAqqlCqqPLkLKjHGnTVuI2nZU2iFL2sh0pm9VOWLFlu/eVfWB0WXL7RwtmJLZXdqBdQd7hO2G6DP3qlupbMdet+4mPxV6EOcxWZXLOX92n+4G5q+EigfLMG6uFHKyu4UjkVy51DBZ5ors9+3qOIBPWs2wepSoD/bfYb13eAgr/4X3I9U4YAAggggICTCli17+sGyu5n/BzzL6G3F11IJc4ozWtfRv5Jf/b7+ck/W3blLlBcj9RopE4DZmrb+aR3DnHN3n39ZV0rKmvS/q/92c8/qwJy5VfRssFq0K6f5v+d8Kd6KsPiFAIIIIAAAgggcB8Eok+s1ggj91KuUE75eGVWQMFH9VynkVobmtx9U1oDuqyd0z9W0yoPK6ePlzy8sihvyZpq9dls7Y2wp7WxG9c75Yos6+FZeuPptpp2MFymzLkVFBysorl8ZTNWLO3buk1bF3yjjkvm649Ji/Vdq+K6MQhbtCLCw43Ej7f8s/rIkhqL2UA0m25cYY+JUrhR1x4V45AgS74Zm6IjIhQeEaVMxk2qT+qdycvTrJu9XW0xet8Mvd34HU3eFSq7xU8FH62h0kXyyS/2rP7etllb/5ypPk0Xa8H70zV/wPPKE5d2NFmUydtL3uaEkx6riAuXFGkzJxOLp7wsSXtOfkSUIoAAAggg4BQCsbs1bcpahRk/kz1iDypk3Bx9/mwb5Urh4zdrVKTxMzxC5sxZ5Z/5+kV22WIiFXbqb505cVDbV8/RpG/rq9/MqepeOWuiYd5tfVt03D1EhCw5i6hEXp/EhLYYRZz/R8d2r9ehXRu0aM5SDVw6V+8/4usU1ASBAAIIIIAAAhlXwHrsF731VBtNPhCpgIcfV+26Pjr5v41a8u27Wrlit2b9MUzP57rTtFG4NvRtpHqf/a4LllwqW7O+nvS/qF2r1uiHz5tryaoB+n3B+3ok0x3kK+zOdlhP26c2KWI3y2LP80xf+x+nohJHeHmffWanqnY/s+xm/7r2UYdjbpyP+q2bvYDFZLcU7mRfHmVL08j+/baR3Uuye9YabD9ivY2qUcvtbxXwsctcxN55efhtVEh8ifXMYnunklntJpPFnjO4s33SxlP2myMxro05ZV8z+GV7QU8jY2XOZa8/dp89NqVe7jKWlJodM2ZMXLbMXqZMmZQuoRwBBBBAAIF0F4ha1dNewsNs92vY0d7mocx2k08d+7BDiX5KJugz0v5z66LGfYOnvXTPdYl/lhpXWcNP2bf/8pW9ZdmcdrPJZPfI95J94sHodK3/21tl7BbjvqVw59/tSe5arvUTYz+9cZL99dIBdpNMdt9a/7Xvi03bfUq6I9MgAggggIDbCwQFBcX/Pjd+/Hi3HysDvCnQrl27+Hlv27Zt6ixG7mVaU+MeyuRjL/fWj/bD1xMOl7bbRzR82O5p8rAXeWuR/VLqraR41rp3mL2Gj8Vu8n3M/sHSk/braZaYk4vs75Yz7olMfvanRuxPOc+RYst2477P2Y7ItZq/9IRslsrqPrqHauU10ksJD9+H1WzIGL1fIbvsl1Yo5Jejup0nAZ1rmFe0+steGrfvojKV66bZvw7X65Xy3lxZFhesR15VfW+iZr5fRV72M1r0xVdaehdL75xr/ESDAAIIIIBASgIRWvrdHB20eqty3e5qVb+YzFfWaPLk7YpNqUoq5WafvCr34geauny63g7yl/XkPH3cZ67Op1In4am7rX+1LQ/lrvS6Ro1+U8WNDzUj1i7W0nN3vpz+NkPnMgQQQAABBBBAIEUB2/7pGjX/iEz5mqv/oMYqdP0psyzl9Pb4vmqY3awj00ZrduidZFxsOrviD/15xSa/ut308ZOBup588gisq0+6PytfXdaaX//QxRQjTPmE8yWyjMcDo6Ljbu5MMqcUnVeQmnZ8RU2at1DVwFi53K3gufka/v0OxZgD1ezznqqZNaWldL6q3LWrWlWqpuefLKCYdHlGNeVvBs4ggAACCCDwwAXClmjKnIOyeVfRCw2LqXbLBipiidGOqZO0OvLOf+Kbcz6jgUPbqrDFplMzxyrkn7Slxe62fpyrd4niKmTc3NjtZ3X6dMwDpyYABBBAAAEEEMi4AmFr12trlF0BdZ5Xbb/EOQlz7qfUMDiX7OErtHDpJQPpotaN+o86vd1J3UasUFgStujdM/RR57fV6Z0vNffY1Xssu9Vm5GqMvI6Xsa1TkuszZ/GJL7PGRN/ZB5VON22ZyqtiGX+ZbBs1rOsQrTiR3BbpHirTYbhm/TBJ/V4ukfpeWE43QOOT2BW/aXlYtMx+NdTgqeypRmjO+7ImblituZM+Uf2CSac/1aqcRAABBBBAwMUEbDr98wwtPBstn1pN1bSAh7yqNFOzkv6KPfSjxi8Mvavx+NZupPoP+cgevUl/rLr5wpfbbfRu64etXq+dsVaZvArooXyet9st1yGAAAIIIIAAAuksEKXtW/Yo0tgcoViZ0srk0Lq/gkrnk8UWrr92HjDO+uvRSgHaNGWsvun+pj76LcE9WcRm9Xu9i/qPnqBfI0qpSv64vIVZOasFq5ynSReXfKcphxJ8gBd7WD9MWW6kxrxUvnqwAhz6vnWB82VGPIy3E33RXiGN/qsd83qozuJBCqr2pOrUqKEatWqrTrWyyuOd0gqmawOOPqeD/9ssP4+Ur7MEFFb5ojluLG+7NVUKV5iiFXpwqzb7eadwgVFsyaYi5YvJWJlnHLE6tHOfLhqr8yxlK+pxn5RjTLlBziCAAAIIIOCGAtZjCpmyQhdNWfVCq0bKG/dz01xerVpU0OBPVmjehNk69VJHBaa0YvtWJF6lVO5hP5kOhergvmPG1dluVSPx+Tusbws/qc1zR6pH9yk6bdwwBjZ+VS9ku9NBpC1krkYAAQQQQAABBBwFbDrz7wXZTB7Kky9/MouDPBQYmMvIl9j074mTRvWKylzpPY3vvUI1ei3RuM6f6KWNI/RMtnCt/ryLBm06K8/iHTVmcCPlvnaLYyn/loZ/vlZNe89Xl6o1tOqVuirtF67dv87QrD//VZ6n+2hEt0cdVms5xupY4nyJLIMq+7Nf6vfF+fV+l/4K2XpKe5bPiv8aZSxL8/DLr0eebKiW7bqoY8MgZXEck7H/xQy1rzIjmTM3izwbTND5eW2N5zLv8rCe0Iz21ZRqbx4NNClsrl73jUta2XQu9EL8EjtLjlwpvoHpLqOiOgIIIIAAAi4nYPtrlqatOSNT9mZq1TDPtQ+bPBTUqpmq9lulFb9/p+/2v6EPSybZP/O2R+qrgIC4zxztCjt77rZr3bwwtfo2HZ/UTAVnJV5pZbdGK/ziBV2Jsctu8lK+J3tr+rDGykEe6w78qYIAAggggAAC6SMQpYuXoow7Ii9lznx9c6zELftkjlusY1d4xJVrJ7xV/v1v1Pe3p9R92Th1/riBfm/0h94csl6RXmX13rj+ejYg4UKdrKr0Rm99vOuYPpi6QdO/3nCtHZMyl2ihTwd1VOUkjzTe7ticMJEVF7pFuau/qylb3tSg//2u+QuXadXqVVq1bpuOXDiuzXNGG59sTtaYZl9r9ncdVS7J6xpNPoVUuVpJpbj1lNGDZ4Xkso63y5bgOlNmFapcTSWzpnJH6vmo8if43jBd2/zLHhsr6x10SRUEEEAAAQTcTyBWm6fO1pZoKU/Dlno+wYolS6HGeqV2P61YtEnfT9qk9wZUNW677uyIjbm7n7yp1bfbbIo1frbH3fTZrJFGAitSxrsWZfIppifbvKwXX3pFrz5fVizGurO5oxYCCCCAAAIIpJOAsTd5TKyx96jJLHOyeSyzLEbeIi4tZbw88GanxhN0ncf21W9VOmrB2DdUdXaYTsZkUoWPR+vzWolXukfvnaLXGnRWyN82FX/hP+ravLqKZg4zFilN17CxIXq76matm/irJrQomsyKsNTH6aSJrOtBeyuwQn11iPuKK4o+q90rF2jmxFEaOetP7Z/VXa2Ll9PGL6sp4YN95tz1NWD+CNX2ug+P7ZnyqsGAORpR2yd16RtnLcqTN4fxDWHc5J47qzPG/XTWZL9xbrM5LkMAAQQQQMAdBKLW6vuQHYo1WZTl9AJ9+O5viUYVEeEpsz1G+6ZN0NLewXoufpVzGg9bmELPx336aJJ/QBofK4zrKtX6ZhVsN1t/jXjqWpLNpvM7ftGAd7po8Koj2rozUt2/CCKJlcYp43IEEEAAAQQQuAcC5izK4ushk/2yIiOTeyuhTRGR1+6Z/P0TBWAp+qpGDl6qLW9M04l/TPIL/ljjP6qqRBkR23FN6tbTSGJFqXS3BVr99dM3NnR47qVWav1MV1VrPEpT3v1QdZ+arpa50paaSmUZ0T3AumWTNl04sl3r//hNG48ks8m7V06Vfvo1fTZ9pVYMqq9spkjtmjJFq42d9l3nsOih8kHKbTHJtnuLNkXcKvYIrRvfT9/8sFS7z0S5zjCJFAEEEEAAgTQIXF48Qz8diTA+9ovW/oVjNWLEiERfE1ccjl/FbD35i8b/8o/xoP4dHDHb9b89xkuezcYGpmWLpL2BNNU3K6BcYw2c86N6Vc6ucxuGqc0rQ7XtLt68mPaAqYEAAggggAACCCQnYFGOHH7xHxKeDw1L5r7KplCjPP7Dv+xZkzRgksl08wPFuCfOHBJLF1fr19X/Go/CVVPHD2on2ZXUrNzPva+3jPsj+7nfNOeP8OQCTLXMob9Ur77nJ2O0pm9zVTNe/9hm+CYZTxekcHgrqHVjPeFhke2fkzrmYm+w9g5+WrVzeMl2eY0WLUv64sokQ764TGM+6auurRqr54I72c8jBUKKEUAAAQQQcBqBc5r7/a/6x+qhUp1nauOmTdrk8LVek1oHGW/POa/FE0J05A4yWReXzNVi40MhU5ZgPVXtdldS30S6o/rZqqj3xN6qbSy/PvdHb7X4v0U6dwexO81UEQgCCCCAAAIIuIGAcc9Vukj8Zu5H9x8wXkmX9IjWwf0nZTX5qGS5kolOWv/+Xp3eC9FJe1blC8ykS2v7qUP/DUq4FMl26bwuGts5mDLnUb7syTyCZsmjQgWMHc9tV3TunPFBZhoPJ0tkeapicHkzEKuzAAAd30lEQVT5mmJ1IGSsFp5x5Lw+vph9B3TI2IvCHJhPBV3tDdZZn1b75qXlYT2lH/sN0cbwlFZlRWnr8KH68Z9IWfLU16sv5Enj9HI5AggggAACzi9gOzlXU5ccl92jrF7u+IIqVayoig5fT6hVp6Yqbqw8j1j9vSbvSOMq5fAN+qrPTJ20mhXY6A01zpO2Jey6i/qepd/SiE+eMfbujNRf33bVx0sTvLLa+aeHCBFAAAEEEEDA7QQsKlizikp4WnVs9R/aG7dfVsIjapOWrz9t3JuVU3CVBI8Wxu7TyDd7a+FZq/I1GaZV8z7RE76R2jTwLfVZY6x6v3aYcxRUfj9P2cL/0s4DySxRsh7VX39flN2cTfnz+aVZ18kSWWbladpBrxTxk+34NLVt0EWTN59NsiG6TWE7pqpTx9Hab3xyW6L5K6rufQf7ZKSZKj0r+Kjmh73UNL+3Iv7sp/rP9dAvBy4l7iDquJYOaqMmny9XuClAtXr20kvZnWy60pOEthBAAAEEMqiAVQd/mKHll63yrNhEzUunvI27Z6XmalHO2NsqZoemTVid6JO/FPGsl3Vw+Xi9W7eZBmwJlUf+RhrQp2GSJe4p1jaeZbzL+vFNe6j0O4P0YRXjA6nYA5rQ9QutuJzSh1ipxMIpBBBAAAEEEEAgnQQsjzZW80eyK3b7eH00fkeC+6qL2ji4v6YevqKs9V7Xq0WurxyK0vbBXdR7+QmZC7bU8OGvqGjFbhrdo5Z8o7ZryJufaPmFa/c3PtXVrKGxiXvsdo3tPUUHoxPe90Rp//d9NXrLeVkCn1OTmr5pHlEaP45Mc/tpr2CsVhoc0kf7n/tQyzeOVtvKk9Wz9ON67OF88veI1Jm/d2jz9kMKizUpwNhUbFzvGok2eo/r0HZiiloUn3eLNxqZ5F13sHaMa6q4F3FfP2I3fKGqhYc6PuMZf4FZuVqM19pBT9/s035cU1oEaW7K993xNU3ez2jIjvFqfO0Ni+Z8TTU65ID+afSpVqz6So1LT1KZGjVUoVguWc4f1e5N67TpyAXZTFn0yNvj9f07ZY3bYA4EEEAAAQTcTCB2j6ZN26go46dx9ZebqYSxh2SKh0cptWpVWQO3LtahkIma/3kdNb2xZ3us9o9qpKJTby7Tthtv5Ll8LlQXrsTG7/HgWaChhv46Sa8WSm4p993WTzHqqye8yui9b7pqds3e2rT3W3Xt10Rr+1VPvDHqLZrgNAIIIIAAAgggkG4Cxkr4rgM7KKTBIC3oUk911rVWo0cDdHrtT5r802ZdDKitr/q+osBr62mu/DlY7fv+rkvmYmo/arBeil/d7qFH/2+Iesx/Rp9sHKU3ez6jjaPqK8D4yLBB3356dXUbfTenk6pU/lkN69bQo3ljdWjNL5r8yxZdMBVRq68/1fNZU7n3S2GwTpkb8X28uxasK6nBfQZp/Ny1OrJzlRbuvDYC421GfoWqqEWb9/RpjyYK8nEctD3mkk4fS7LCyQHASGSdCXfY1MweeV4njp13uPpqgUWxoVcSnzM2R7t4+phuLqJLvqrJO1ThSfbEyFbtQ/26voKG9hmocXNWa9eyn7Vz2fVxeilX2YZ6o0dffdzqEaV9sV3ycVCKAAIIIICAMwlEbwzRjB3GfpGZ6qhZ01u9ftmiYs2bq/ZnS7XozHxNnHVcTTtcf+zerpgL/+jYheujM8ns6S0f/7wqVaGCqtV9WW92bqHHc6R063O39W+t6mV8ajnceHNPnf5rtH1oNw1svFJ9Hk/7Xl237okrEEAAAQQQQACBWwv4P9lXC2Z66+1uw7Rkylda/71Rx+ShbCVfVL8xY9TtkWv3KZfXqU+HwcbL6jxUsstIDaqf++biH+/y+s+372tBjV7aMO5dvV/3MU18MVDmAi9p3LLZKta9p4bO/VWTti28GpDJU9nLvqTPBgxWr+cLp7CIKPXYTXbjSP2SB3w2NkyHd+/V4dPnFWnxV578RVWiZKDSvvjsAY/jVt1HX9Dhvbt16PQFxXoY4yxWVmUe8lcy26LdqqV0Oz927Fh17NhRZcqU0c6d1zOJ6dY8DSGAAAIIIIAAAggggAACCNwjgVKlSmnv3r0aP3682rVrd496oVlnE2jfvr0mTJigtm3bxv//tg5buI7u2Kr9Z+3KUSRIQYVzKlM67mwUe+5vbd15SKHRnkb7ZfVosex39cRZSh9L3tZY78tFHtlUuHwVFb4vnT3ATryyGuMMdv9xPkBiukYAAQQQQAABBBBAAAEEEEAAgSQCZl899Eg1PXSPYDyyF9XjNYumW+vpmGNLt5hoCAEEEEAAAQQQQAABBBBAAAEEEEAAAQcBElkOJBQggAACCCCAAAIIIIAAAggggAACCDijAIksZ5wVYkIAAQQQQAABBBBAAAEEEEAAAQQQcBAgkeVAQgECCCCAAAIIIIAAAggggAACCCCAgDMKkMhyxlkhJgQQQAABBBBAAAEEEEAAAQQQQAABBwESWQ4kFCCAAAIIIIAAAggggAACCCCAAAIIOKMAiSxnnBViQgABBBBAAAEEEEAAAQQQQAABBBBwECCR5UBCAQIIIIAAAggggAACCCCAAAIIIICAMwqQyHLGWSEmBBBAAAEEEEAAAQQQQAABBBBAAAEHARJZDiQUIIAAAggggAACCCCAAAIIIIAAAgg4owCJLGecFWJCAAEEEEAAAQQQQAABBBBAAAEEEHAQIJHlQEIBAggggAACCCCAAAIIIIAAAggggIAzCpDIcsZZISYEEEAAAQQQQAABBBBAAAEEEEAAAQcBElkOJBQggAACCCCAAAIIIIAAAggggAACCDijAIksZ5wVYkIAAQQQQAABBBBAAAEEEEAAAQQQcBAgkeVAQgECCCCAAAIIIIAAAggggAACCCCAgDMKkMhyxlkhJgQQQAABBBBAAAEEEEAAAQQQQAABBwESWQ4kFCCAAAIIIIAAAggggAACCCCAAAIIOKMAiSxnnBViQgABBBBAAAEEEEAAAQQQQAABBBBwECCR5UBCAQIIIIAAAggggAACCCCAAAIIIICAMwqQyHLGWSEmBBBAAAEEEEAAAQQQQAABBBBAAAEHARJZDiQUIIAAAggggAACCCCAAAIIIIAAAgg4owCJLGecFWJCAAEEEEAAAQQQQAABBBBAAAEEEHAQIJHlQEIBAggggAACCCCAAAIIIIAAAggggIAzCpDIcsZZISYEEEAAAQQQQAABBBBAAAEEEEAAAQcBElkOJBQggAACCCCAAAIIIIAAAggggAACCDijAIksZ5wVYkIAAQQQQAABBBBAAAEEEEAAAQQQcBAgkeVAQgECCCCAAAIIIIAAAggggAACCCCAgDMKkMhyxlkhJgQQQAABBBBAAAEEEEAAAQQQQAABBwEPhxIKEEgisGvXLvXv3x8XBBBAAAEEEEAAAQQQQAABFxHYu3dvfKRxv8v9+++/LhI1Yd6twIQJE+62CaevTyLL6afIOQLs1auXcwRCFAgggAACCCCAAAIIIIAAArctcPDgQfH73G1zcaELCJDIcoFJelAh5suXTzVr1nxQ3dMvAggggAACCCCAAAIIIIAAAgjcgUDJkiXvoJZrVDHZjcM1QiVKBBBAAAEEEEAAAQQQQAABBBBAAIGMLMBm7xl59hk7AggggAACCCCAAAIIIIAAAggg4EICJLJcaLIIFQEEEEAAAQQQQAABBBBAAAEEEMjIAiSyMvLsM3YEEEAAAQQQQAABBBBAAAEEEEDAhQRIZLnQZBEqAggggAACCCCAAAIIIIAAAgggkJEFSGRl5Nln7AgggAACCCCAAAIIIIAAAggggIALCZDIcqHJIlQEEEAAAQQQQAABBBBAAAEEEEhd4MCBA+rXr5/Cw8NTv5CzLilAIsslp42gEUAAAQQQQAABBBBAAAEEEEAgOYE9e/boo48+0qVLl5I7TZmLC5DIcvEJJHwEEEAAAQQQQAABBBBAAAEEEEAgowiQyMooM804EUAAAQQQQAABBBBAAAEEEEAAARcXIJHl4hNI+AgggAACCCCAAAIIIIAAAggggEBGESCRlVFmmnEigAACCCCAAAIIIIAAAggggAACLi5AIsvFJ5DwEUAAAQQQQAABBBBAAAEEEEAAgYwiQCIro8w040QAAQQQQAABBBBAAAEEEEAAAQRcXIBElotPIOEjgAACCCCAAAIIIIAAAggggAACGUWARFZGmWnGiQACCCCAAAIIIIAAAggggAACCLi4gIeLx0/4CCCAAAIIIIAAAggggAACCLi3gDVc/xw6pGNnw+WZLY8KFn5IOTKxLsW9J53RpSTAd35KMpQjgAACCCCAAAIIIIAAAgjcEIia964e8s+iLFkSfvnJzz+bsucuoOKPVFfjzv01a3uobMm4JV/faMvPT/4BOZT3oRKqVO9VfTh2hU5G2xO0cFYTXyyUpN+4GIy+swYoz0NBqtKggwbO36/IZPpNXGTVvq8bKLufUd+/hN5edCGVGlf0Y+sS8jP6yV6pl9aGJ4wpcTXbvm9UJ8Bf/kXfSibu7Ko78kiyJnEXX1j3lZ4pEGA4BKhE87HaFXmzn9h/1mlkx3oqlTeX8j1cTpWDq6hCqaLKk7OgHmvQVeM2npY16QiiV6pryVzJeCWdu7g/+6tQh7k33M5ObKnsxvwG1B2uE8lNYtK++DMCD0CARNYDQKdLBBBAAAEEEEAAAQQQQMDlBKzRCg8PV0SUTZ7e3vKO//KSp8WmyLBT+nv7Gv08qpeaV66oF4es1+WkA0y2vtGGl6cs9miFnTqgzYunauBbz6hSo5HaeSOZZVdMZJTRd4Si5Xmt37h6HrLYrujc8X3asGC8er5YSXU+XanUUlOK3a1pU9YqLCpG0ZcPKmTcHJ1JJWFjjYo0+r2s85uHqNMXqxSedEzX/2yL1RXDJvxKVIIrrscdrqjY5Du5sHagXmr4kX4/Ga4cT3+p2ZM6qEwmU3wb1sOz9Eb1Z/Xu2CXaF+6voOAnVf+FhnquzuMq7HVWWxd8o47Vq6rNtAOKTRSXTdEREQqPiJTV4/o8pfx/L0+zrvYo2WPinI1xGD4OCbKUxk45AvdZgETWfQanOwQQQAABBBBAAAEEEEDAlQU8SnTRktNnFRoaGv917vxFRURe1olt8zSgxWPyjzmqBf9polcn7Us2GZK0fmjoOZ0Pu6TIS0e1fEhLFfW06uSij9R93IEk9T1V9cstOnOt39Bz5xV2KVJXzu3T4oFNVdBySRv6vauvNiVMJiWWjl7/g2bsvKAs9d5Qy4LeCls0WT8cTZwGSnZu7JHaPqSL+q65mOzptBfaFLZ2gF58obf+OGdSkWajtGjG2yrncy2lZPtXMz7ooekHryj3M59r2d9HtXvtUs2fM1cLl23UgWM7FdKpqrJY/9aMTu9o3JFkxmB6SO1+OXZjnq7PV+L/n9H+UQ3knfYBUAOBByZAIuuB0dMxAggggAACCCCAAAIIIOAmAubMCizfQD2mLdaMtyrKy3pS8z7+QvPOJ78SKdlRZyqgWt3GadTrpY2VVpe0atY8HbuN6h7ZiuvZD0bqs7r5pNg9WjB/d5IVStd7i9DS7+booNVblet2V6v6xWS+skaTJ29P4frr9SzKniuHzNHbNazTl1qTyiOGyY7LodBIYq0ZpJde+EQrzln0cOvxWjKlnUp5X18XZVSIXKv5S0/IZqms7qN7qFZer8St+D6sZkPG6P0K2WW/tEIhvxxN8dFFh+4pQMDFBUhkufgEEj4CCCCAAAIIIIAAAggg4DQC5pyqN2ig2hb2lfXUbI2eeTKNCRZfBVcvL2+TXdbjh3U0NuV9qRKN2ZxVRYvmlFl2RV6JSL7PsCWaMuegbN5V9ELDYqrdsoGKWGK0Y+okrU6wL5WjpUXlu/RT64d8FLXjG3Xqm8ojho6Vk5QYSazVA42VWHFJLA+VajtJiye2VnGvBEmsuBq2aEXFP1ppkjml39q9gtS04ytq0ryFqgbGGiPnQCBjCKT0VyJjjJ5RIoAAAggggAACCCCAAAIIpK+AbzW9XL+4se9VpP5cvloRaWrdpothFxWXvzIZG5H73+5vrFH7tWLtMWMFU14F1yytJOuXjAhsOv3zDC08Gy2fWk3VtICHvKo0U7OS/oo99KPGLwxNNUpTwHMaNKyNClmitWNoF32++k4eMbTp/OoBeuHFT7XyvJfKvzVFi8e0UBGPJEmsuEgylVfFMv4y2TZqWNchWnEiuW3sPVSmw3DN+mGS+r1cQpZUR8BJBNxHwMN9hsJIEEAAAQQQQAABBBBAAAEEHryAt8qWKyoP0zZdOrhfR612lbYkk6xJJlDb+TUaOn6NYoy0TMGqNVUqUZLHrgv712jxor9ubk5ujdSFk3v1x9Qxmrj5ogq1GKJP6gU4tmw9ppApK3TRlFUvtGqkvHEJMnN5tWpRQYM/WaF5E2br1EsdFZhi4syknA37aNirq9TEeBTxm05fqOG6garue3vjMrZR17lV/dX4pT5adS5WvrUGaPbwJsa+Xo6hxpd4GG9U/KK9Qhr9Vzvm9VCdxYMUVO1J1alRQzVq1VadamWVJ+GjiMk1Y4pW6MGt2uyXyg5YlmwqUr6Ysqc47uQapgyBBytAIuvB+tM7AggggAACCCCAAAIIIOB2Ar4B2ZTJGFV4mLEZfNzr7xIkbGxh2zVn7BhtTpA8sUZd0r+HtmnZz3O05uhlmbLXVY/36iTZhDxGW0e+qudHJsdlVtaqvfT9yFdUOJnkkO2vWZq25ozRbjO1apjHeAQx7vBQUKtmqtpvlVb8/p2+2/+GPizpuJbrRm/mXGpgPDb52h8va+LO4cYjhvW1bkAt+SYXTqIyuy79aazE6jNJ685f3ZQ9Ys23+mpRa42un/taLEkbMSv7s1/q98X59X6X/grZekp7ls+K/xplpPE8/PLrkScbqmW7LurYMEhZklaP+7P1hGa0r6YZyZ27XubRQJPC5ur1207IpdYY5xC4PwIksu6PM70ggAACCCCAAAIIIIAAAhlHIDY2xQ3UrSd/1Zedf03ewuShbCUbqee4UXqruGeSayzKU6mBnizuc6Pcbo1SeOhJ/bX1f9q/9ks9VXad+syaqZ5VsyeoG6vNU2drS7SUp2FLPZ/tZgbNUqixXqndTysWbdL3kzbpvQFVk3ks8WZT5pz1NGDo61rWZLR2Go8Y9qm/UoNqZE1+LDdKY7Rl2jiZLDlVq88YtT3YW+2m7NHEjl1Ue8NUtcyf0q/lFuWu/q6mbHlTg/73u+YvXKZVq1dp1bptOnLhuDbPGa3NcydrTLOvNfu7jiqXKcnqMFNmFapcTSWzprLcyvNR5U8m8XeLASV7+vLly5owYUKy5+534fz58+93l/R3HwVS+htzH0OgKwQQQAABBBBAAAEEEEAAAfcRMPaCCg1TTNw+V/7ZlC1JosSSq6peb1tTua7nXUxmeXj5yC9nfgU9Vl21qhRX8rkXi7GCaoimdi3iuIrp0h5NerOpOoYs06evfabgbcNU2+daB1Fr9X3IDsWaLMpyeoE+fPe3RNQREZ4y22O0b9oELe0drOdSXZ1kVs4Gn2nYayvVeOIODe9sPGK4dpCq3WLyTB559XT/nzX7gyryPe+n9eub6Nt9s9SlfQ09Nq+TSia3T9aNNr0VWKG+OsR9xZVFn9XulQs0c+IojZz1p/bP6q7Wxctp45fVEq9gM+VVgwFzNKL2zcTfLcK8q9MXLlxQz54976qN9Kp85coVZc6cWSbT7T76mV490879ECCRdT+U6QMBBBBAAAEEEEAAAQQQyDACMfrfln3GiiyzsgWVUdEk+2OZc9VQxy/6qVKqyZs0YvmV0mtDP9RPC9pq/qGfNX11f9V+9upDf5cXz9BPR4wt5+127V84VvtTavrkLxr/yxeq2yrQMVGWsI7xZsb6Awbp9eVNNWHnCHX6vL5Wt03tnYGeKtUtRD8ZSaz4RwADntGAMe9oZb2B2rWkl9p+9YSW9Xw8QRLKpgtHdmrPodMyF6mhyoXiHtJMcHjlVOmnX9NnT7fQy5WaqtoH87VryhSt/qSqnrrVvlkpjT0dyvPnz6+IiLRt7Z8O3dJEBhRIZY1hBtRgyAgggAACCCCAAAIIIIAAAncncHGZflpyVDaTn6o+XTV+r6z7cZgDCqtITmNjc1uYQkPjNuaKO85p7ve/6h+rh0p1nqmNmzZpk8PXek1qHSSL7bwWTwjREdutozXnfFYDh71hvHEwWru+6aK+Gy4a27mndJiUq0BBJVwX5V/7Y437oJp87Be17vP26r0yLEHlGK3p21zV6jyvNsM3yXgiMoXDW0GtG+sJD4ts/5zUsZgULqMYATcTIJHlZhPKcBBAAAEEEEAAAQQQQACBBycQrnVfDVDIySuyBL6o9o3ypb66KR0DtR7arC2nIo23EeZXkUJX99eynZyrqUuOy+5RVi93fEGVKlZURYevJ9SqU1MVN55Xilj9vSbviLqNqIzN2J/vo29eKyuP6J0a3mOcDtpuIwN2o2UfBX/8jXpVySNFbtfQdh9o/pmrG8FLnqoYXF6+plgdCBmrhTfKHcOK2XdAh4x+zYH5VDDplmKOl1OCgFsIkMhyi2lkEAgggAACCCCAAAIIIIDAgxSw6tLBFRr7TkM1GrBKER4FjP9/ogbZ7sceRbE6t8PYb6rlF1obaZN3mSZqXjluHZhVB3+YoeWXrfKsaJSVTvmNhJ6VmqtFuWxSzA5Nm7BaRjrs1oc5u54baDxiWNRXMadP6cYisFvXvHpFpkf1n3Efq042D8UcnKy3Ok/X0fhcmFl5mnbQK0X8ZDs+TW0bdNHkzWeN0SQ8bArbMVWdOo7WfmO1WYnmr6j6A3ys8HaHzHUIpIcAe2SlhyJtIIAAAggggAACCCCAAAIZRCB2/2i9WHS6bvwyabcp+vJ5hV6IUGzcBu+eBdRw6Hx992oxpdML8a7JxmjD59VVeHCCVo2+rZEXdSb0Uvzm8uZsweox8v2r+2/F7tG0aRsVZTzcWP3lZiqRZK+uRNPlUUqtWlXWwK2LdShkouZ/XkdNjbzWrQ5zdmO/q2/aatlLI3QwJi0rsq627FnmLX3bb7mqvvOTTsx+Tx1GV9SCzmXkkfVpDQ7po/3PfajlG0erbeXJ6ln6cT32cD75e0TqzN87tHn7IYXFmhQQbDym2LtG4o3e45q3H9eUFkGam3L+Lj4Ik/czGrJjvBoneOth7IYvVLXw0BRW05mVq8V4rR30tGOftwLjPALpIEAiKx0QaQIBBBBAAAEEEEAAAQQQyCgC9piLOnXs4o3hmsye8vbxV2CpR1ShWl3jEb5OalExVzonseK6syvynLEX1LnrXZtksngok09W5Sv7qB6v3Ujtu3dUvSJXd6OK3hiiGTuMvacy1VGzpkVvEY9FxZo3V+3PlmrRmfmaOOu4mnbIdRtTajxiWO8zDX9jhV4cty3JqqnbqG6kAx9+c4i+WrJN7X85qN97dtCA4N/08WO+8n28uxasK6nBfQZp/Ny1OrJzlRbuvNam8QZGv0JV1KLNe/q0RxMFXX9DY8IujTcxXjx9TDdnKvl4TN6hCk+Sg7NHnteJY+eTr2BIxoZeSeEcxQjcewGT3TjufTf0gAACCCCAAAIIIIAAAggggAACdyQQG6bDu/fq8OnzirT4K0/+oipRMlBX38t4Ry1SCQGXFSCR5bJTR+AIIIAAAggggAACCCCAAAIIIIBAxhJgs/eMNd+MFgEEEEAAAQQQQAABBBBAAAEEEHBZARJZLjt1BI4AAggggAACCCCAAAIIIIAAAghkLAESWRlrvhktAggggAACCCCAAAIIIIAAAggg4LICJLJcduoIHAEEEEAAAQQQQAABBBBAAAEEEMhYAiSyMtZ8M1oEEEAAAQQQQAABBBBAAAEEEEDAZQVIZLns1BE4AggggAACCCCAAAIIIIAAAgggkLEESGRlrPlmtAgggAACCCCAAAIIIIAAAggggIDLCpDIctmpI3AEEEAAAQQQQAABBBBAAAEEEEAgYwmQyMpY881oEUAAAQQQQAABBBBAAAEEEEAAAZcVIJHlslNH4AgggAACCCCAAAIIIIAAAggggEDGEiCRlbHmm9EigAACCCCAAAIIIIAAAggggAACLitAIstlp47AEUAAAQQQQAABBBBAAAEEEEAAgYwlQCIrY803o0UAAQQQQAABBBBAAAEEEEAAAQRcVuD/Ac5dHliOMjd8AAAAAElFTkSuQmCC;" vertex="1" parent="1">
          <mxGeometry x="80" y="780" width="719.76" height="100" as="geometry" />
        </mxCell>
        <mxCell id="e2jKU1gRPfwrZPwswT8l-21" value="&lt;b&gt;地址对齐情况下，最后几个bit是没有用的，用做 DP bank select，这样4个bit，可以扩展成 16 个bank&lt;br&gt;&lt;br&gt;这种情况下，我们访问DP寄存器，硬件会先读下bank select，确定下是哪个bank， 再根据 A[2:3] 确定是哪个寄存器&lt;br&gt;&lt;/b&gt;" style="text;html=1;align=left;verticalAlign=middle;resizable=0;points=[];autosize=1;strokeColor=none;fillColor=none;" vertex="1" parent="1">
          <mxGeometry x="80" y="920" width="650" height="60" as="geometry" />
        </mxCell>
        <mxCell id="e2jKU1gRPfwrZPwswT8l-22" value="ABORT（W）" style="rounded=0;whiteSpace=wrap;html=1;fillColor=#ffe6cc;strokeColor=#d79b00;" vertex="1" parent="1">
          <mxGeometry x="860" y="540" width="120" height="30" as="geometry" />
        </mxCell>
      </root>
    </mxGraphModel>
  </diagram>
</mxfile>
